SplineFontDB: 3.0
FontName: E190-Regular
FullName: E190
FamilyName: E190
Weight: Regular
Copyright: Marcelo Magalha~es Macedo - 2009
Version: Macromedia Fontographer 4.1.5 5/11/97
DefaultBaseFilename: e190
ItalicAngle: 0
UnderlinePosition: -175
UnderlineWidth: 50
Ascent: 720
Descent: 180
InvalidEm: 0
sfntRevision: 0x00010000
LayerCount: 2
Layer: 0 1 "Back" 1
Layer: 1 1 "Fore" 0
XUID: [1021 925 1166782590 13546814]
StyleMap: 0x0040
FSType: 0
OS2Version: 3
OS2_WeightWidthSlopeOnly: 0
OS2_UseTypoMetrics: 0
CreationTime: 863385272
ModificationTime: 1617305462
PfmFamily: 17
TTFWeight: 400
TTFWidth: 5
LineGap: 0
VLineGap: 0
Panose: 2 0 4 9 0 0 0 0 0 0
OS2TypoAscent: 910
OS2TypoAOffset: 0
OS2TypoDescent: -200
OS2TypoDOffset: 0
OS2TypoLinegap: 0
OS2WinAscent: 910
OS2WinAOffset: 0
OS2WinDescent: 199
OS2WinDOffset: 0
HheadAscent: 910
HheadAOffset: 0
HheadDescent: -199
HheadDOffset: 0
OS2SubXSize: 277
OS2SubYSize: 257
OS2SubXOff: 0
OS2SubYOff: 57
OS2SupXSize: 277
OS2SupYSize: 257
OS2SupXOff: 0
OS2SupYOff: 179
OS2StrikeYSize: 20
OS2StrikeYPos: 102
OS2CapHeight: 700
OS2XHeight: 500
OS2Vendor: 'Alts'
OS2CodePages: 00000001.00000000
OS2UnicodeRanges: 80000023.00000000.00000000.00000000
MarkAttachClasses: 1
DEI: 91125
TtTable: prep
PUSHW_1
 0
CALL
EndTTInstrs
TtTable: fpgm
PUSHW_1
 0
FDEF
MPPEM
PUSHW_1
 9
LT
IF
PUSHB_2
 1
 1
INSTCTRL
EIF
PUSHW_1
 511
SCANCTRL
PUSHW_1
 68
SCVTCI
PUSHW_2
 9
 3
SDS
SDB
ENDF
PUSHW_1
 1
FDEF
DUP
DUP
RCVT
ROUND[Black]
WCVTP
PUSHB_1
 1
ADD
ENDF
PUSHW_1
 2
FDEF
PUSHW_1
 1
LOOPCALL
POP
ENDF
PUSHW_1
 3
FDEF
DUP
GC[cur]
PUSHB_1
 3
CINDEX
GC[cur]
GT
IF
SWAP
EIF
DUP
ROLL
DUP
ROLL
MD[grid]
ABS
ROLL
DUP
GC[cur]
DUP
ROUND[Grey]
SUB
ABS
PUSHB_1
 4
CINDEX
GC[cur]
DUP
ROUND[Grey]
SUB
ABS
GT
IF
SWAP
NEG
ROLL
EIF
MDAP[rnd]
DUP
PUSHB_1
 0
GTEQ
IF
ROUND[Black]
DUP
PUSHB_1
 0
EQ
IF
POP
PUSHB_1
 64
EIF
ELSE
ROUND[Black]
DUP
PUSHB_1
 0
EQ
IF
POP
PUSHB_1
 64
NEG
EIF
EIF
MSIRP[no-rp0]
ENDF
PUSHW_1
 4
FDEF
DUP
GC[cur]
PUSHB_1
 4
CINDEX
GC[cur]
GT
IF
SWAP
ROLL
EIF
DUP
GC[cur]

StartChar: .notdef
Encoding: 65536 -1 0
Width: 600
Flags: W
LayerCount: 2
Fore
SplineSet
30 0 m 1,0,-1
 30 600 l 1,1,-1
 270 600 l 1,2,-1
 270 0 l 1,3,-1
 30 0 l 1,0,-1
60 30 m 1,4,-1
 240 30 l 1,5,-1
 240 570 l 1,6,-1
 60 570 l 1,7,-1
 60 30 l 1,4,-1
EndSplineSet
EndChar

StartChar: exclam
Encoding: 33 33 4
Width: 600
Flags: W
LayerCount: 2
Fore
SplineSet
300 200 m 1,0,-1
 200 200 l 1,1,-1
 200 700 l 1,2,-1
 300 700 l 1,3,-1
 300 200 l 1,0,-1
300 50 m 256,4,5
 300 29 300 29 285.5 14.5 c 128,-1,6
 271 0 271 0 250 0 c 256,7,8
 229 0 229 0 214.5 14.5 c 128,-1,9
 200 29 200 29 200 50 c 256,10,11
 200 71 200 71 214.5 85.5 c 128,-1,12
 229 100 229 100 250 100 c 256,13,14
 271 100 271 100 285.5 85.5 c 128,-1,15
 300 71 300 71 300 50 c 256,4,5
EndSplineSet
EndChar

StartChar: quotedbl
Encoding: 34 34 5
Width: 600
Flags: W
LayerCount: 2
Fore
SplineSet
400 400 m 1,0,-1
 300 400 l 1,1,-1
 300 700 l 1,2,-1
 400 700 l 1,3,-1
 400 400 l 1,0,-1
200 400 m 1,4,-1
 100 400 l 1,5,-1
 100 700 l 1,6,-1
 200 700 l 1,7,-1
 200 400 l 1,4,-1
EndSplineSet
EndChar

StartChar: numbersign
Encoding: 35 35 6
Width: 600
Flags: W
LayerCount: 2
Fore
SplineSet
500 300 m 1,0,-1
 400 300 l 1,1,-1
 400 200 l 1,2,-1
 300 200 l 1,3,-1
 300 300 l 1,4,-1
 200 300 l 1,5,-1
 200 200 l 1,6,-1
 100 200 l 1,7,-1
 100 300 l 1,8,-1
 0 300 l 1,9,-1
 0 400 l 1,10,-1
 100 400 l 1,11,-1
 100 500 l 1,12,-1
 0 500 l 1,13,-1
 0 600 l 1,14,-1
 100 600 l 1,15,-1
 100 700 l 1,16,-1
 200 700 l 1,17,-1
 200 600 l 1,18,-1
 300 600 l 1,19,-1
 300 700 l 1,20,-1
 400 700 l 1,21,-1
 400 600 l 1,22,-1
 500 600 l 1,23,-1
 500 500 l 1,24,-1
 400 500 l 1,25,-1
 400 400 l 1,26,-1
 500 400 l 1,27,-1
 500 300 l 1,0,-1
300 400 m 1,28,-1
 300 500 l 1,29,-1
 200 500 l 1,30,-1
 200 400 l 1,31,-1
 300 400 l 1,28,-1
EndSplineSet
EndChar

StartChar: dollar
Encoding: 36 36 7
Width: 600
Flags: W
LayerCount: 2
Fore
SplineSet
500 200 m 256,0,1
 500 118 500 118 441.5 59 c 128,-1,2
 383 0 383 0 300 0 c 1,3,-1
 300 -99 l 1,4,-1
 200 -99 l 1,5,-1
 200 0 l 1,6,7
 117 0 117 0 58.5 58.5 c 128,-1,8
 0 117 0 117 0 200 c 1,9,-1
 100 200 l 1,10,11
 100 159 100 159 129.5 129.5 c 128,-1,12
 159 100 159 100 200 100 c 1,13,-1
 200 300 l 1,14,15
 117 300 117 300 58.5 358.5 c 128,-1,16
 0 417 0 417 0 500 c 256,17,18
 0 583 0 583 58.5 641.5 c 128,-1,19
 117 700 117 700 200 700 c 1,20,-1
 200 800 l 1,21,-1
 300 800 l 1,22,-1
 300 700 l 1,23,24
 383 700 383 700 441.5 641 c 128,-1,25
 500 582 500 582 500 500 c 1,26,-1
 400 500 l 1,27,28
 400 541 400 541 370.5 570.5 c 128,-1,29
 341 600 341 600 300 600 c 1,30,-1
 300 400 l 1,31,32
 382 400 382 400 441 341 c 128,-1,33
 500 282 500 282 500 200 c 256,0,1
200 400 m 1,34,-1
 200 600 l 1,35,36
 159 600 159 600 129.5 570.5 c 128,-1,37
 100 541 100 541 100 500 c 256,38,39
 100 459 100 459 129.5 429.5 c 128,-1,40
 159 400 159 400 200 400 c 1,34,-1
400 200 m 256,41,42
 400 241 400 241 370.5 270.5 c 128,-1,43
 341 300 341 300 300 300 c 1,44,-1
 300 100 l 1,45,46
 341 100 341 100 370.5 129.5 c 128,-1,47
 400 159 400 159 400 200 c 256,41,42
EndSplineSet
EndChar

StartChar: percent
Encoding: 37 37 8
Width: 600
Flags: W
LayerCount: 2
Fore
SplineSet
360 181 m 0,0,1
 341 181 341 181 325.5 166 c 128,-1,2
 310 151 310 151 310 130 c 256,3,4
 310 109 310 109 325.5 95 c 128,-1,5
 341 81 341 81 360 81 c 0,6,7
 378 81 378 81 393.5 95 c 128,-1,8
 409 109 409 109 409 130 c 256,9,10
 409 151 409 151 393.5 166 c 128,-1,11
 378 181 378 181 360 181 c 0,0,1
0 0 m 1,12,-1
 400 700 l 1,13,-1
 500 700 l 1,14,-1
 100 0 l 1,15,-1
 0 0 l 1,12,-1
360 260 m 0,16,17
 408 260 408 260 449 222.5 c 128,-1,18
 490 185 490 185 490 131 c 256,19,20
 490 77 490 77 449 38.5 c 128,-1,21
 408 0 408 0 360 0 c 0,22,23
 311 0 311 0 270.5 38.5 c 128,-1,24
 230 77 230 77 230 131 c 256,25,26
 230 185 230 185 270.5 222.5 c 128,-1,27
 311 260 311 260 360 260 c 0,16,17
360 181 m 0,28,29
 341 181 341 181 325.5 166 c 128,-1,30
 310 151 310 151 310 130 c 256,31,32
 310 109 310 109 325.5 95 c 128,-1,33
 341 81 341 81 360 81 c 0,34,35
 378 81 378 81 393.5 95 c 128,-1,36
 409 109 409 109 409 130 c 256,37,38
 409 151 409 151 393.5 166 c 128,-1,39
 378 181 378 181 360 181 c 0,28,29
360 260 m 0,40,41
 408 260 408 260 449 222.5 c 128,-1,42
 490 185 490 185 490 131 c 256,43,44
 490 77 490 77 449 38.5 c 128,-1,45
 408 0 408 0 360 0 c 0,46,47
 311 0 311 0 270.5 38.5 c 128,-1,48
 230 77 230 77 230 131 c 256,49,50
 230 185 230 185 270.5 222.5 c 128,-1,51
 311 260 311 260 360 260 c 0,40,41
360 181 m 0,52,53
 341 181 341 181 325.5 166 c 128,-1,54
 310 151 310 151 310 130 c 256,55,56
 310 109 310 109 325.5 95 c 128,-1,57
 341 81 341 81 360 81 c 0,58,59
 378 81 378 81 393.5 95 c 128,-1,60
 409 109 409 109 409 130 c 256,61,62
 409 151 409 151 393.5 166 c 128,-1,63
 378 181 378 181 360 181 c 0,52,53
360 260 m 0,64,65
 408 260 408 260 449 222.5 c 128,-1,66
 490 185 490 185 490 131 c 256,67,68
 490 77 490 77 449 38.5 c 128,-1,69
 408 0 408 0 360 0 c 0,70,71
 311 0 311 0 270.5 38.5 c 128,-1,72
 230 77 230 77 230 131 c 256,73,74
 230 185 230 185 270.5 222.5 c 128,-1,75
 311 260 311 260 360 260 c 0,64,65
360 181 m 0,76,77
 341 181 341 181 325.5 166 c 128,-1,78
 310 151 310 151 310 130 c 256,79,80
 310 109 310 109 325.5 95 c 128,-1,81
 341 81 341 81 360 81 c 0,82,83
 378 81 378 81 393.5 95 c 128,-1,84
 409 109 409 109 409 130 c 256,85,86
 409 151 409 151 393.5 166 c 128,-1,87
 378 181 378 181 360 181 c 0,76,77
360 260 m 0,88,89
 408 260 408 260 449 222.5 c 128,-1,90
 490 185 490 185 490 131 c 256,91,92
 490 77 490 77 449 38.5 c 128,-1,93
 408 0 408 0 360 0 c 0,94,95
 311 0 311 0 270.5 38.5 c 128,-1,96
 230 77 230 77 230 131 c 256,97,98
 230 185 230 185 270.5 222.5 c 128,-1,99
 311 260 311 260 360 260 c 0,88,89
140 621 m 0,100,101
 121 621 121 621 105.5 606 c 128,-1,102
 90 591 90 591 90 570 c 256,103,104
 90 549 90 549 105.5 535 c 128,-1,105
 121 521 121 521 140 521 c 0,106,107
 158 521 158 521 173.5 535 c 128,-1,108
 189 549 189 549 189 570 c 256,109,110
 189 591 189 591 173.5 606 c 128,-1,111
 158 621 158 621 140 621 c 0,100,101
140 700 m 0,112,113
 188 700 188 700 229 662.5 c 128,-1,114
 270 625 270 625 270 571 c 256,115,116
 270 517 270 517 229 478.5 c 128,-1,117
 188 440 188 440 140 440 c 0,118,119
 91 440 91 440 50.5 478.5 c 128,-1,120
 10 517 10 517 10 571 c 256,121,122
 10 625 10 625 50.5 662.5 c 128,-1,123
 91 700 91 700 140 700 c 0,112,113
140 621 m 0,124,125
 121 621 121 621 105.5 606 c 128,-1,126
 90 591 90 591 90 570 c 256,127,128
 90 549 90 549 105.5 535 c 128,-1,129
 121 521 121 521 140 521 c 0,130,131
 158 521 158 521 173.5 535 c 128,-1,132
 189 549 189 549 189 570 c 256,133,134
 189 591 189 591 173.5 606 c 128,-1,135
 158 621 158 621 140 621 c 0,124,125
140 700 m 0,136,137
 188 700 188 700 229 662.5 c 128,-1,138
 270 625 270 625 270 571 c 256,139,140
 270 517 270 517 229 478.5 c 128,-1,141
 188 440 188 440 140 440 c 0,142,143
 91 440 91 440 50.5 478.5 c 128,-1,144
 10 517 10 517 10 571 c 256,145,146
 10 625 10 625 50.5 662.5 c 128,-1,147
 91 700 91 700 140 700 c 0,136,137
140 621 m 0,148,149
 121 621 121 621 105.5 606 c 128,-1,150
 90 591 90 591 90 570 c 256,151,152
 90 549 90 549 105.5 535 c 128,-1,153
 121 521 121 521 140 521 c 0,154,155
 158 521 158 521 173.5 535 c 128,-1,156
 189 549 189 549 189 570 c 256,157,158
 189 591 189 591 173.5 606 c 128,-1,159
 158 621 158 621 140 621 c 0,148,149
140 700 m 0,160,161
 188 700 188 700 229 662.5 c 128,-1,162
 270 625 270 625 270 571 c 256,163,164
 270 517 270 517 229 478.5 c 128,-1,165
 188 440 188 440 140 440 c 0,166,167
 91 440 91 440 50.5 478.5 c 128,-1,168
 10 517 10 517 10 571 c 256,169,170
 10 625 10 625 50.5 662.5 c 128,-1,171
 91 700 91 700 140 700 c 0,160,161
140 621 m 0,172,173
 121 621 121 621 105.5 606 c 128,-1,174
 90 591 90 591 90 570 c 256,175,176
 90 549 90 549 105.5 535 c 128,-1,177
 121 521 121 521 140 521 c 0,178,179
 158 521 158 521 173.5 535 c 128,-1,180
 189 549 189 549 189 570 c 256,181,182
 189 591 189 591 173.5 606 c 128,-1,183
 158 621 158 621 140 621 c 0,172,173
140 700 m 0,184,185
 188 700 188 700 229 662.5 c 128,-1,186
 270 625 270 625 270 571 c 256,187,188
 270 517 270 517 229 478.5 c 128,-1,189
 188 440 188 440 140 440 c 0,190,191
 91 440 91 440 50.5 478.5 c 128,-1,192
 10 517 10 517 10 571 c 256,193,194
 10 625 10 625 50.5 662.5 c 128,-1,195
 91 700 91 700 140 700 c 0,184,185
EndSplineSet
EndChar

StartChar: ampersand
Encoding: 38 38 9
Width: 600
Flags: W
LayerCount: 2
Fore
SplineSet
522 253 m 1,0,-1
 420 150 l 1,1,-1
 516 53 l 1,2,-1
 447 -15 l 1,3,-1
 350 81 l 1,4,-1
 292 22 l 1,5,6
 250 0 250 0 200 0 c 0,7,8
 118 0 118 0 59 58.5 c 128,-1,9
 0 117 0 117 0 200 c 0,10,11
 0 250 0 250 22 292 c 1,12,-1
 80 349 l 1,13,-1
 22 408 l 1,14,15
 0 450 0 450 0 500 c 0,16,17
 0 583 0 583 58.5 641.5 c 128,-1,18
 117 700 117 700 200 700 c 2,19,-1
 262 700 l 2,20,21
 319 700 319 700 359.5 659.5 c 128,-1,22
 400 619 400 619 400 563 c 0,23,24
 400 534 400 534 392 523 c 2,25,-1
 220 350 l 1,26,-1
 350 219 l 1,27,-1
 453 322 l 1,28,-1
 522 253 l 1,0,-1
299 567 m 2,29,30
 300 571 300 571 300 575 c 0,31,32
 300 600 300 600 275 600 c 2,33,-1
 200 600 l 2,34,35
 159 600 159 600 129.5 570.5 c 128,-1,36
 100 541 100 541 100 500 c 0,37,38
 100 478 100 478 107 463 c 1,39,-1
 151 419 l 1,40,-1
 299 567 l 2,29,30
281 150 m 1,41,-1
 150 280 l 1,42,-1
 107 237 l 1,43,44
 100 222 100 222 100 200 c 0,45,46
 100 159 100 159 129.5 129.5 c 128,-1,47
 159 100 159 100 200 100 c 0,48,49
 222 100 222 100 237 107 c 1,50,-1
 281 150 l 1,41,-1
EndSplineSet
EndChar

StartChar: quotesingle
Encoding: 39 39 10
Width: 600
Flags: W
LayerCount: 2
Fore
SplineSet
300 400 m 1,0,-1
 200 400 l 1,1,-1
 200 700 l 1,2,-1
 300 700 l 1,3,-1
 300 400 l 1,0,-1
EndSplineSet
EndChar

StartChar: parenleft
Encoding: 40 40 11
Width: 600
Flags: W
LayerCount: 2
Fore
SplineSet
400 0 m 1,0,-1
 400 -100 l 1,1,2
 318 -100 318 -100 259 -41 c 128,-1,3
 200 18 200 18 200 100 c 2,4,-1
 200 600 l 2,5,6
 200 682 200 682 259 741 c 128,-1,7
 318 800 318 800 400 800 c 1,8,-1
 400 700 l 1,9,10
 359 700 359 700 329.5 670.5 c 128,-1,11
 300 641 300 641 300 600 c 2,12,-1
 300 100 l 2,13,14
 300 59 300 59 329.5 29.5 c 128,-1,15
 359 0 359 0 400 0 c 1,0,-1
EndSplineSet
EndChar

StartChar: parenright
Encoding: 41 41 12
Width: 600
Flags: W
LayerCount: 2
Fore
SplineSet
100 0 m 1,0,-1
 100 -100 l 1,1,2
 182 -100 182 -100 241 -41 c 128,-1,3
 300 18 300 18 300 100 c 2,4,-1
 300 600 l 2,5,6
 300 682 300 682 241 741 c 128,-1,7
 182 800 182 800 100 800 c 1,8,-1
 100 700 l 1,9,10
 141 700 141 700 170.5 670.5 c 128,-1,11
 200 641 200 641 200 600 c 2,12,-1
 200 100 l 2,13,14
 200 59 200 59 170.5 29.5 c 128,-1,15
 141 0 141 0 100 0 c 1,0,-1
EndSplineSet
EndChar

StartChar: asterisk
Encoding: 42 42 13
Width: 600
Flags: W
LayerCount: 2
Fore
SplineSet
493 373 m 1,0,-1
 444 285 l 1,1,-1
 300 364 l 1,2,-1
 300 200 l 1,3,-1
 200 200 l 1,4,-1
 200 364 l 1,5,-1
 58 282 l 1,6,-1
 8 368 l 1,7,-1
 150 450 l 1,8,-1
 7 527 l 1,9,-1
 56 615 l 1,10,-1
 200 535 l 1,11,-1
 200 700 l 1,12,-1
 300 700 l 1,13,-1
 300 537 l 1,14,-1
 441 618 l 1,15,-1
 491 532 l 1,16,-1
 350 450 l 1,17,-1
 493 373 l 1,0,-1
EndSplineSet
EndChar

StartChar: plus
Encoding: 43 43 14
Width: 600
Flags: W
LayerCount: 2
Fore
SplineSet
500 300 m 1,0,-1
 300 300 l 1,1,-1
 300 100 l 1,2,-1
 200 100 l 1,3,-1
 200 300 l 1,4,-1
 0 300 l 1,5,-1
 0 400 l 1,6,-1
 200 400 l 1,7,-1
 200 600 l 1,8,-1
 300 600 l 1,9,-1
 300 400 l 1,10,-1
 500 400 l 1,11,-1
 500 300 l 1,0,-1
EndSplineSet
EndChar

StartChar: comma
Encoding: 44 44 15
Width: 600
Flags: W
LayerCount: 2
Fore
SplineSet
325 -50 m 1,0,-1
 184 -189 l 1,1,-1
 135 -140 l 1,2,-1
 250 -25 l 1,3,-1
 250 50 l 1,4,5
 317 56 317 56 325 125 c 1,6,-1
 325 -50 l 1,0,-1
251 200 m 0,7,8
 279 200 279 200 302 177.5 c 128,-1,9
 325 155 325 155 325 125 c 0,10,11
 325 94 325 94 302 72 c 128,-1,12
 279 50 279 50 251 50 c 0,13,14
 222 50 222 50 198.5 72 c 128,-1,15
 175 94 175 94 175 125 c 0,16,17
 175 155 175 155 198.5 177.5 c 128,-1,18
 222 200 222 200 251 200 c 0,7,8
251 200 m 0,19,20
 279 200 279 200 302 177.5 c 128,-1,21
 325 155 325 155 325 125 c 0,22,23
 325 94 325 94 302 72 c 128,-1,24
 279 50 279 50 251 50 c 0,25,26
 222 50 222 50 198.5 72 c 128,-1,27
 175 94 175 94 175 125 c 0,28,29
 175 155 175 155 198.5 177.5 c 128,-1,30
 222 200 222 200 251 200 c 0,19,20
251 200 m 0,31,32
 279 200 279 200 302 177.5 c 128,-1,33
 325 155 325 155 325 125 c 0,34,35
 325 94 325 94 302 72 c 128,-1,36
 279 50 279 50 251 50 c 0,37,38
 222 50 222 50 198.5 72 c 128,-1,39
 175 94 175 94 175 125 c 0,40,41
 175 155 175 155 198.5 177.5 c 128,-1,42
 222 200 222 200 251 200 c 0,31,32
EndSplineSet
EndChar

StartChar: hyphen
Encoding: 45 45 16
AltUni2: 002010.ffffffff.0
Width: 600
Flags: W
LayerCount: 2
Fore
SplineSet
400 300 m 1,0,-1
 100 300 l 1,1,-1
 100 400 l 1,2,-1
 400 400 l 1,3,-1
 400 300 l 1,0,-1
EndSplineSet
EndChar

StartChar: period
Encoding: 46 46 17
Width: 600
Flags: W
LayerCount: 2
Fore
SplineSet
250 150 m 0,0,1
 278 150 278 150 301 127.5 c 128,-1,2
 324 105 324 105 324 75 c 0,3,4
 324 44 324 44 301 22 c 128,-1,5
 278 0 278 0 250 0 c 0,6,7
 221 0 221 0 197.5 22 c 128,-1,8
 174 44 174 44 174 75 c 0,9,10
 174 105 174 105 197.5 127.5 c 128,-1,11
 221 150 221 150 250 150 c 0,0,1
250 150 m 0,12,13
 278 150 278 150 301 127.5 c 128,-1,14
 324 105 324 105 324 75 c 0,15,16
 324 44 324 44 301 22 c 128,-1,17
 278 0 278 0 250 0 c 0,18,19
 221 0 221 0 197.5 22 c 128,-1,20
 174 44 174 44 174 75 c 0,21,22
 174 105 174 105 197.5 127.5 c 128,-1,23
 221 150 221 150 250 150 c 0,12,13
EndSplineSet
EndChar

StartChar: slash
Encoding: 47 47 18
Width: 600
Flags: W
LayerCount: 2
Fore
SplineSet
571 754 m 1,0,-1
 135 -100 l 1,1,-1
 46 -55 l 1,2,-1
 482 800 l 1,3,-1
 571 754 l 1,0,-1
EndSplineSet
EndChar

StartChar: zero
Encoding: 48 48 19
Width: 600
Flags: W
LayerCount: 2
Fore
SplineSet
500 200 m 2,0,1
 500 118 500 118 441 59 c 128,-1,2
 382 0 382 0 300 0 c 2,3,-1
 200 0 l 2,4,5
 118 0 118 0 59 59 c 128,-1,6
 0 118 0 118 0 200 c 2,7,-1
 0 500 l 2,8,9
 0 582 0 582 59 641 c 128,-1,10
 118 700 118 700 200 700 c 2,11,-1
 300 700 l 2,12,13
 382 700 382 700 441 641 c 128,-1,14
 500 582 500 582 500 500 c 2,15,-1
 500 200 l 2,0,1
400 200 m 2,16,-1
 400 500 l 2,17,18
 400 541 400 541 370.5 570.5 c 128,-1,19
 341 600 341 600 300 600 c 2,20,-1
 200 600 l 2,21,22
 159 600 159 600 129.5 570.5 c 128,-1,23
 100 541 100 541 100 500 c 2,24,-1
 100 200 l 2,25,26
 100 159 100 159 129.5 129.5 c 128,-1,27
 159 100 159 100 200 100 c 2,28,-1
 300 100 l 2,29,30
 341 100 341 100 370.5 129.5 c 128,-1,31
 400 159 400 159 400 200 c 2,16,-1
EndSplineSet
EndChar

StartChar: one
Encoding: 49 49 20
Width: 600
Flags: W
LayerCount: 2
Fore
SplineSet
400 0 m 1,0,-1
 100 0 l 1,1,-1
 100 100 l 1,2,-1
 200 100 l 1,3,-1
 200 500 l 1,4,-1
 50 500 l 1,5,-1
 50 600 l 1,6,-1
 100 600 l 2,7,8
 141 600 141 600 170.5 629.5 c 128,-1,9
 200 659 200 659 200 700 c 1,10,-1
 300 700 l 1,11,-1
 300 100 l 1,12,-1
 400 100 l 1,13,-1
 400 0 l 1,0,-1
EndSplineSet
EndChar

StartChar: two
Encoding: 50 50 21
Width: 600
Flags: W
LayerCount: 2
Fore
SplineSet
500 0 m 1,0,-1
 0 0 l 1,1,-1
 0 69 l 1,2,-1
 393 463 l 1,3,4
 400 478 400 478 400 500 c 0,5,6
 400 541 400 541 370.5 570.5 c 128,-1,7
 341 600 341 600 300 600 c 2,8,-1
 200 600 l 2,9,10
 159 600 159 600 129.5 570.5 c 128,-1,11
 100 541 100 541 100 500 c 1,12,-1
 0 500 l 1,13,14
 0 582 0 582 59 641 c 128,-1,15
 118 700 118 700 200 700 c 2,16,-1
 300 700 l 2,17,18
 382 700 382 700 441 641.5 c 128,-1,19
 500 583 500 583 500 500 c 0,20,21
 500 450 500 450 478 408 c 1,22,-1
 169 100 l 1,23,-1
 500 100 l 1,24,-1
 500 0 l 1,0,-1
EndSplineSet
EndChar

StartChar: three
Encoding: 51 51 22
Width: 600
Flags: W
LayerCount: 2
Fore
SplineSet
100 200 m 1,0,1
 100 159 100 159 129.5 129.5 c 128,-1,2
 159 100 159 100 200 100 c 2,3,-1
 300 100 l 2,4,5
 341 100 341 100 370.5 129.5 c 128,-1,6
 400 159 400 159 400 200 c 256,7,8
 400 241 400 241 370.5 270.5 c 128,-1,9
 341 300 341 300 300 300 c 2,10,-1
 200 300 l 1,11,-1
 200 400 l 1,12,-1
 300 400 l 2,13,14
 341 400 341 400 370.5 429.5 c 128,-1,15
 400 459 400 459 400 500 c 256,16,17
 400 541 400 541 370.5 570.5 c 128,-1,18
 341 600 341 600 300 600 c 2,19,-1
 200 600 l 2,20,21
 159 600 159 600 129.5 570.5 c 128,-1,22
 100 541 100 541 100 500 c 1,23,-1
 0 500 l 1,24,25
 0 583 0 583 58.5 641.5 c 128,-1,26
 117 700 117 700 200 700 c 2,27,-1
 300 700 l 2,28,29
 383 700 383 700 441.5 641.5 c 128,-1,30
 500 583 500 583 500 500 c 0,31,32
 500 410 500 410 415 350 c 1,33,34
 500 290 500 290 500 200 c 0,35,36
 500 117 500 117 441.5 58.5 c 128,-1,37
 383 0 383 0 300 0 c 2,38,-1
 200 0 l 2,39,40
 117 0 117 0 58.5 58.5 c 128,-1,41
 0 117 0 117 0 200 c 1,42,-1
 100 200 l 1,0,1
EndSplineSet
EndChar

StartChar: four
Encoding: 52 52 23
Width: 600
Flags: W
LayerCount: 2
Fore
SplineSet
400 0 m 1,0,-1
 300 0 l 1,1,-1
 300 100 l 1,2,-1
 300 200 l 1,3,-1
 0 200 l 1,4,-1
 0 369 l 1,5,-1
 331 700 l 1,6,-1
 400 700 l 1,7,-1
 400 300 l 1,8,-1
 500 300 l 1,9,-1
 500 200 l 1,10,-1
 400 200 l 1,11,-1
 400 100 l 1,12,-1
 400 0 l 1,0,-1
300 300 m 1,13,-1
 300 531 l 1,14,-1
 100 331 l 1,15,-1
 100 300 l 1,16,-1
 300 300 l 1,13,-1
EndSplineSet
EndChar

StartChar: five
Encoding: 53 53 24
Width: 600
Flags: W
LayerCount: 2
Fore
SplineSet
500 200 m 2,0,1
 500 118 500 118 441 59 c 128,-1,2
 382 0 382 0 300 0 c 2,3,-1
 200 0 l 2,4,5
 118 0 118 0 59 58.5 c 128,-1,6
 0 117 0 117 0 200 c 1,7,-1
 100 200 l 1,8,9
 100 159 100 159 129.5 129.5 c 128,-1,10
 159 100 159 100 200 100 c 2,11,-1
 300 100 l 2,12,13
 341 100 341 100 370.5 129.5 c 128,-1,14
 400 159 400 159 400 200 c 2,15,-1
 400 300 l 2,16,17
 400 341 400 341 370.5 370.5 c 128,-1,18
 341 400 341 400 300 400 c 2,19,-1
 0 400 l 1,20,-1
 0 700 l 1,21,-1
 450 700 l 1,22,-1
 450 600 l 1,23,-1
 100 600 l 1,24,-1
 100 500 l 1,25,-1
 300 500 l 2,26,27
 382 500 382 500 441 441 c 128,-1,28
 500 382 500 382 500 300 c 2,29,-1
 500 200 l 2,0,1
EndSplineSet
EndChar

StartChar: six
Encoding: 54 54 25
Width: 600
Flags: W
LayerCount: 2
Fore
SplineSet
500 200 m 1,0,1
 500 118 500 118 441 59 c 128,-1,2
 382 0 382 0 300 0 c 2,3,-1
 200 0 l 2,4,5
 118 0 118 0 59 59 c 128,-1,6
 0 118 0 118 0 200 c 2,7,-1
 0 500 l 2,8,9
 0 582 0 582 59 641 c 128,-1,10
 118 700 118 700 200 700 c 2,11,-1
 400 700 l 1,12,-1
 400 600 l 1,13,-1
 200 600 l 2,14,15
 159 600 159 600 129.5 570.5 c 128,-1,16
 100 541 100 541 100 500 c 2,17,-1
 100 400 l 1,18,-1
 300 400 l 2,19,20
 382 400 382 400 441 341 c 128,-1,21
 500 282 500 282 500 200 c 1,22,-1
 500 200 l 1,0,1
400 200 m 1,23,-1
 400 200 l 1,24,25
 400 241 400 241 370.5 270.5 c 128,-1,26
 341 300 341 300 300 300 c 2,27,-1
 100 300 l 1,28,-1
 100 200 l 2,29,30
 100 159 100 159 129.5 129.5 c 128,-1,31
 159 100 159 100 200 100 c 2,32,-1
 300 100 l 2,33,34
 341 100 341 100 370.5 129.5 c 128,-1,35
 400 159 400 159 400 200 c 1,23,-1
EndSplineSet
EndChar

StartChar: seven
Encoding: 55 55 26
Width: 600
Flags: W
LayerCount: 2
Fore
SplineSet
500 550 m 2,0,1
 498 480 498 480 474 428 c 128,-1,2
 450 376 450 376 400 326 c 0,3,4
 350 281 350 281 326 225 c 128,-1,5
 302 169 302 169 300 103 c 2,6,-1
 300 0 l 1,7,-1
 200 0 l 1,8,-1
 200 103 l 2,9,10
 203 194 203 194 235 266 c 256,11,12
 267 338 267 338 333 401 c 0,13,14
 365 432 365 432 383 468 c 128,-1,15
 401 504 401 504 400 550 c 2,16,-1
 400 600 l 1,17,-1
 0 600 l 1,18,-1
 0 700 l 1,19,-1
 500 700 l 1,20,-1
 500 550 l 2,0,1
EndSplineSet
EndChar

StartChar: eight
Encoding: 56 56 27
Width: 600
Flags: W
LayerCount: 2
Fore
SplineSet
300 700 m 2,0,1
 383 700 383 700 441.5 641.5 c 128,-1,2
 500 583 500 583 500 500 c 0,3,4
 500 410 500 410 415 350 c 1,5,6
 500 290 500 290 500 200 c 0,7,8
 500 117 500 117 441.5 58.5 c 128,-1,9
 383 0 383 0 300 0 c 2,10,-1
 200 0 l 2,11,12
 117 0 117 0 58.5 58.5 c 128,-1,13
 0 117 0 117 0 200 c 0,14,15
 0 290 0 290 85 350 c 1,16,17
 0 410 0 410 0 500 c 0,18,19
 0 583 0 583 58.5 641.5 c 128,-1,20
 117 700 117 700 200 700 c 2,21,-1
 300 700 l 2,0,1
200 600 m 2,22,23
 158 600 158 600 129 570.5 c 128,-1,24
 100 541 100 541 100 500 c 256,25,26
 100 459 100 459 129.5 429.5 c 128,-1,27
 159 400 159 400 200 400 c 2,28,-1
 300 400 l 2,29,30
 341 400 341 400 370.5 429.5 c 128,-1,31
 400 459 400 459 400 500 c 256,32,33
 400 541 400 541 370.5 570.5 c 128,-1,34
 341 600 341 600 300 600 c 2,35,-1
 200 600 l 2,22,23
300 100 m 2,36,37
 342 100 342 100 371 129.5 c 128,-1,38
 400 159 400 159 400 200 c 256,39,40
 400 241 400 241 370.5 270.5 c 128,-1,41
 341 300 341 300 300 300 c 2,42,-1
 200 300 l 2,43,44
 159 300 159 300 129.5 270.5 c 128,-1,45
 100 241 100 241 100 200 c 256,46,47
 100 159 100 159 129.5 129.5 c 128,-1,48
 159 100 159 100 200 100 c 2,49,-1
 300 100 l 2,36,37
EndSplineSet
EndChar

StartChar: nine
Encoding: 57 57 28
Width: 600
Flags: W
LayerCount: 2
Fore
SplineSet
0 500 m 1,0,1
 0 582 0 582 59 641 c 128,-1,2
 118 700 118 700 200 700 c 2,3,-1
 300 700 l 2,4,5
 382 700 382 700 441 641 c 128,-1,6
 500 582 500 582 500 500 c 2,7,-1
 500 200 l 2,8,9
 500 118 500 118 441 59 c 128,-1,10
 382 0 382 0 300 0 c 2,11,-1
 100 0 l 1,12,-1
 100 100 l 1,13,-1
 300 100 l 2,14,15
 341 100 341 100 370.5 129.5 c 128,-1,16
 400 159 400 159 400 200 c 2,17,-1
 400 300 l 1,18,-1
 200 300 l 2,19,20
 118 300 118 300 59 359 c 128,-1,21
 0 418 0 418 0 500 c 1,22,-1
 0 500 l 1,0,1
100 500 m 1,23,-1
 100 500 l 1,24,25
 100 459 100 459 129.5 429.5 c 128,-1,26
 159 400 159 400 200 400 c 2,27,-1
 400 400 l 1,28,-1
 400 500 l 2,29,30
 400 541 400 541 370.5 570.5 c 128,-1,31
 341 600 341 600 300 600 c 2,32,-1
 200 600 l 2,33,34
 159 600 159 600 129.5 570.5 c 128,-1,35
 100 541 100 541 100 500 c 1,23,-1
EndSplineSet
EndChar

StartChar: colon
Encoding: 58 58 29
Width: 600
Flags: W
LayerCount: 2
Fore
SplineSet
251 475 m 0,0,1
 279 475 279 475 302 452.5 c 128,-1,2
 325 430 325 430 325 400 c 0,3,4
 325 369 325 369 302 347 c 128,-1,5
 279 325 279 325 251 325 c 0,6,7
 222 325 222 325 198.5 347 c 128,-1,8
 175 369 175 369 175 400 c 0,9,10
 175 430 175 430 198.5 452.5 c 128,-1,11
 222 475 222 475 251 475 c 0,0,1
251 475 m 0,12,13
 279 475 279 475 302 452.5 c 128,-1,14
 325 430 325 430 325 400 c 0,15,16
 325 369 325 369 302 347 c 128,-1,17
 279 325 279 325 251 325 c 0,18,19
 222 325 222 325 198.5 347 c 128,-1,20
 175 369 175 369 175 400 c 0,21,22
 175 430 175 430 198.5 452.5 c 128,-1,23
 222 475 222 475 251 475 c 0,12,13
250 175 m 0,24,25
 278 175 278 175 301 152.5 c 128,-1,26
 324 130 324 130 324 100 c 0,27,28
 324 69 324 69 301 47 c 128,-1,29
 278 25 278 25 250 25 c 0,30,31
 221 25 221 25 197.5 47 c 128,-1,32
 174 69 174 69 174 100 c 0,33,34
 174 130 174 130 197.5 152.5 c 128,-1,35
 221 175 221 175 250 175 c 0,24,25
250 175 m 0,36,37
 278 175 278 175 301 152.5 c 128,-1,38
 324 130 324 130 324 100 c 0,39,40
 324 69 324 69 301 47 c 128,-1,41
 278 25 278 25 250 25 c 0,42,43
 221 25 221 25 197.5 47 c 128,-1,44
 174 69 174 69 174 100 c 0,45,46
 174 130 174 130 197.5 152.5 c 128,-1,47
 221 175 221 175 250 175 c 0,36,37
EndSplineSet
EndChar

StartChar: semicolon
Encoding: 59 59 30
Width: 600
Flags: W
LayerCount: 2
Fore
SplineSet
325 -50 m 1,0,-1
 184 -189 l 1,1,-1
 135 -140 l 1,2,-1
 250 -25 l 1,3,-1
 250 50 l 1,4,5
 317 56 317 56 325 125 c 1,6,-1
 325 -50 l 1,0,-1
250 425 m 0,7,8
 278 425 278 425 301 402.5 c 128,-1,9
 324 380 324 380 324 350 c 0,10,11
 324 319 324 319 301 297 c 128,-1,12
 278 275 278 275 250 275 c 0,13,14
 221 275 221 275 197.5 297 c 128,-1,15
 174 319 174 319 174 350 c 0,16,17
 174 380 174 380 197.5 402.5 c 128,-1,18
 221 425 221 425 250 425 c 0,7,8
250 425 m 0,19,20
 278 425 278 425 301 402.5 c 128,-1,21
 324 380 324 380 324 350 c 0,22,23
 324 319 324 319 301 297 c 128,-1,24
 278 275 278 275 250 275 c 0,25,26
 221 275 221 275 197.5 297 c 128,-1,27
 174 319 174 319 174 350 c 0,28,29
 174 380 174 380 197.5 402.5 c 128,-1,30
 221 425 221 425 250 425 c 0,19,20
251 200 m 0,31,32
 279 200 279 200 302 177.5 c 128,-1,33
 325 155 325 155 325 125 c 0,34,35
 325 94 325 94 302 72 c 128,-1,36
 279 50 279 50 251 50 c 0,37,38
 222 50 222 50 198.5 72 c 128,-1,39
 175 94 175 94 175 125 c 0,40,41
 175 155 175 155 198.5 177.5 c 128,-1,42
 222 200 222 200 251 200 c 0,31,32
251 200 m 0,43,44
 279 200 279 200 302 177.5 c 128,-1,45
 325 155 325 155 325 125 c 0,46,47
 325 94 325 94 302 72 c 128,-1,48
 279 50 279 50 251 50 c 0,49,50
 222 50 222 50 198.5 72 c 128,-1,51
 175 94 175 94 175 125 c 0,52,53
 175 155 175 155 198.5 177.5 c 128,-1,54
 222 200 222 200 251 200 c 0,43,44
251 200 m 0,55,56
 279 200 279 200 302 177.5 c 128,-1,57
 325 155 325 155 325 125 c 0,58,59
 325 94 325 94 302 72 c 128,-1,60
 279 50 279 50 251 50 c 0,61,62
 222 50 222 50 198.5 72 c 128,-1,63
 175 94 175 94 175 125 c 0,64,65
 175 155 175 155 198.5 177.5 c 128,-1,66
 222 200 222 200 251 200 c 0,55,56
EndSplineSet
EndChar

StartChar: less
Encoding: 60 60 31
Width: 600
Flags: W
LayerCount: 2
Fore
SplineSet
525 44 m 1,0,-1
 456 -24 l 1,1,-1
 79 350 l 1,2,-1
 450 719 l 1,3,-1
 519 650 l 1,4,-1
 221 350 l 1,5,-1
 525 44 l 1,0,-1
EndSplineSet
EndChar

StartChar: equal
Encoding: 61 61 32
Width: 600
Flags: W
LayerCount: 2
Fore
SplineSet
500 400 m 1,0,-1
 0 400 l 1,1,-1
 0 500 l 1,2,-1
 500 500 l 1,3,-1
 500 400 l 1,0,-1
500 200 m 1,4,-1
 0 200 l 1,5,-1
 0 300 l 1,6,-1
 500 300 l 1,7,-1
 500 200 l 1,4,-1
EndSplineSet
EndChar

StartChar: greater
Encoding: 62 62 33
Width: 600
Flags: W
LayerCount: 2
Fore
SplineSet
521 350 m 1,0,-1
 150 -18 l 1,1,-1
 81 50 l 1,2,-1
 379 350 l 1,3,-1
 75 656 l 1,4,-1
 144 725 l 1,5,-1
 521 350 l 1,0,-1
EndSplineSet
EndChar

StartChar: question
Encoding: 63 63 34
Width: 600
Flags: W
LayerCount: 2
Fore
SplineSet
500 500 m 0,0,1
 500 450 500 450 478 408 c 1,2,-1
 300 225 l 1,3,-1
 300 150 l 1,4,-1
 200 150 l 1,5,-1
 200 269 l 1,6,-1
 393 463 l 1,7,8
 400 478 400 478 400 500 c 0,9,10
 400 541 400 541 370.5 570.5 c 128,-1,11
 341 600 341 600 300 600 c 2,12,-1
 200 600 l 2,13,14
 159 600 159 600 129.5 570.5 c 128,-1,15
 100 541 100 541 100 500 c 1,16,-1
 0 500 l 1,17,18
 0 582 0 582 59 641 c 128,-1,19
 118 700 118 700 200 700 c 2,20,-1
 300 700 l 2,21,22
 382 700 382 700 441 641.5 c 128,-1,23
 500 583 500 583 500 500 c 0,0,1
300 50 m 256,24,25
 300 29 300 29 285.5 14.5 c 128,-1,26
 271 0 271 0 250 0 c 256,27,28
 229 0 229 0 214.5 14.5 c 128,-1,29
 200 29 200 29 200 50 c 256,30,31
 200 71 200 71 214.5 85.5 c 128,-1,32
 229 100 229 100 250 100 c 256,33,34
 271 100 271 100 285.5 85.5 c 128,-1,35
 300 71 300 71 300 50 c 256,24,25
EndSplineSet
EndChar

StartChar: at
Encoding: 64 64 35
Width: 600
Flags: W
LayerCount: 2
Fore
SplineSet
500 0 m 1,0,-1
 200 0 l 2,1,2
 118 0 118 0 59 59 c 128,-1,3
 0 118 0 118 0 200 c 2,4,-1
 0 500 l 2,5,6
 0 582 0 582 59 641 c 128,-1,7
 118 700 118 700 200 700 c 2,8,-1
 300 700 l 2,9,10
 382 700 382 700 441 641 c 128,-1,11
 500 582 500 582 500 500 c 2,12,-1
 500 300 l 2,13,14
 500 258 500 258 470.5 229 c 128,-1,15
 441 200 441 200 400 200 c 2,16,-1
 300 200 l 2,17,18
 259 200 259 200 229.5 230.5 c 128,-1,19
 200 261 200 261 200 300 c 2,20,-1
 200 400 l 2,21,22
 200 441 200 441 229.5 470.5 c 128,-1,23
 259 500 259 500 300 500 c 2,24,-1
 400 500 l 1,25,26
 400 541 400 541 370.5 570.5 c 128,-1,27
 341 600 341 600 300 600 c 2,28,-1
 200 600 l 2,29,30
 159 600 159 600 129.5 570.5 c 128,-1,31
 100 541 100 541 100 500 c 2,32,-1
 100 200 l 2,33,34
 100 159 100 159 129.5 129.5 c 128,-1,35
 159 100 159 100 200 100 c 2,36,-1
 500 100 l 1,37,-1
 500 0 l 1,0,-1
400 325 m 2,38,-1
 400 375 l 2,39,40
 400 400 400 400 375 400 c 2,41,-1
 325 400 l 2,42,43
 300 400 300 400 300 375 c 2,44,-1
 300 325 l 2,45,46
 300 300 300 300 325 300 c 2,47,-1
 375 300 l 2,48,49
 400 300 400 300 400 325 c 2,38,-1
EndSplineSet
EndChar

StartChar: A
Encoding: 65 65 36
Width: 600
Flags: W
LayerCount: 2
Fore
SplineSet
500 0 m 1,0,-1
 400 0 l 1,1,-1
 400 200 l 1,2,-1
 100 200 l 1,3,-1
 100 0 l 1,4,-1
 0 0 l 1,5,-1
 0 500 l 2,6,7
 0 582 0 582 59 641 c 128,-1,8
 118 700 118 700 200 700 c 2,9,-1
 300 700 l 2,10,11
 382 700 382 700 441 641 c 128,-1,12
 500 582 500 582 500 500 c 2,13,-1
 500 0 l 1,0,-1
400 300 m 1,14,-1
 400 500 l 2,15,16
 400 541 400 541 370.5 570.5 c 128,-1,17
 341 600 341 600 300 600 c 2,18,-1
 200 600 l 2,19,20
 159 600 159 600 129.5 570.5 c 128,-1,21
 100 541 100 541 100 500 c 2,22,-1
 100 300 l 1,23,-1
 400 300 l 1,14,-1
EndSplineSet
EndChar

StartChar: B
Encoding: 66 66 37
Width: 600
Flags: W
LayerCount: 2
Fore
SplineSet
500 500 m 0,0,1
 500 410 500 410 415 350 c 1,2,3
 500 290 500 290 500 200 c 0,4,5
 500 117 500 117 441.5 58.5 c 128,-1,6
 383 0 383 0 300 0 c 2,7,-1
 0 0 l 1,8,-1
 0 700 l 1,9,-1
 300 700 l 2,10,11
 383 700 383 700 441.5 641.5 c 128,-1,12
 500 583 500 583 500 500 c 0,0,1
100 600 m 1,13,-1
 100 400 l 1,14,-1
 300 400 l 2,15,16
 341 400 341 400 370.5 429.5 c 128,-1,17
 400 459 400 459 400 500 c 256,18,19
 400 541 400 541 370.5 570.5 c 128,-1,20
 341 600 341 600 300 600 c 2,21,-1
 100 600 l 1,13,-1
100 300 m 1,22,-1
 100 100 l 1,23,-1
 300 100 l 2,24,25
 341 100 341 100 370.5 129.5 c 128,-1,26
 400 159 400 159 400 200 c 256,27,28
 400 241 400 241 370.5 270.5 c 128,-1,29
 341 300 341 300 300 300 c 2,30,-1
 100 300 l 1,22,-1
EndSplineSet
EndChar

StartChar: C
Encoding: 67 67 38
Width: 600
Flags: W
LayerCount: 2
Fore
SplineSet
500 200 m 1,0,1
 500 118 500 118 441 59 c 128,-1,2
 382 0 382 0 300 0 c 2,3,-1
 200 0 l 2,4,5
 118 0 118 0 59 59 c 128,-1,6
 0 118 0 118 0 200 c 2,7,-1
 0 500 l 2,8,9
 0 582 0 582 59 641 c 128,-1,10
 118 700 118 700 200 700 c 2,11,-1
 300 700 l 2,12,13
 382 700 382 700 441 641 c 128,-1,14
 500 582 500 582 500 500 c 1,15,-1
 400 500 l 1,16,17
 400 541 400 541 370.5 570.5 c 128,-1,18
 341 600 341 600 300 600 c 2,19,-1
 200 600 l 2,20,21
 159 600 159 600 129.5 570.5 c 128,-1,22
 100 541 100 541 100 500 c 2,23,-1
 100 200 l 2,24,25
 100 159 100 159 129.5 129.5 c 128,-1,26
 159 100 159 100 200 100 c 2,27,-1
 300 100 l 2,28,29
 341 100 341 100 370.5 129.5 c 128,-1,30
 400 159 400 159 400 200 c 1,31,-1
 500 200 l 1,0,1
EndSplineSet
EndChar

StartChar: D
Encoding: 68 68 39
Width: 600
Flags: W
LayerCount: 2
Fore
SplineSet
500 200 m 2,0,1
 500 118 500 118 441 59 c 128,-1,2
 382 0 382 0 300 0 c 2,3,-1
 0 0 l 1,4,-1
 0 700 l 1,5,-1
 300 700 l 2,6,7
 382 700 382 700 441 641 c 128,-1,8
 500 582 500 582 500 500 c 2,9,-1
 500 200 l 2,0,1
400 200 m 2,10,-1
 400 500 l 2,11,12
 400 541 400 541 370.5 570.5 c 128,-1,13
 341 600 341 600 300 600 c 2,14,-1
 100 600 l 1,15,-1
 100 100 l 1,16,-1
 300 100 l 2,17,18
 341 100 341 100 370.5 129.5 c 128,-1,19
 400 159 400 159 400 200 c 2,10,-1
EndSplineSet
EndChar

StartChar: E
Encoding: 69 69 40
Width: 600
Flags: W
LayerCount: 2
Fore
SplineSet
500 0 m 1,0,-1
 0 0 l 1,1,-1
 0 700 l 1,2,-1
 500 700 l 1,3,-1
 500 600 l 1,4,-1
 100 600 l 1,5,-1
 100 400 l 1,6,-1
 400 400 l 1,7,-1
 400 300 l 1,8,-1
 100 300 l 1,9,-1
 100 100 l 1,10,-1
 500 100 l 1,11,-1
 500 0 l 1,0,-1
EndSplineSet
EndChar

StartChar: F
Encoding: 70 70 41
Width: 600
Flags: W
LayerCount: 2
Fore
SplineSet
500 600 m 1,0,-1
 100 600 l 1,1,-1
 100 400 l 1,2,-1
 400 400 l 1,3,-1
 400 300 l 1,4,-1
 100 300 l 1,5,-1
 100 0 l 1,6,-1
 0 0 l 1,7,-1
 0 700 l 1,8,-1
 500 700 l 1,9,-1
 500 600 l 1,0,-1
EndSplineSet
EndChar

StartChar: G
Encoding: 71 71 42
Width: 600
Flags: W
LayerCount: 2
Fore
SplineSet
500 200 m 2,0,1
 500 118 500 118 441 59 c 128,-1,2
 382 0 382 0 300 0 c 2,3,-1
 200 0 l 2,4,5
 118 0 118 0 59 59 c 128,-1,6
 0 118 0 118 0 200 c 2,7,-1
 0 500 l 2,8,9
 0 582 0 582 59 641 c 128,-1,10
 118 700 118 700 200 700 c 2,11,-1
 300 700 l 2,12,13
 382 700 382 700 441 641 c 128,-1,14
 500 582 500 582 500 500 c 1,15,-1
 400 500 l 1,16,17
 400 541 400 541 370.5 570.5 c 128,-1,18
 341 600 341 600 300 600 c 2,19,-1
 200 600 l 2,20,21
 159 600 159 600 129.5 570.5 c 128,-1,22
 100 541 100 541 100 500 c 2,23,-1
 100 200 l 2,24,25
 100 159 100 159 129.5 129.5 c 128,-1,26
 159 100 159 100 200 100 c 2,27,-1
 300 100 l 2,28,29
 341 100 341 100 370.5 129.5 c 128,-1,30
 400 159 400 159 400 200 c 2,31,-1
 400 300 l 1,32,-1
 300 300 l 1,33,-1
 300 400 l 1,34,-1
 500 400 l 1,35,-1
 500 200 l 2,0,1
EndSplineSet
EndChar

StartChar: H
Encoding: 72 72 43
Width: 600
Flags: W
LayerCount: 2
Fore
SplineSet
500 0 m 1,0,-1
 400 0 l 1,1,-1
 400 300 l 1,2,-1
 100 300 l 1,3,-1
 100 0 l 1,4,-1
 0 0 l 1,5,-1
 0 700 l 1,6,-1
 100 700 l 1,7,-1
 100 400 l 1,8,-1
 400 400 l 1,9,-1
 400 700 l 1,10,-1
 500 700 l 1,11,-1
 500 0 l 1,0,-1
EndSplineSet
EndChar

StartChar: I
Encoding: 73 73 44
Width: 600
Flags: W
LayerCount: 2
Fore
SplineSet
500 0 m 1,0,-1
 0 0 l 1,1,-1
 0 100 l 1,2,-1
 200 100 l 1,3,-1
 200 600 l 1,4,-1
 0 600 l 1,5,-1
 0 700 l 1,6,-1
 500 700 l 1,7,-1
 500 600 l 1,8,-1
 300 600 l 1,9,-1
 300 100 l 1,10,-1
 500 100 l 1,11,-1
 500 0 l 1,0,-1
EndSplineSet
EndChar

StartChar: J
Encoding: 74 74 45
Width: 600
Flags: W
LayerCount: 2
Fore
SplineSet
500 200 m 2,0,1
 500 117 500 117 441 58.5 c 128,-1,2
 382 0 382 0 300 0 c 2,3,-1
 200 0 l 2,4,5
 118 0 118 0 59 59 c 128,-1,6
 0 118 0 118 0 200 c 2,7,-1
 0 300 l 1,8,-1
 100 300 l 1,9,-1
 100 200 l 2,10,11
 100 159 100 159 129.5 129.5 c 128,-1,12
 159 100 159 100 200 100 c 2,13,-1
 300 100 l 2,14,15
 341 100 341 100 370.5 129.5 c 128,-1,16
 400 159 400 159 400 200 c 2,17,-1
 400 700 l 1,18,-1
 500 700 l 1,19,-1
 500 200 l 2,0,1
EndSplineSet
EndChar

StartChar: K
Encoding: 75 75 46
Width: 600
Flags: W
LayerCount: 2
Fore
SplineSet
500 0 m 1,0,-1
 400 0 l 1,1,-1
 100 300 l 1,2,-1
 100 0 l 1,3,-1
 0 0 l 1,4,-1
 0 700 l 1,5,-1
 100 700 l 1,6,-1
 100 400 l 1,7,-1
 400 700 l 1,8,-1
 500 700 l 1,9,-1
 500 663 l 1,10,-1
 187 350 l 1,11,-1
 500 38 l 1,12,-1
 500 0 l 1,0,-1
EndSplineSet
EndChar

StartChar: L
Encoding: 76 76 47
Width: 600
Flags: W
LayerCount: 2
Fore
SplineSet
500 0 m 1,0,-1
 0 0 l 1,1,-1
 0 700 l 1,2,-1
 100 700 l 1,3,-1
 100 100 l 1,4,-1
 500 100 l 1,5,-1
 500 0 l 1,0,-1
EndSplineSet
EndChar

StartChar: M
Encoding: 77 77 48
Width: 600
Flags: W
LayerCount: 2
Fore
SplineSet
500 0 m 1,0,-1
 400 0 l 1,1,-1
 400 506 l 1,2,-1
 250 256 l 1,3,-1
 100 506 l 1,4,-1
 100 0 l 1,5,-1
 0 0 l 1,6,-1
 0 700 l 1,7,-1
 100 700 l 1,8,-1
 250 450 l 1,9,-1
 400 700 l 1,10,-1
 500 700 l 1,11,-1
 500 0 l 1,0,-1
EndSplineSet
EndChar

StartChar: N
Encoding: 78 78 49
Width: 600
Flags: W
LayerCount: 2
Fore
SplineSet
500 0 m 1,0,-1
 400 0 l 1,1,-1
 400 0 l 1,2,-1
 100 504 l 1,3,-1
 100 0 l 1,4,-1
 0 0 l 1,5,-1
 0 700 l 1,6,-1
 100 700 l 1,7,-1
 400 196 l 1,8,-1
 400 700 l 1,9,-1
 500 700 l 1,10,-1
 500 0 l 1,0,-1
EndSplineSet
EndChar

StartChar: O
Encoding: 79 79 50
Width: 600
Flags: W
LayerCount: 2
Fore
SplineSet
500 200 m 2,0,1
 500 118 500 118 441 59 c 128,-1,2
 382 0 382 0 300 0 c 2,3,-1
 200 0 l 2,4,5
 118 0 118 0 59 59 c 128,-1,6
 0 118 0 118 0 200 c 2,7,-1
 0 500 l 2,8,9
 0 582 0 582 59 641 c 128,-1,10
 118 700 118 700 200 700 c 2,11,-1
 300 700 l 2,12,13
 382 700 382 700 441 641 c 128,-1,14
 500 582 500 582 500 500 c 2,15,-1
 500 200 l 2,0,1
400 200 m 2,16,-1
 400 500 l 2,17,18
 400 541 400 541 370.5 570.5 c 128,-1,19
 341 600 341 600 300 600 c 2,20,-1
 200 600 l 2,21,22
 159 600 159 600 129.5 570.5 c 128,-1,23
 100 541 100 541 100 500 c 2,24,-1
 100 200 l 2,25,26
 100 159 100 159 129.5 129.5 c 128,-1,27
 159 100 159 100 200 100 c 2,28,-1
 300 100 l 2,29,30
 341 100 341 100 370.5 129.5 c 128,-1,31
 400 159 400 159 400 200 c 2,16,-1
EndSplineSet
EndChar

StartChar: P
Encoding: 80 80 51
Width: 600
Flags: W
LayerCount: 2
Fore
SplineSet
500 500 m 0,0,1
 500 418 500 418 441 359 c 128,-1,2
 382 300 382 300 300 300 c 2,3,-1
 100 300 l 1,4,-1
 100 0 l 1,5,-1
 0 0 l 1,6,-1
 0 700 l 1,7,-1
 300 700 l 2,8,9
 383 700 383 700 441.5 641.5 c 128,-1,10
 500 583 500 583 500 500 c 0,0,1
400 500 m 256,11,12
 400 541 400 541 370.5 570.5 c 128,-1,13
 341 600 341 600 300 600 c 2,14,-1
 100 600 l 1,15,-1
 100 400 l 1,16,-1
 300 400 l 2,17,18
 341 400 341 400 370.5 429.5 c 128,-1,19
 400 459 400 459 400 500 c 256,11,12
EndSplineSet
EndChar

StartChar: Q
Encoding: 81 81 52
Width: 600
Flags: W
LayerCount: 2
Fore
SplineSet
511 -38 m 1,0,-1
 440 -110 l 1,1,-1
 328 2 l 1,2,3
 310 0 310 0 300 0 c 2,4,-1
 200 0 l 2,5,6
 118 0 118 0 59 59 c 128,-1,7
 0 118 0 118 0 200 c 2,8,-1
 0 500 l 2,9,10
 0 582 0 582 59 641 c 128,-1,11
 118 700 118 700 200 700 c 2,12,-1
 300 700 l 2,13,14
 382 700 382 700 441 641 c 128,-1,15
 500 582 500 582 500 500 c 2,16,-1
 500 200 l 2,17,18
 500 104 500 104 426 45 c 1,19,-1
 511 -38 l 1,0,-1
400 200 m 2,20,-1
 400 500 l 2,21,22
 400 541 400 541 370.5 570.5 c 128,-1,23
 341 600 341 600 300 600 c 2,24,-1
 200 600 l 2,25,26
 159 600 159 600 129.5 570.5 c 128,-1,27
 100 541 100 541 100 500 c 2,28,-1
 100 200 l 2,29,30
 100 158 100 158 129.5 128.5 c 128,-1,31
 159 99 159 99 200 100 c 2,32,-1
 229 101 l 1,33,-1
 190 140 l 1,34,-1
 261 210 l 1,35,-1
 355 116 l 1,36,37
 400 146 400 146 400 200 c 2,20,-1
EndSplineSet
EndChar

StartChar: R
Encoding: 82 82 53
Width: 600
Flags: W
LayerCount: 2
Fore
SplineSet
400 0 m 1,0,-1
 400 200 l 2,1,2
 400 241 400 241 370.5 270.5 c 128,-1,3
 341 300 341 300 300 300 c 2,4,-1
 100 300 l 1,5,-1
 100 0 l 1,6,-1
 0 0 l 1,7,-1
 0 700 l 1,8,-1
 300 700 l 2,9,10
 383 700 383 700 441.5 641.5 c 128,-1,11
 500 583 500 583 500 500 c 0,12,13
 500 410 500 410 415 350 c 1,14,15
 500 290 500 290 500 200 c 2,16,-1
 500 0 l 1,17,-1
 400 0 l 1,0,-1
100 400 m 1,18,-1
 300 400 l 2,19,20
 341 400 341 400 370.5 429.5 c 128,-1,21
 400 459 400 459 400 500 c 256,22,23
 400 541 400 541 370.5 570.5 c 128,-1,24
 341 600 341 600 300 600 c 2,25,-1
 100 600 l 1,26,-1
 100 400 l 1,18,-1
EndSplineSet
EndChar

StartChar: S
Encoding: 83 83 54
Width: 600
Flags: W
LayerCount: 2
Fore
SplineSet
500 200 m 256,0,1
 500 118 500 118 441 59 c 128,-1,2
 382 0 382 0 300 0 c 2,3,-1
 200 0 l 2,4,5
 118 0 118 0 59 58.5 c 128,-1,6
 0 117 0 117 0 200 c 1,7,-1
 100 200 l 1,8,9
 100 159 100 159 129.5 129.5 c 128,-1,10
 159 100 159 100 200 100 c 2,11,-1
 300 100 l 2,12,13
 341 100 341 100 370.5 129.5 c 128,-1,14
 400 159 400 159 400 200 c 256,15,16
 400 241 400 241 370.5 270.5 c 128,-1,17
 341 300 341 300 300 300 c 2,18,-1
 200 300 l 2,19,20
 118 300 118 300 59 359 c 128,-1,21
 0 418 0 418 0 500 c 256,22,23
 0 582 0 582 59 641 c 128,-1,24
 118 700 118 700 200 700 c 2,25,-1
 300 700 l 2,26,27
 382 700 382 700 441 641 c 128,-1,28
 500 582 500 582 500 500 c 1,29,-1
 400 500 l 1,30,31
 400 541 400 541 370.5 570.5 c 128,-1,32
 341 600 341 600 300 600 c 2,33,-1
 200 600 l 2,34,35
 159 600 159 600 129.5 570.5 c 128,-1,36
 100 541 100 541 100 500 c 256,37,38
 100 459 100 459 129.5 429.5 c 128,-1,39
 159 400 159 400 200 400 c 2,40,-1
 300 400 l 2,41,42
 382 400 382 400 441 341 c 128,-1,43
 500 282 500 282 500 200 c 256,0,1
EndSplineSet
EndChar

StartChar: T
Encoding: 84 84 55
Width: 600
Flags: W
LayerCount: 2
Fore
SplineSet
500 600 m 1,0,-1
 300 600 l 1,1,-1
 300 0 l 1,2,-1
 200 0 l 1,3,-1
 200 600 l 1,4,-1
 0 600 l 1,5,-1
 0 700 l 1,6,-1
 500 700 l 1,7,-1
 500 600 l 1,0,-1
EndSplineSet
EndChar

StartChar: U
Encoding: 85 85 56
Width: 600
Flags: W
LayerCount: 2
Fore
SplineSet
500 200 m 2,0,1
 500 117 500 117 441 58.5 c 128,-1,2
 382 0 382 0 300 0 c 2,3,-1
 200 0 l 2,4,5
 118 0 118 0 59 58.5 c 128,-1,6
 0 117 0 117 0 200 c 2,7,-1
 0 700 l 1,8,-1
 100 700 l 1,9,-1
 100 200 l 2,10,11
 100 159 100 159 129.5 129.5 c 128,-1,12
 159 100 159 100 200 100 c 2,13,-1
 300 100 l 2,14,15
 341 100 341 100 370.5 129.5 c 128,-1,16
 400 159 400 159 400 200 c 2,17,-1
 400 700 l 1,18,-1
 500 700 l 1,19,-1
 500 200 l 2,0,1
EndSplineSet
EndChar

StartChar: V
Encoding: 86 86 57
Width: 600
Flags: W
LayerCount: 2
Fore
SplineSet
500 700 m 1,0,-1
 300 0 l 1,1,-1
 200 0 l 1,2,-1
 0 700 l 1,3,-1
 104 700 l 1,4,-1
 250 189 l 1,5,-1
 396 700 l 1,6,-1
 500 700 l 1,0,-1
EndSplineSet
EndChar

StartChar: W
Encoding: 87 87 58
Width: 600
Flags: W
LayerCount: 2
Fore
SplineSet
244 70 m 1,0,1
 212 0 212 0 150 0 c 256,2,3
 88 0 88 0 44 66 c 128,-1,4
 0 132 0 132 0 225 c 2,5,-1
 0 700 l 1,6,-1
 100 700 l 1,7,-1
 100 225 l 2,8,9
 100 173 100 173 114.5 136 c 128,-1,10
 129 99 129 99 150 99 c 256,11,12
 171 99 171 99 185.5 136 c 128,-1,13
 200 173 200 173 200 225 c 2,14,-1
 200 400 l 1,15,-1
 300 400 l 1,16,-1
 300 225 l 2,17,18
 300 173 300 173 314.5 136.5 c 128,-1,19
 329 100 329 100 350 100 c 256,20,21
 371 100 371 100 385.5 136.5 c 128,-1,22
 400 173 400 173 400 225 c 2,23,-1
 400 700 l 1,24,-1
 500 700 l 1,25,-1
 500 225 l 2,26,27
 500 132 500 132 456 66 c 256,28,29
 412 0 412 0 350 0 c 256,30,31
 288 0 288 0 256 70 c 1,32,-1
 244 70 l 1,0,1
EndSplineSet
EndChar

StartChar: X
Encoding: 88 88 59
Width: 600
Flags: W
LayerCount: 2
Fore
SplineSet
500 0 m 1,0,-1
 386 0 l 1,1,-1
 250 246 l 1,2,-1
 114 0 l 1,3,-1
 0 0 l 1,4,-1
 193 350 l 1,5,-1
 0 700 l 1,6,-1
 114 700 l 1,7,-1
 250 454 l 1,8,-1
 386 700 l 1,9,-1
 500 700 l 1,10,-1
 307 350 l 1,11,-1
 500 0 l 1,0,-1
EndSplineSet
EndChar

StartChar: Y
Encoding: 89 89 60
Width: 600
Flags: W
LayerCount: 2
Fore
SplineSet
300 350 m 1,0,-1
 300 0 l 1,1,-1
 200 0 l 1,2,-1
 200 350 l 1,3,-1
 0 700 l 1,4,-1
 115 700 l 1,5,-1
 250 464 l 1,6,-1
 385 700 l 1,7,-1
 500 700 l 1,8,-1
 300 350 l 1,0,-1
EndSplineSet
EndChar

StartChar: Z
Encoding: 90 90 61
Width: 600
Flags: W
LayerCount: 2
Fore
SplineSet
500 0 m 1,0,-1
 0 0 l 1,1,-1
 0 179 l 1,2,-1
 400 578 l 1,3,-1
 400 600 l 1,4,-1
 0 600 l 1,5,-1
 0 700 l 1,6,-1
 500 700 l 1,7,-1
 500 538 l 1,8,-1
 100 138 l 1,9,-1
 100 100 l 1,10,-1
 500 100 l 1,11,-1
 500 0 l 1,0,-1
EndSplineSet
EndChar

StartChar: bracketleft
Encoding: 91 91 62
Width: 600
Flags: W
LayerCount: 2
Fore
SplineSet
400 -99 m 1,0,-1
 200 -99 l 1,1,-1
 200 800 l 1,2,-1
 400 800 l 1,3,-1
 400 700 l 1,4,-1
 300 700 l 1,5,-1
 300 0 l 1,6,-1
 400 0 l 1,7,-1
 400 -99 l 1,0,-1
EndSplineSet
EndChar

StartChar: backslash
Encoding: 92 92 63
Width: 600
Flags: W
LayerCount: 2
Fore
SplineSet
45 754 m 1,0,-1
 481 -100 l 1,1,-1
 570 -55 l 1,2,-1
 134 800 l 1,3,-1
 45 754 l 1,0,-1
EndSplineSet
EndChar

StartChar: bracketright
Encoding: 93 93 64
Width: 600
Flags: W
LayerCount: 2
Fore
SplineSet
300 -99 m 1,0,-1
 100 -99 l 1,1,-1
 100 0 l 1,2,-1
 200 0 l 1,3,-1
 200 700 l 1,4,-1
 100 700 l 1,5,-1
 100 800 l 1,6,-1
 300 800 l 1,7,-1
 300 -99 l 1,0,-1
EndSplineSet
EndChar

StartChar: asciicircum
Encoding: 94 94 65
Width: 600
Flags: W
LayerCount: 2
Fore
SplineSet
532 455 m 1,0,-1
 462 384 l 1,1,-1
 267 579 l 1,2,-1
 73 385 l 1,3,-1
 2 456 l 1,4,-1
 267 721 l 1,5,-1
 532 455 l 1,0,-1
EndSplineSet
EndChar

StartChar: underscore
Encoding: 95 95 66
Width: 600
Flags: W
LayerCount: 2
Fore
SplineSet
600 -199 m 1,0,-1
 0 -199 l 1,1,-1
 0 -99 l 1,2,-1
 600 -99 l 1,3,-1
 600 -199 l 1,0,-1
EndSplineSet
EndChar

StartChar: grave
Encoding: 96 96 67
Width: 600
Flags: W
LayerCount: 2
Fore
SplineSet
312 637 m 1,0,-1
 244 569 l 1,1,-1
 81 731 l 1,2,-1
 150 800 l 1,3,-1
 312 637 l 1,0,-1
EndSplineSet
EndChar

StartChar: a
Encoding: 97 97 68
Width: 600
Flags: W
LayerCount: 2
Fore
SplineSet
500 0 m 1,0,-1
 150 0 l 2,1,2
 0 0 0 0 0 150 c 256,3,4
 0 300 0 300 150 300 c 2,5,-1
 400 300 l 1,6,7
 400 340 400 340 370 370 c 256,8,9
 340 400 340 400 300 400 c 2,10,-1
 50 400 l 1,11,-1
 50 500 l 1,12,-1
 300 500 l 2,13,14
 383 499 383 499 441 441 c 256,15,16
 499 383 499 383 500 300 c 2,17,-1
 500 0 l 1,0,-1
400 200 m 1,18,-1
 100 200 l 1,19,-1
 100 100 l 1,20,-1
 400 100 l 1,21,-1
 400 200 l 1,18,-1
EndSplineSet
EndChar

StartChar: b
Encoding: 98 98 69
Width: 600
Flags: W
LayerCount: 2
Fore
SplineSet
500 200 m 2,0,1
 500 118 500 118 441 59 c 128,-1,2
 382 0 382 0 300 0 c 2,3,-1
 0 0 l 1,4,-1
 0 700 l 1,5,-1
 100 700 l 1,6,-1
 100 500 l 1,7,-1
 300 500 l 2,8,9
 382 500 382 500 441 441 c 128,-1,10
 500 382 500 382 500 300 c 2,11,-1
 500 200 l 2,0,1
400 200 m 2,12,-1
 400 300 l 2,13,14
 400 341 400 341 370.5 370.5 c 128,-1,15
 341 400 341 400 300 400 c 2,16,-1
 100 400 l 1,17,-1
 100 100 l 1,18,-1
 300 100 l 2,19,20
 341 100 341 100 370.5 129.5 c 128,-1,21
 400 159 400 159 400 200 c 2,12,-1
EndSplineSet
EndChar

StartChar: c
Encoding: 99 99 70
Width: 600
Flags: W
LayerCount: 2
Fore
SplineSet
500 200 m 1,0,1
 499 117 499 117 441 59 c 256,2,3
 383 1 383 1 300 0 c 2,4,-1
 200 0 l 2,5,6
 118 0 118 0 59 59 c 128,-1,7
 0 118 0 118 0 200 c 2,8,-1
 0 300 l 2,9,10
 0 382 0 382 59 441 c 128,-1,11
 118 500 118 500 200 500 c 2,12,-1
 300 500 l 2,13,14
 382 500 382 500 441 441 c 128,-1,15
 500 382 500 382 500 300 c 1,16,-1
 400 300 l 1,17,18
 400 341 400 341 370.5 370.5 c 128,-1,19
 341 400 341 400 300 400 c 2,20,-1
 200 400 l 2,21,22
 159 400 159 400 129.5 370.5 c 128,-1,23
 100 341 100 341 100 300 c 2,24,-1
 100 200 l 2,25,26
 100 159 100 159 129.5 129.5 c 128,-1,27
 159 100 159 100 200 100 c 2,28,-1
 300 100 l 2,29,30
 340 100 340 100 370 130 c 256,31,32
 400 160 400 160 400 200 c 1,33,-1
 500 200 l 1,0,1
EndSplineSet
EndChar

StartChar: d
Encoding: 100 100 71
Width: 600
Flags: W
LayerCount: 2
Fore
SplineSet
500 0 m 1,0,-1
 200 0 l 2,1,2
 118 0 118 0 59 59 c 128,-1,3
 0 118 0 118 0 200 c 2,4,-1
 0 300 l 2,5,6
 0 382 0 382 59 441 c 128,-1,7
 118 500 118 500 200 500 c 2,8,-1
 400 500 l 1,9,-1
 400 700 l 1,10,-1
 500 700 l 1,11,-1
 500 0 l 1,0,-1
400 100 m 1,12,-1
 400 400 l 1,13,-1
 200 400 l 2,14,15
 159 400 159 400 129.5 370.5 c 128,-1,16
 100 341 100 341 100 300 c 2,17,-1
 100 200 l 2,18,19
 100 159 100 159 129.5 129.5 c 128,-1,20
 159 100 159 100 200 100 c 2,21,-1
 400 100 l 1,12,-1
EndSplineSet
EndChar

StartChar: e
Encoding: 101 101 72
Width: 600
Flags: W
LayerCount: 2
Fore
SplineSet
450 0 m 1,0,-1
 200 0 l 2,1,2
 118 0 118 0 59 59 c 128,-1,3
 0 118 0 118 0 200 c 2,4,-1
 0 300 l 2,5,6
 0 382 0 382 59 441 c 128,-1,7
 118 500 118 500 200 500 c 2,8,-1
 300 500 l 2,9,10
 382 500 382 500 441 441 c 128,-1,11
 500 382 500 382 500 300 c 2,12,-1
 500 200 l 1,13,-1
 100 200 l 1,14,15
 100 159 100 159 129.5 129.5 c 128,-1,16
 159 100 159 100 200 100 c 2,17,-1
 450 100 l 1,18,-1
 450 0 l 1,0,-1
400 300 m 1,19,20
 400 341 400 341 370.5 370.5 c 128,-1,21
 341 400 341 400 300 400 c 2,22,-1
 200 400 l 2,23,24
 159 400 159 400 129.5 370.5 c 128,-1,25
 100 341 100 341 100 300 c 1,26,-1
 400 300 l 1,19,20
EndSplineSet
EndChar

StartChar: f
Encoding: 102 102 73
Width: 600
Flags: W
LayerCount: 2
Fore
SplineSet
500 600 m 1,0,-1
 300 600 l 1,1,-1
 300 500 l 1,2,-1
 400 500 l 1,3,-1
 400 400 l 1,4,-1
 300 400 l 1,5,-1
 300 100 l 1,6,-1
 400 100 l 1,7,-1
 400 0 l 1,8,-1
 100 0 l 1,9,-1
 100 100 l 1,10,-1
 200 100 l 1,11,-1
 200 400 l 1,12,-1
 100 400 l 1,13,-1
 100 500 l 1,14,-1
 200 500 l 1,15,-1
 200 600 l 2,16,17
 200 640 200 640 230 670 c 256,18,19
 260 700 260 700 300 700 c 2,20,-1
 500 700 l 1,21,-1
 500 600 l 1,0,-1
EndSplineSet
EndChar

StartChar: g
Encoding: 103 103 74
Width: 600
Flags: W
LayerCount: 2
Fore
SplineSet
500 0 m 2,0,1
 500 -82 500 -82 441 -140.5 c 128,-1,2
 382 -199 382 -199 300 -199 c 2,3,-1
 100 -199 l 1,4,-1
 100 -99 l 1,5,-1
 300 -99 l 2,6,7
 341 -99 341 -99 370.5 -69.5 c 128,-1,8
 400 -40 400 -40 400 0 c 1,9,-1
 200 0 l 2,10,11
 118 0 118 0 59 59 c 128,-1,12
 0 118 0 118 0 200 c 2,13,-1
 0 300 l 2,14,15
 0 382 0 382 59 441 c 128,-1,16
 118 500 118 500 200 500 c 2,17,-1
 500 500 l 1,18,-1
 500 0 l 2,0,1
400 100 m 1,19,-1
 400 400 l 1,20,-1
 200 400 l 2,21,22
 159 400 159 400 129.5 370.5 c 128,-1,23
 100 341 100 341 100 300 c 2,24,-1
 100 200 l 2,25,26
 100 159 100 159 129.5 129.5 c 128,-1,27
 159 100 159 100 200 100 c 2,28,-1
 400 100 l 1,19,-1
EndSplineSet
EndChar

StartChar: h
Encoding: 104 104 75
Width: 600
Flags: W
LayerCount: 2
Fore
SplineSet
500 0 m 1,0,-1
 400 0 l 1,1,-1
 400 300 l 2,2,3
 400 341 400 341 370.5 370.5 c 128,-1,4
 341 400 341 400 300 400 c 2,5,-1
 100 400 l 1,6,-1
 100 0 l 1,7,-1
 0 0 l 1,8,-1
 0 700 l 1,9,-1
 100 700 l 1,10,-1
 100 500 l 1,11,-1
 300 500 l 2,12,13
 382 500 382 500 441 441 c 128,-1,14
 500 382 500 382 500 300 c 2,15,-1
 500 0 l 1,0,-1
EndSplineSet
EndChar

StartChar: i
Encoding: 105 105 76
Width: 600
Flags: W
LayerCount: 2
Fore
SplineSet
300 650 m 256,0,1
 300 629 300 629 285.5 614.5 c 128,-1,2
 271 600 271 600 250 600 c 256,3,4
 229 600 229 600 214.5 614.5 c 128,-1,5
 200 629 200 629 200 650 c 256,6,7
 200 671 200 671 214.5 685.5 c 128,-1,8
 229 700 229 700 250 700 c 256,9,10
 271 700 271 700 285.5 685.5 c 128,-1,11
 300 671 300 671 300 650 c 256,0,1
400 0 m 1,12,-1
 100 0 l 1,13,-1
 100 100 l 1,14,-1
 200 100 l 1,15,-1
 200 400 l 1,16,-1
 100 400 l 1,17,-1
 100 500 l 1,18,-1
 300 500 l 1,19,-1
 300 100 l 1,20,-1
 400 100 l 1,21,-1
 400 0 l 1,12,-1
EndSplineSet
EndChar

StartChar: j
Encoding: 106 106 77
Width: 600
Flags: W
LayerCount: 2
Fore
SplineSet
300 650 m 256,0,1
 300 629 300 629 285.5 614.5 c 128,-1,2
 271 600 271 600 250 600 c 256,3,4
 229 600 229 600 214.5 614.5 c 128,-1,5
 200 629 200 629 200 650 c 256,6,7
 200 671 200 671 214.5 685.5 c 128,-1,8
 229 700 229 700 250 700 c 256,9,10
 271 700 271 700 285.5 685.5 c 128,-1,11
 300 671 300 671 300 650 c 256,0,1
300 0 m 2,12,13
 300 -82 300 -82 241 -140.5 c 128,-1,14
 182 -199 182 -199 100 -199 c 2,15,-1
 0 -199 l 1,16,-1
 0 -99 l 1,17,-1
 100 -99 l 2,18,19
 141 -99 141 -99 170.5 -69.5 c 128,-1,20
 200 -40 200 -40 200 0 c 2,21,-1
 200 400 l 1,22,-1
 0 400 l 1,23,-1
 0 500 l 1,24,-1
 300 500 l 1,25,-1
 300 0 l 2,12,13
EndSplineSet
EndChar

StartChar: k
Encoding: 107 107 78
Width: 600
Flags: W
LayerCount: 2
Fore
SplineSet
500 0 m 1,0,-1
 431 0 l 1,1,-1
 200 231 l 1,2,-1
 100 131 l 1,3,-1
 100 0 l 1,4,-1
 0 0 l 1,5,-1
 0 700 l 1,6,-1
 100 700 l 1,7,-1
 100 269 l 1,8,-1
 331 500 l 1,9,-1
 469 500 l 1,10,-1
 269 300 l 1,11,-1
 500 69 l 1,12,-1
 500 0 l 1,0,-1
EndSplineSet
EndChar

StartChar: l
Encoding: 108 108 79
Width: 600
Flags: W
LayerCount: 2
Fore
SplineSet
450 0 m 1,0,-1
 50 0 l 1,1,-1
 50 100 l 1,2,-1
 200 100 l 1,3,-1
 200 600 l 1,4,-1
 50 600 l 1,5,-1
 50 700 l 1,6,-1
 300 700 l 1,7,-1
 300 100 l 1,8,-1
 450 100 l 1,9,-1
 450 0 l 1,0,-1
EndSplineSet
EndChar

StartChar: m
Encoding: 109 109 80
Width: 600
Flags: W
LayerCount: 2
Fore
SplineSet
500 0 m 1,0,-1
 400 0 l 1,1,-1
 400 300 l 1,2,-1
 400 350 l 2,3,4
 400 400 400 400 350 400 c 2,5,-1
 300 400 l 1,6,-1
 300 0 l 1,7,-1
 200 0 l 1,8,-1
 200 400 l 1,9,-1
 100 400 l 1,10,-1
 100 0 l 1,11,-1
 0 0 l 1,12,-1
 0 500 l 1,13,-1
 400 500 l 2,14,15
 500 500 500 500 500 400 c 2,16,-1
 500 0 l 1,0,-1
EndSplineSet
EndChar

StartChar: n
Encoding: 110 110 81
Width: 600
Flags: W
LayerCount: 2
Fore
SplineSet
100 500 m 1,0,-1
 100 475 l 1,1,2
 140 500 140 500 200 500 c 2,3,-1
 300 500 l 2,4,5
 383 500 383 500 441.5 441.5 c 128,-1,6
 500 383 500 383 500 300 c 2,7,-1
 500 0 l 1,8,-1
 400 0 l 1,9,-1
 400 300 l 2,10,11
 400 340 400 340 370 370 c 256,12,13
 340 400 340 400 300 400 c 0,14,15
 286 400 286 400 200 400 c 0,16,17
 160 400 160 400 130 370 c 256,18,19
 100 340 100 340 100 300 c 2,20,-1
 100 0 l 1,21,-1
 0 0 l 1,22,-1
 0 500 l 1,23,-1
 100 500 l 1,0,-1
EndSplineSet
EndChar

StartChar: o
Encoding: 111 111 82
Width: 600
Flags: W
LayerCount: 2
Fore
SplineSet
500 200 m 2,0,1
 500 118 500 118 441 59 c 128,-1,2
 382 0 382 0 300 0 c 2,3,-1
 200 0 l 2,4,5
 118 0 118 0 59 59 c 128,-1,6
 0 118 0 118 0 200 c 2,7,-1
 0 300 l 2,8,9
 0 382 0 382 59 441 c 128,-1,10
 118 500 118 500 200 500 c 2,11,-1
 300 500 l 2,12,13
 382 500 382 500 441 441 c 128,-1,14
 500 382 500 382 500 300 c 2,15,-1
 500 200 l 2,0,1
400 200 m 2,16,-1
 400 300 l 2,17,18
 400 341 400 341 370.5 370.5 c 128,-1,19
 341 400 341 400 300 400 c 2,20,-1
 200 400 l 2,21,22
 159 400 159 400 129.5 370.5 c 128,-1,23
 100 341 100 341 100 300 c 2,24,-1
 100 200 l 2,25,26
 100 159 100 159 129.5 129.5 c 128,-1,27
 159 100 159 100 200 100 c 2,28,-1
 300 100 l 2,29,30
 341 100 341 100 370.5 129.5 c 128,-1,31
 400 159 400 159 400 200 c 2,16,-1
EndSplineSet
EndChar

StartChar: p
Encoding: 112 112 83
Width: 600
Flags: W
LayerCount: 2
Fore
SplineSet
500 200 m 2,0,1
 500 118 500 118 441 59 c 128,-1,2
 382 0 382 0 300 0 c 2,3,-1
 100 0 l 1,4,-1
 100 -199 l 1,5,-1
 0 -199 l 1,6,-1
 0 500 l 1,7,-1
 300 500 l 2,8,9
 382 500 382 500 441 441 c 128,-1,10
 500 382 500 382 500 300 c 2,11,-1
 500 200 l 2,0,1
400 200 m 2,12,-1
 400 300 l 2,13,14
 400 341 400 341 370.5 370.5 c 128,-1,15
 341 400 341 400 300 400 c 2,16,-1
 100 400 l 1,17,-1
 100 100 l 1,18,-1
 300 100 l 2,19,20
 341 100 341 100 370.5 129.5 c 128,-1,21
 400 159 400 159 400 200 c 2,12,-1
EndSplineSet
EndChar

StartChar: q
Encoding: 113 113 84
Width: 600
Flags: W
LayerCount: 2
Fore
SplineSet
500 -199 m 1,0,-1
 400 -199 l 1,1,-1
 400 0 l 1,2,-1
 200 0 l 2,3,4
 118 0 118 0 59 59 c 128,-1,5
 0 118 0 118 0 200 c 2,6,-1
 0 300 l 2,7,8
 0 382 0 382 59 441 c 128,-1,9
 118 500 118 500 200 500 c 2,10,-1
 500 500 l 1,11,-1
 500 -199 l 1,0,-1
400 100 m 1,12,-1
 400 400 l 1,13,-1
 200 400 l 2,14,15
 159 400 159 400 129.5 370.5 c 128,-1,16
 100 341 100 341 100 300 c 2,17,-1
 100 200 l 2,18,19
 100 159 100 159 129.5 129.5 c 128,-1,20
 159 100 159 100 200 100 c 2,21,-1
 400 100 l 1,12,-1
EndSplineSet
EndChar

StartChar: r
Encoding: 114 114 85
Width: 600
Flags: W
LayerCount: 2
Fore
SplineSet
100 500 m 1,0,-1
 100 460 l 1,1,2
 133 500 133 500 200 500 c 2,3,-1
 350 500 l 2,4,5
 500 500 500 500 500 350 c 2,6,-1
 500 300 l 1,7,-1
 400 300 l 1,8,-1
 400 350 l 2,9,10
 400 400 400 400 350 400 c 2,11,-1
 200 400 l 2,12,13
 100 400 100 400 100 300 c 2,14,-1
 100 0 l 1,15,-1
 0 0 l 1,16,-1
 0 500 l 1,17,-1
 100 500 l 1,0,-1
EndSplineSet
EndChar

StartChar: s
Encoding: 115 115 86
Width: 600
Flags: W
LayerCount: 2
Fore
SplineSet
50 0 m 1,0,-1
 50 100 l 1,1,-1
 400 100 l 1,2,-1
 400 200 l 1,3,-1
 150 200 l 2,4,5
 0 200 0 200 0 350 c 128,-1,6
 0 500 0 500 150 500 c 2,7,-1
 450 500 l 1,8,-1
 450 400 l 1,9,-1
 100 400 l 1,10,-1
 100 300 l 1,11,-1
 350 300 l 2,12,13
 500 300 500 300 500 150 c 128,-1,14
 500 0 500 0 350 0 c 2,15,-1
 50 0 l 1,0,-1
EndSplineSet
EndChar

StartChar: t
Encoding: 116 116 87
Width: 600
Flags: W
LayerCount: 2
Fore
SplineSet
500 0 m 1,0,-1
 400 0 l 2,1,2
 318 0 318 0 259 59 c 128,-1,3
 200 118 200 118 200 200 c 2,4,-1
 200 400 l 1,5,-1
 100 400 l 1,6,-1
 100 500 l 1,7,-1
 200 500 l 1,8,-1
 200 700 l 1,9,-1
 300 700 l 1,10,-1
 300 500 l 1,11,-1
 500 500 l 1,12,-1
 500 400 l 1,13,-1
 300 400 l 1,14,-1
 300 200 l 2,15,16
 300 159 300 159 329.5 129.5 c 128,-1,17
 359 100 359 100 400 100 c 2,18,-1
 500 100 l 1,19,-1
 500 0 l 1,0,-1
EndSplineSet
EndChar

StartChar: u
Encoding: 117 117 88
Width: 600
Flags: W
LayerCount: 2
Fore
SplineSet
400 0 m 1,0,-1
 400 50 l 2,1,2
 400 0 400 0 300 0 c 0,3,4
 262 0 262 0 200 0 c 0,5,6
 117 0 117 0 58.5 58.5 c 128,-1,7
 0 117 0 117 0 200 c 2,8,-1
 0 500 l 1,9,-1
 100 500 l 1,10,-1
 100 200 l 2,11,12
 100 159 100 159 129.5 129.5 c 128,-1,13
 159 100 159 100 200 100 c 0,14,15
 250 100 250 100 300 100 c 0,16,17
 400 100 400 100 400 200 c 2,18,-1
 400 500 l 1,19,-1
 500 500 l 1,20,-1
 500 0 l 1,21,-1
 400 0 l 1,0,-1
EndSplineSet
EndChar

StartChar: v
Encoding: 118 118 89
Width: 600
Flags: W
LayerCount: 2
Fore
SplineSet
500 500 m 1,0,-1
 300 0 l 1,1,-1
 200 0 l 1,2,-1
 0 500 l 1,3,-1
 108 500 l 1,4,-1
 250 144 l 1,5,-1
 392 500 l 1,6,-1
 500 500 l 1,0,-1
EndSplineSet
EndChar

StartChar: w
Encoding: 119 119 90
Width: 600
Flags: W
LayerCount: 2
Fore
SplineSet
244 70 m 1,0,1
 212 0 212 0 150 0 c 256,2,3
 88 0 88 0 44 66 c 128,-1,4
 0 132 0 132 0 225 c 2,5,-1
 0 500 l 1,6,-1
 100 500 l 1,7,-1
 100 225 l 2,8,9
 100 173 100 173 114.5 136 c 128,-1,10
 129 99 129 99 150 99 c 256,11,12
 171 99 171 99 185.5 136 c 128,-1,13
 200 173 200 173 200 225 c 2,14,-1
 200 500 l 1,15,-1
 300 500 l 1,16,-1
 300 225 l 2,17,18
 300 173 300 173 314.5 136.5 c 128,-1,19
 329 100 329 100 350 100 c 256,20,21
 371 100 371 100 385.5 136.5 c 128,-1,22
 400 173 400 173 400 225 c 2,23,-1
 400 500 l 1,24,-1
 500 500 l 1,25,-1
 500 225 l 2,26,27
 500 132 500 132 456 66 c 256,28,29
 412 0 412 0 350 0 c 256,30,31
 288 0 288 0 256 70 c 1,32,-1
 244 70 l 1,0,1
EndSplineSet
EndChar

StartChar: x
Encoding: 120 120 91
Width: 600
Flags: W
LayerCount: 2
Fore
SplineSet
500 0 m 1,0,-1
 375 0 l 1,1,-1
 250 167 l 1,2,-1
 125 0 l 1,3,-1
 0 0 l 1,4,-1
 187 250 l 1,5,-1
 0 500 l 1,6,-1
 125 500 l 1,7,-1
 250 333 l 1,8,-1
 375 500 l 1,9,-1
 500 500 l 1,10,-1
 313 250 l 1,11,-1
 500 0 l 1,0,-1
EndSplineSet
EndChar

StartChar: y
Encoding: 121 121 92
Width: 600
Flags: W
LayerCount: 2
Fore
SplineSet
500 0 m 2,0,1
 500 -82 500 -82 441 -140.5 c 128,-1,2
 382 -199 382 -199 300 -199 c 2,3,-1
 100 -199 l 1,4,-1
 100 -99 l 1,5,-1
 300 -99 l 2,6,7
 341 -99 341 -99 370.5 -69.5 c 128,-1,8
 400 -40 400 -40 400 0 c 1,9,-1
 200 0 l 2,10,11
 118 0 118 0 59 59 c 128,-1,12
 0 118 0 118 0 200 c 2,13,-1
 0 500 l 1,14,-1
 100 500 l 1,15,-1
 100 200 l 2,16,17
 100 159 100 159 129.5 129.5 c 128,-1,18
 159 100 159 100 200 100 c 2,19,-1
 400 100 l 1,20,-1
 400 500 l 1,21,-1
 500 500 l 1,22,-1
 500 0 l 2,0,1
EndSplineSet
EndChar

StartChar: z
Encoding: 122 122 93
Width: 600
Flags: W
LayerCount: 2
Fore
SplineSet
500 0 m 1,0,-1
 0 0 l 1,1,-1
 0 69 l 1,2,-1
 331 400 l 1,3,-1
 0 400 l 1,4,-1
 0 500 l 1,5,-1
 500 500 l 1,6,-1
 500 431 l 1,7,-1
 169 100 l 1,8,-1
 500 100 l 1,9,-1
 500 0 l 1,0,-1
EndSplineSet
EndChar

StartChar: braceleft
Encoding: 123 123 94
Width: 600
Flags: W
LayerCount: 2
Fore
SplineSet
400 -99 m 1,0,1
 317 -99 317 -99 258.5 -47.5 c 128,-1,2
 200 4 200 4 200 76 c 2,3,-1
 200 200 l 2,4,5
 200 241 200 241 170.5 270.5 c 128,-1,6
 141 300 141 300 100 300 c 1,7,-1
 100 400 l 1,8,9
 141 400 141 400 170.5 429.5 c 128,-1,10
 200 459 200 459 200 500 c 2,11,-1
 200 625 l 2,12,13
 200 697 200 697 258.5 748.5 c 128,-1,14
 317 800 317 800 400 800 c 1,15,-1
 400 700 l 1,16,17
 359 700 359 700 329.5 670.5 c 128,-1,18
 300 641 300 641 300 600 c 2,19,-1
 300 450 l 2,20,21
 300 396 300 396 225 356 c 1,22,-1
 225 344 l 1,23,24
 300 304 300 304 300 250 c 2,25,-1
 300 100 l 2,26,27
 300 60 300 60 329.5 30.5 c 128,-1,28
 359 1 359 1 400 1 c 1,29,-1
 400 -99 l 1,0,1
EndSplineSet
EndChar

StartChar: bar
Encoding: 124 124 95
Width: 600
Flags: W
LayerCount: 2
Fore
SplineSet
300 -99 m 1,0,-1
 200 -99 l 1,1,-1
 200 800 l 1,2,-1
 300 800 l 1,3,-1
 300 -99 l 1,0,-1
EndSplineSet
EndChar

StartChar: braceright
Encoding: 125 125 96
Width: 600
Flags: W
LayerCount: 2
Fore
SplineSet
100 -99 m 1,0,-1
 100 1 l 1,1,2
 141 1 141 1 170.5 30.5 c 128,-1,3
 200 60 200 60 200 100 c 2,4,-1
 200 250 l 2,5,6
 200 304 200 304 275 344 c 1,7,-1
 275 356 l 1,8,9
 200 396 200 396 200 450 c 2,10,-1
 200 600 l 2,11,12
 200 641 200 641 170.5 670.5 c 128,-1,13
 141 700 141 700 100 700 c 1,14,-1
 100 800 l 1,15,16
 183 800 183 800 241.5 748.5 c 128,-1,17
 300 697 300 697 300 625 c 2,18,-1
 300 500 l 2,19,20
 300 459 300 459 329.5 429.5 c 128,-1,21
 359 400 359 400 400 400 c 1,22,-1
 400 300 l 1,23,24
 359 300 359 300 329.5 270.5 c 128,-1,25
 300 241 300 241 300 200 c 2,26,-1
 300 76 l 2,27,28
 300 4 300 4 241.5 -47.5 c 128,-1,29
 183 -99 183 -99 100 -99 c 1,0,-1
EndSplineSet
EndChar

StartChar: asciitilde
Encoding: 126 126 97
Width: 600
Flags: W
LayerCount: 2
Fore
SplineSet
500 450 m 2,0,1
 500 388 500 388 456 344 c 128,-1,2
 412 300 412 300 350 300 c 256,3,4
 288 300 288 300 250 338 c 0,5,6
 188 400 188 400 150 400 c 0,7,8
 129 400 129 400 114.5 385.5 c 128,-1,9
 100 371 100 371 100 350 c 2,10,-1
 100 300 l 1,11,-1
 0 300 l 1,12,-1
 0 350 l 2,13,14
 0 412 0 412 44 456 c 128,-1,15
 88 500 88 500 150 500 c 0,16,17
 213 500 213 500 250 463 c 0,18,19
 313 400 313 400 350 400 c 0,20,21
 371 400 371 400 385.5 414.5 c 128,-1,22
 400 429 400 429 400 450 c 2,23,-1
 400 500 l 1,24,-1
 500 500 l 1,25,-1
 500 450 l 2,0,1
EndSplineSet
EndChar

StartChar: exclamdown
Encoding: 161 161 99
Width: 600
Flags: W
LayerCount: 2
Fore
SplineSet
400 650 m 256,0,1
 400 629 400 629 385.5 614.5 c 128,-1,2
 371 600 371 600 350 600 c 256,3,4
 329 600 329 600 314.5 614.5 c 128,-1,5
 300 629 300 629 300 650 c 256,6,7
 300 671 300 671 314.5 685.5 c 128,-1,8
 329 700 329 700 350 700 c 256,9,10
 371 700 371 700 385.5 685.5 c 128,-1,11
 400 671 400 671 400 650 c 256,0,1
400 0 m 1,12,-1
 300 0 l 1,13,-1
 300 500 l 1,14,-1
 400 500 l 1,15,-1
 400 0 l 1,12,-1
EndSplineSet
EndChar

StartChar: cent
Encoding: 162 162 100
Width: 600
Flags: W
LayerCount: 2
Fore
SplineSet
500 0 m 1,0,-1
 300 0 l 1,1,-1
 300 -99 l 1,2,-1
 200 -99 l 1,3,-1
 200 0 l 1,4,5
 118 0 118 0 59 59 c 128,-1,6
 0 118 0 118 0 200 c 2,7,-1
 0 300 l 2,8,9
 0 382 0 382 59 441 c 128,-1,10
 118 500 118 500 200 500 c 1,11,-1
 200 600 l 1,12,-1
 300 600 l 1,13,-1
 300 500 l 1,14,15
 382 500 382 500 441 441 c 128,-1,16
 500 382 500 382 500 300 c 1,17,-1
 400 300 l 1,18,19
 400 341 400 341 370.5 370.5 c 128,-1,20
 341 400 341 400 300 400 c 1,21,-1
 300 100 l 1,22,-1
 500 100 l 1,23,-1
 500 0 l 1,0,-1
200 100 m 1,24,-1
 200 400 l 1,25,26
 159 400 159 400 129.5 370.5 c 128,-1,27
 100 341 100 341 100 300 c 2,28,-1
 100 200 l 2,29,30
 100 159 100 159 129.5 129.5 c 128,-1,31
 159 100 159 100 200 100 c 1,24,-1
EndSplineSet
EndChar

StartChar: sterling
Encoding: 163 163 101
Width: 600
Flags: W
LayerCount: 2
Fore
SplineSet
500 200 m 1,0,1
 500 122 500 122 439 61 c 128,-1,2
 378 0 378 0 300 0 c 2,3,-1
 0 0 l 1,4,-1
 0 600 l 2,5,6
 0 682 0 682 59 741 c 128,-1,7
 118 800 118 800 200 800 c 256,8,9
 282 800 282 800 341 741 c 128,-1,10
 400 682 400 682 400 600 c 1,11,-1
 300 600 l 1,12,13
 300 641 300 641 270.5 670.5 c 128,-1,14
 241 700 241 700 200 700 c 256,15,16
 159 700 159 700 129.5 670.5 c 128,-1,17
 100 641 100 641 100 600 c 2,18,-1
 100 500 l 1,19,-1
 300 500 l 1,20,-1
 300 400 l 1,21,-1
 100 400 l 1,22,-1
 100 100 l 1,23,-1
 300 100 l 2,24,25
 336 100 336 100 368 132 c 128,-1,26
 400 164 400 164 400 200 c 1,27,-1
 500 200 l 1,0,1
EndSplineSet
EndChar

StartChar: currency
Encoding: 164 164 102
Width: 600
Flags: W
LayerCount: 2
Fore
SplineSet
500 71 m 1,0,-1
 429 0 l 1,1,-1
 315 115 l 1,2,3
 285 100 285 100 250 100 c 256,4,5
 215 100 215 100 185 115 c 1,6,-1
 71 0 l 1,7,-1
 0 71 l 1,8,-1
 115 185 l 1,9,10
 100 215 100 215 100 250 c 256,11,12
 100 285 100 285 115 315 c 1,13,-1
 0 429 l 1,14,-1
 71 500 l 1,15,-1
 185 385 l 1,16,17
 215 400 215 400 250 400 c 256,18,19
 285 400 285 400 315 385 c 1,20,-1
 429 500 l 1,21,-1
 500 429 l 1,22,-1
 385 315 l 1,23,24
 400 285 400 285 400 250 c 256,25,26
 400 215 400 215 385 185 c 1,27,-1
 500 71 l 1,0,-1
300 250 m 256,28,29
 300 271 300 271 285.5 285.5 c 128,-1,30
 271 300 271 300 250 300 c 256,31,32
 229 300 229 300 214.5 285.5 c 128,-1,33
 200 271 200 271 200 250 c 256,34,35
 200 229 200 229 214.5 214.5 c 128,-1,36
 229 200 229 200 250 200 c 256,37,38
 271 200 271 200 285.5 214.5 c 128,-1,39
 300 229 300 229 300 250 c 256,28,29
EndSplineSet
EndChar

StartChar: yen
Encoding: 165 165 103
Width: 600
Flags: W
LayerCount: 2
Fore
SplineSet
537 650 m 1,0,-1
 387 500 l 1,1,-1
 519 500 l 1,2,-1
 519 400 l 1,3,-1
 319 400 l 1,4,-1
 319 300 l 1,5,-1
 519 300 l 1,6,-1
 519 200 l 1,7,-1
 319 200 l 1,8,-1
 319 0 l 1,9,-1
 219 0 l 1,10,-1
 219 200 l 1,11,-1
 19 200 l 1,12,-1
 19 300 l 1,13,-1
 219 300 l 1,14,-1
 219 400 l 1,15,-1
 19 400 l 1,16,-1
 19 500 l 1,17,-1
 150 500 l 1,18,-1
 0 650 l 1,19,-1
 69 719 l 1,20,-1
 269 519 l 1,21,-1
 469 719 l 1,22,-1
 537 650 l 1,0,-1
EndSplineSet
EndChar

StartChar: brokenbar
Encoding: 166 166 104
Width: 600
Flags: W
LayerCount: 2
Fore
SplineSet
300 400 m 1,0,-1
 200 400 l 1,1,-1
 200 800 l 1,2,-1
 300 800 l 1,3,-1
 300 400 l 1,0,-1
300 -99 m 1,4,-1
 200 -99 l 1,5,-1
 200 300 l 1,6,-1
 300 300 l 1,7,-1
 300 -99 l 1,4,-1
EndSplineSet
EndChar

StartChar: section
Encoding: 167 167 105
Width: 600
Flags: W
LayerCount: 2
Fore
SplineSet
500 200 m 1,0,-1
 400 200 l 1,1,-1
 400 331 l 1,2,-1
 50 680 l 2,3,4
 28 702 28 702 28 734 c 0,5,6
 28 790 28 790 84.5 845 c 128,-1,7
 141 900 141 900 200 900 c 2,8,-1
 300 900 l 2,9,10
 383 900 383 900 441.5 841.5 c 128,-1,11
 500 783 500 783 500 700 c 0,12,13
 501 598 501 598 500 600 c 2,14,-1
 400 600 l 1,15,-1
 400 700 l 2,16,17
 400 741 400 741 370.5 770.5 c 128,-1,18
 341 800 341 800 300 800 c 2,19,-1
 188 800 l 2,20,21
 167 800 167 800 152.5 785.5 c 128,-1,22
 138 771 138 771 138 750 c 0,23,24
 138 736 138 736 144 726 c 2,25,-1
 500 369 l 1,26,-1
 500 200 l 1,0,-1
450 120 m 2,27,28
 472 98 472 98 472 66 c 0,29,30
 472 10 472 10 415.5 -44.5 c 128,-1,31
 359 -99 359 -99 300 -99 c 2,32,-1
 200 -99 l 2,33,34
 118 -99 118 -99 59 -40.5 c 128,-1,35
 0 18 0 18 0 100 c 2,36,-1
 0 200 l 1,37,-1
 100 200 l 1,38,-1
 100 100 l 2,39,40
 100 59 100 59 129.5 29.5 c 128,-1,41
 159 0 159 0 200 0 c 2,42,-1
 313 0 l 2,43,44
 333 0 333 0 348 14.5 c 128,-1,45
 363 29 363 29 363 50 c 0,46,47
 363 63 363 63 357 74 c 2,48,-1
 0 431 l 1,49,-1
 0 600 l 1,50,-1
 100 600 l 1,51,-1
 100 469 l 1,52,-1
 450 120 l 2,27,28
EndSplineSet
EndChar

StartChar: dieresis
Encoding: 168 168 106
Width: 600
Flags: W
LayerCount: 2
Fore
SplineSet
400 650 m 256,0,1
 400 629 400 629 385.5 614.5 c 128,-1,2
 371 600 371 600 350 600 c 256,3,4
 329 600 329 600 314.5 614.5 c 128,-1,5
 300 629 300 629 300 650 c 256,6,7
 300 671 300 671 314.5 685.5 c 128,-1,8
 329 700 329 700 350 700 c 256,9,10
 371 700 371 700 385.5 685.5 c 128,-1,11
 400 671 400 671 400 650 c 256,0,1
200 650 m 256,12,13
 200 629 200 629 185.5 614.5 c 128,-1,14
 171 600 171 600 150 600 c 256,15,16
 129 600 129 600 114.5 614.5 c 128,-1,17
 100 629 100 629 100 650 c 256,18,19
 100 671 100 671 114.5 685.5 c 128,-1,20
 129 700 129 700 150 700 c 256,21,22
 171 700 171 700 185.5 685.5 c 128,-1,23
 200 671 200 671 200 650 c 256,12,13
EndSplineSet
EndChar

StartChar: copyright
Encoding: 169 169 107
Width: 600
Flags: W
LayerCount: 2
Fore
SplineSet
500 350 m 256,0,1
 500 205 500 205 397.5 102.5 c 128,-1,2
 295 0 295 0 150 0 c 0,3,4
 71 0 71 0 0 34 c 1,5,-1
 0 150 l 1,6,7
 66 100 66 100 150 100 c 0,8,9
 254 100 254 100 327 173 c 128,-1,10
 400 246 400 246 400 350 c 256,11,12
 400 454 400 454 327 527 c 128,-1,13
 254 600 254 600 150 600 c 0,14,15
 68 600 68 600 0 550 c 1,16,-1
 0 666 l 1,17,18
 71 700 71 700 150 700 c 0,19,20
 295 700 295 700 397.5 597.5 c 128,-1,21
 500 495 500 495 500 350 c 256,0,1
300 200 m 1,22,-1
 150 200 l 2,23,24
 88 200 88 200 44 244 c 128,-1,25
 0 288 0 288 0 350 c 256,26,27
 0 412 0 412 44 456 c 128,-1,28
 88 500 88 500 150 500 c 2,29,-1
 300 500 l 1,30,-1
 300 400 l 1,31,-1
 150 400 l 2,32,33
 129 400 129 400 114.5 385.5 c 128,-1,34
 100 371 100 371 100 350 c 256,35,36
 100 329 100 329 114.5 314.5 c 128,-1,37
 129 300 129 300 150 300 c 2,38,-1
 300 300 l 1,39,-1
 300 200 l 1,22,-1
EndSplineSet
EndChar

StartChar: ordfeminine
Encoding: 170 170 108
Width: 600
Flags: W
LayerCount: 2
Fore
SplineSet
500 500 m 1,0,-1
 300 500 l 2,1,2
 218 500 218 500 159 559 c 128,-1,3
 100 618 100 618 100 700 c 256,4,5
 100 782 100 782 159 841 c 128,-1,6
 218 900 218 900 300 900 c 2,7,-1
 500 900 l 1,8,-1
 500 500 l 1,0,-1
500 300 m 1,9,-1
 100 300 l 1,10,-1
 100 400 l 1,11,-1
 500 400 l 1,12,-1
 500 300 l 1,9,-1
400 600 m 1,13,-1
 400 800 l 1,14,-1
 300 800 l 2,15,16
 259 800 259 800 229.5 770.5 c 128,-1,17
 200 741 200 741 200 700 c 256,18,19
 200 659 200 659 229.5 629.5 c 128,-1,20
 259 600 259 600 300 600 c 2,21,-1
 400 600 l 1,13,-1
EndSplineSet
EndChar

StartChar: guillemotleft
Encoding: 171 171 109
Width: 600
Flags: W
LayerCount: 2
Fore
SplineSet
490 9 m 1,0,-1
 398 -29 l 1,1,-1
 300 200 l 1,2,-1
 398 430 l 1,3,-1
 490 391 l 1,4,-1
 406 200 l 1,5,-1
 490 9 l 1,0,-1
190 9 m 1,6,-1
 98 -29 l 1,7,-1
 0 200 l 1,8,-1
 98 430 l 1,9,-1
 190 391 l 1,10,-1
 106 200 l 1,11,-1
 190 9 l 1,6,-1
EndSplineSet
EndChar

StartChar: logicalnot
Encoding: 172 172 110
Width: 600
Flags: W
LayerCount: 2
Fore
SplineSet
500 100 m 1,0,-1
 400 100 l 1,1,-1
 400 300 l 1,2,-1
 0 300 l 1,3,-1
 0 400 l 1,4,-1
 500 400 l 1,5,-1
 500 100 l 1,0,-1
EndSplineSet
EndChar

StartChar: minus
Encoding: 173 173 111
AltUni2: 002212.ffffffff.0
Width: 600
Flags: W
LayerCount: 2
Fore
SplineSet
500 300 m 1,0,-1
 0 300 l 1,1,-1
 0 400 l 1,2,-1
 500 400 l 1,3,-1
 500 300 l 1,0,-1
EndSplineSet
EndChar

StartChar: registered
Encoding: 174 174 112
Width: 600
Flags: W
LayerCount: 2
Fore
SplineSet
500 275 m 2,0,1
 500 202 500 202 449 151 c 128,-1,2
 398 100 398 100 325 100 c 2,3,-1
 230 100 l 1,4,-1
 131 200 l 1,5,-1
 100 200 l 1,6,-1
 100 100 l 1,7,-1
 0 100 l 1,8,-1
 0 500 l 1,9,-1
 150 500 l 2,10,11
 212 500 212 500 256 456 c 128,-1,12
 300 412 300 412 300 350 c 0,13,14
 300 276 300 276 240 231 c 1,15,-1
 271 200 l 1,16,-1
 287 200 l 2,17,18
 334 200 334 200 367 233 c 128,-1,19
 400 266 400 266 400 313 c 2,20,-1
 400 350 l 2,21,22
 400 454 400 454 327 527 c 128,-1,23
 254 600 254 600 150 600 c 0,24,25
 68 600 68 600 0 550 c 1,26,-1
 0 666 l 1,27,28
 71 700 71 700 150 700 c 0,29,30
 295 700 295 700 397.5 597.5 c 128,-1,31
 500 495 500 495 500 350 c 2,32,-1
 500 275 l 2,0,1
200 350 m 256,33,34
 200 371 200 371 185.5 385.5 c 128,-1,35
 171 400 171 400 150 400 c 2,36,-1
 100 400 l 1,37,-1
 100 300 l 1,38,-1
 150 300 l 2,39,40
 171 300 171 300 185.5 314.5 c 128,-1,41
 200 329 200 329 200 350 c 256,33,34
EndSplineSet
EndChar

StartChar: macron
Encoding: 175 175 113
AltUni2: 0002c9.ffffffff.0
Width: 600
Flags: W
LayerCount: 2
Fore
SplineSet
400 600 m 1,0,-1
 100 600 l 1,1,-1
 100 700 l 1,2,-1
 400 700 l 1,3,-1
 400 600 l 1,0,-1
EndSplineSet
EndChar

StartChar: degree
Encoding: 176 176 114
Width: 600
Flags: W
LayerCount: 2
Fore
SplineSet
500 600 m 256,0,1
 500 518 500 518 441.5 459 c 128,-1,2
 383 400 383 400 300 400 c 0,3,4
 218 400 218 400 159 459 c 128,-1,5
 100 518 100 518 100 600 c 0,6,7
 100 683 100 683 159 741.5 c 128,-1,8
 218 800 218 800 300 800 c 256,9,10
 382 800 382 800 441 741 c 128,-1,11
 500 682 500 682 500 600 c 256,0,1
400 600 m 256,12,13
 400 641 400 641 370.5 670.5 c 128,-1,14
 341 700 341 700 300 700 c 256,15,16
 259 700 259 700 229.5 670.5 c 128,-1,17
 200 641 200 641 200 600 c 256,18,19
 200 559 200 559 229.5 529.5 c 128,-1,20
 259 500 259 500 300 500 c 256,21,22
 341 500 341 500 370.5 529.5 c 128,-1,23
 400 559 400 559 400 600 c 256,12,13
EndSplineSet
EndChar

StartChar: plusminus
Encoding: 177 177 115
Width: 600
Flags: W
LayerCount: 2
Fore
SplineSet
500 0 m 1,0,-1
 0 0 l 1,1,-1
 0 100 l 1,2,-1
 200 100 l 1,3,-1
 200 300 l 1,4,-1
 0 300 l 1,5,-1
 0 400 l 1,6,-1
 200 400 l 1,7,-1
 200 600 l 1,8,-1
 300 600 l 1,9,-1
 300 400 l 1,10,-1
 500 400 l 1,11,-1
 500 300 l 1,12,-1
 300 300 l 1,13,-1
 300 100 l 1,14,-1
 500 100 l 1,15,-1
 500 0 l 1,0,-1
EndSplineSet
EndChar

StartChar: twosuperior
Encoding: 178 178 116
Width: 600
Flags: W
LayerCount: 2
Fore
SplineSet
389 754 m 1,0,-1
 234 600 l 1,1,-1
 400 600 l 1,2,-1
 400 550 l 1,3,-1
 150 550 l 1,4,-1
 150 584 l 1,5,-1
 346 781 l 2,6,7
 350 790 350 790 350 800 c 0,8,9
 350 821 350 821 335.5 835.5 c 128,-1,10
 321 850 321 850 300 850 c 2,11,-1
 250 850 l 2,12,13
 229 850 229 850 214.5 835.5 c 128,-1,14
 200 821 200 821 200 800 c 1,15,-1
 150 800 l 1,16,17
 150 841 150 841 179.5 870.5 c 128,-1,18
 209 900 209 900 250 900 c 2,19,-1
 300 900 l 2,20,21
 341 900 341 900 370.5 870.5 c 128,-1,22
 400 841 400 841 400 800 c 0,23,24
 400 775 400 775 389 754 c 1,0,-1
EndSplineSet
EndChar

StartChar: threesuperior
Encoding: 179 179 117
Width: 600
Flags: W
LayerCount: 2
Fore
SplineSet
200 650 m 1,0,1
 200 629 200 629 214.5 614.5 c 128,-1,2
 229 600 229 600 250 600 c 2,3,-1
 300 600 l 2,4,5
 321 600 321 600 335.5 614.5 c 128,-1,6
 350 629 350 629 350 650 c 256,7,8
 350 671 350 671 335.5 685.5 c 128,-1,9
 321 700 321 700 300 700 c 2,10,-1
 250 700 l 1,11,-1
 250 750 l 1,12,-1
 300 750 l 2,13,14
 321 750 321 750 335.5 764.5 c 128,-1,15
 350 779 350 779 350 800 c 256,16,17
 350 821 350 821 335.5 835.5 c 128,-1,18
 321 850 321 850 300 850 c 2,19,-1
 250 850 l 2,20,21
 229 850 229 850 214.5 835.5 c 128,-1,22
 200 821 200 821 200 800 c 1,23,-1
 150 800 l 1,24,25
 150 841 150 841 179.5 870.5 c 128,-1,26
 209 900 209 900 250 900 c 2,27,-1
 300 900 l 2,28,29
 341 900 341 900 370.5 870.5 c 128,-1,30
 400 841 400 841 400 800 c 0,31,32
 400 755 400 755 358 725 c 1,33,34
 400 695 400 695 400 650 c 0,35,36
 400 609 400 609 370.5 579.5 c 128,-1,37
 341 550 341 550 300 550 c 2,38,-1
 250 550 l 2,39,40
 209 550 209 550 179.5 579.5 c 128,-1,41
 150 609 150 609 150 650 c 1,42,-1
 200 650 l 1,0,1
EndSplineSet
EndChar

StartChar: acute
Encoding: 180 180 118
Width: 600
Flags: W
LayerCount: 2
Fore
SplineSet
424 750 m 1,0,-1
 355 819 l 1,1,-1
 192 656 l 1,2,-1
 261 588 l 1,3,-1
 424 750 l 1,0,-1
EndSplineSet
EndChar

StartChar: mu
Encoding: 181 181 119
AltUni2: 0003bc.ffffffff.0
Width: 600
Flags: W
LayerCount: 2
Fore
SplineSet
500 0 m 1,0,1
 410 0 410 0 350 68 c 1,2,3
 292 0 292 0 200 0 c 2,4,-1
 100 0 l 1,5,-1
 100 -199 l 1,6,-1
 0 -199 l 1,7,-1
 0 500 l 1,8,-1
 100 500 l 1,9,-1
 100 100 l 1,10,-1
 200 100 l 2,11,12
 241 100 241 100 270.5 129.5 c 128,-1,13
 300 159 300 159 300 200 c 2,14,-1
 300 500 l 1,15,-1
 400 500 l 1,16,-1
 400 200 l 2,17,18
 400 159 400 159 429.5 129.5 c 128,-1,19
 459 100 459 100 500 100 c 1,20,-1
 500 0 l 1,0,1
EndSplineSet
EndChar

StartChar: paragraph
Encoding: 182 182 120
Width: 600
Flags: W
LayerCount: 2
Fore
SplineSet
500 0 m 1,0,-1
 400 0 l 1,1,-1
 400 300 l 1,2,-1
 300 300 l 1,3,-1
 300 0 l 1,4,-1
 200 0 l 1,5,-1
 200 305 l 1,6,7
 114 322 114 322 57 391 c 128,-1,8
 0 460 0 460 0 550 c 0,9,10
 0 654 0 654 73 727 c 128,-1,11
 146 800 146 800 250 800 c 2,12,-1
 500 800 l 1,13,-1
 500 0 l 1,0,-1
400 400 m 1,14,-1
 400 700 l 1,15,-1
 300 700 l 1,16,-1
 300 400 l 1,17,-1
 400 400 l 1,14,-1
200 409 m 1,18,-1
 200 691 l 1,19,20
 156 675 156 675 128 636.5 c 128,-1,21
 100 598 100 598 100 550 c 256,22,23
 100 502 100 502 128 463 c 128,-1,24
 156 424 156 424 200 409 c 1,18,-1
EndSplineSet
EndChar

StartChar: periodcentered
Encoding: 183 183 121
AltUni2: 002219.ffffffff.0
Width: 600
Flags: W
LayerCount: 2
Fore
SplineSet
400 325 m 256,0,1
 400 284 400 284 370.5 254.5 c 128,-1,2
 341 225 341 225 300 225 c 256,3,4
 259 225 259 225 229.5 254.5 c 128,-1,5
 200 284 200 284 200 325 c 256,6,7
 200 366 200 366 229.5 395.5 c 128,-1,8
 259 425 259 425 300 425 c 256,9,10
 341 425 341 425 370.5 395.5 c 128,-1,11
 400 366 400 366 400 325 c 256,0,1
EndSplineSet
EndChar

StartChar: cedilla
Encoding: 184 184 122
Width: 600
Flags: W
LayerCount: 2
Fore
SplineSet
300 -55 m 1,0,-1
 300 100 l 1,1,-1
 100 100 l 1,2,-1
 100 0 l 1,3,-1
 200 0 l 1,4,-1
 200 -18 l 1,5,-1
 87 -130 l 1,6,-1
 156 -199 l 1,7,-1
 300 -55 l 1,0,-1
EndSplineSet
EndChar

StartChar: onesuperior
Encoding: 185 185 123
Width: 600
Flags: W
LayerCount: 2
Fore
SplineSet
400 550 m 1,0,-1
 150 550 l 1,1,-1
 150 600 l 1,2,-1
 250 600 l 1,3,-1
 250 800 l 1,4,-1
 175 800 l 1,5,-1
 175 850 l 1,6,-1
 200 850 l 2,7,8
 221 850 221 850 235.5 864.5 c 128,-1,9
 250 879 250 879 250 900 c 1,10,-1
 300 900 l 1,11,-1
 300 600 l 1,12,-1
 400 600 l 1,13,-1
 400 550 l 1,0,-1
EndSplineSet
EndChar

StartChar: ordmasculine
Encoding: 186 186 124
Width: 600
Flags: W
LayerCount: 2
Fore
SplineSet
500 700 m 256,0,1
 500 618 500 618 441.5 559 c 128,-1,2
 383 500 383 500 300 500 c 0,3,4
 218 500 218 500 159 558.5 c 128,-1,5
 100 617 100 617 100 700 c 256,6,7
 100 783 100 783 159 841.5 c 128,-1,8
 218 900 218 900 300 900 c 256,9,10
 382 900 382 900 441 841 c 128,-1,11
 500 782 500 782 500 700 c 256,0,1
500 300 m 1,12,-1
 100 300 l 1,13,-1
 100 400 l 1,14,-1
 500 400 l 1,15,-1
 500 300 l 1,12,-1
400 700 m 256,16,17
 400 741 400 741 370.5 770.5 c 128,-1,18
 341 800 341 800 300 800 c 256,19,20
 259 800 259 800 229.5 770.5 c 128,-1,21
 200 741 200 741 200 700 c 256,22,23
 200 659 200 659 229.5 629.5 c 128,-1,24
 259 600 259 600 300 600 c 256,25,26
 341 600 341 600 370.5 629.5 c 128,-1,27
 400 659 400 659 400 700 c 256,16,17
EndSplineSet
EndChar

StartChar: guillemotright
Encoding: 187 187 125
Width: 600
Flags: W
LayerCount: 2
Fore
SplineSet
500 200 m 1,0,-1
 402 -29 l 1,1,-1
 310 9 l 1,2,-1
 394 200 l 1,3,-1
 310 391 l 1,4,-1
 402 430 l 1,5,-1
 500 200 l 1,0,-1
200 200 m 1,6,-1
 102 -29 l 1,7,-1
 10 9 l 1,8,-1
 94 200 l 1,9,-1
 10 391 l 1,10,-1
 102 430 l 1,11,-1
 200 200 l 1,6,-1
EndSplineSet
EndChar

StartChar: onequarter
Encoding: 188 188 126
Width: 600
Flags: W
LayerCount: 2
Fore
SplineSet
300 550 m 1,0,-1
 50 550 l 1,1,-1
 50 600 l 1,2,-1
 150 600 l 1,3,-1
 150 800 l 1,4,-1
 75 800 l 1,5,-1
 75 850 l 1,6,-1
 100 850 l 2,7,8
 121 850 121 850 135.5 864.5 c 128,-1,9
 150 879 150 879 150 900 c 1,10,-1
 200 900 l 1,11,-1
 200 600 l 1,12,-1
 300 600 l 1,13,-1
 300 550 l 1,0,-1
600 653 m 1,14,-1
 35 88 l 1,15,-1
 0 123 l 1,16,-1
 565 688 l 1,17,-1
 600 653 l 1,14,-1
466 350 m 1,18,-1
 500 350 l 1,19,-1
 500 150 l 1,20,-1
 550 150 l 1,21,-1
 550 100 l 1,22,-1
 500 100 l 1,23,-1
 500 50 l 1,24,-1
 550 50 l 1,25,-1
 550 0 l 1,26,-1
 400 0 l 1,27,-1
 400 50 l 1,28,-1
 450 50 l 1,29,-1
 450 100 l 1,30,-1
 300 100 l 1,31,-1
 300 184 l 1,32,-1
 466 350 l 1,18,-1
350 166 m 1,33,-1
 350 150 l 1,34,-1
 450 150 l 1,35,-1
 450 266 l 1,36,-1
 350 166 l 1,33,-1
EndSplineSet
EndChar

StartChar: onehalf
Encoding: 189 189 127
Width: 600
Flags: W
LayerCount: 2
Fore
SplineSet
300 550 m 1,0,-1
 50 550 l 1,1,-1
 50 600 l 1,2,-1
 150 600 l 1,3,-1
 150 800 l 1,4,-1
 75 800 l 1,5,-1
 75 850 l 1,6,-1
 100 850 l 2,7,8
 121 850 121 850 135.5 864.5 c 128,-1,9
 150 879 150 879 150 900 c 1,10,-1
 200 900 l 1,11,-1
 200 600 l 1,12,-1
 300 600 l 1,13,-1
 300 550 l 1,0,-1
600 653 m 1,14,-1
 35 88 l 1,15,-1
 0 123 l 1,16,-1
 565 688 l 1,17,-1
 600 653 l 1,14,-1
539 204 m 1,18,-1
 384 50 l 1,19,-1
 550 50 l 1,20,-1
 550 0 l 1,21,-1
 300 0 l 1,22,-1
 300 34 l 1,23,-1
 496 231 l 2,24,25
 500 240 500 240 500 250 c 0,26,27
 500 271 500 271 485.5 285.5 c 128,-1,28
 471 300 471 300 450 300 c 2,29,-1
 400 300 l 2,30,31
 379 300 379 300 364.5 285.5 c 128,-1,32
 350 271 350 271 350 250 c 1,33,-1
 300 250 l 1,34,35
 300 291 300 291 329.5 320.5 c 128,-1,36
 359 350 359 350 400 350 c 2,37,-1
 450 350 l 2,38,39
 491 350 491 350 520.5 320.5 c 128,-1,40
 550 291 550 291 550 250 c 0,41,42
 550 225 550 225 539 204 c 1,18,-1
EndSplineSet
EndChar

StartChar: threequarters
Encoding: 190 190 128
Width: 600
Flags: W
LayerCount: 2
Fore
SplineSet
100 650 m 1,0,1
 100 629 100 629 114.5 614.5 c 128,-1,2
 129 600 129 600 150 600 c 2,3,-1
 200 600 l 2,4,5
 221 600 221 600 235.5 614.5 c 128,-1,6
 250 629 250 629 250 650 c 256,7,8
 250 671 250 671 235.5 685.5 c 128,-1,9
 221 700 221 700 200 700 c 2,10,-1
 150 700 l 1,11,-1
 150 750 l 1,12,-1
 200 750 l 2,13,14
 221 750 221 750 235.5 764.5 c 128,-1,15
 250 779 250 779 250 800 c 256,16,17
 250 821 250 821 235.5 835.5 c 128,-1,18
 221 850 221 850 200 850 c 2,19,-1
 150 850 l 2,20,21
 129 850 129 850 114.5 835.5 c 128,-1,22
 100 821 100 821 100 800 c 1,23,-1
 50 800 l 1,24,25
 50 841 50 841 79.5 870.5 c 128,-1,26
 109 900 109 900 150 900 c 2,27,-1
 200 900 l 2,28,29
 241 900 241 900 270.5 870.5 c 128,-1,30
 300 841 300 841 300 800 c 0,31,32
 300 755 300 755 258 725 c 1,33,34
 300 695 300 695 300 650 c 0,35,36
 300 609 300 609 270.5 579.5 c 128,-1,37
 241 550 241 550 200 550 c 2,38,-1
 150 550 l 2,39,40
 109 550 109 550 79.5 579.5 c 128,-1,41
 50 609 50 609 50 650 c 1,42,-1
 100 650 l 1,0,1
600 653 m 1,43,-1
 35 88 l 1,44,-1
 0 123 l 1,45,-1
 565 688 l 1,46,-1
 600 653 l 1,43,-1
466 350 m 1,47,-1
 500 350 l 1,48,-1
 500 150 l 1,49,-1
 550 150 l 1,50,-1
 550 100 l 1,51,-1
 500 100 l 1,52,-1
 500 50 l 1,53,-1
 550 50 l 1,54,-1
 550 0 l 1,55,-1
 400 0 l 1,56,-1
 400 50 l 1,57,-1
 450 50 l 1,58,-1
 450 100 l 1,59,-1
 300 100 l 1,60,-1
 300 184 l 1,61,-1
 466 350 l 1,47,-1
350 166 m 1,62,-1
 350 150 l 1,63,-1
 450 150 l 1,64,-1
 450 266 l 1,65,-1
 350 166 l 1,62,-1
EndSplineSet
EndChar

StartChar: questiondown
Encoding: 191 191 129
Width: 600
Flags: W
LayerCount: 2
Fore
SplineSet
300 650 m 256,0,1
 300 629 300 629 285.5 614.5 c 128,-1,2
 271 600 271 600 250 600 c 256,3,4
 229 600 229 600 214.5 614.5 c 128,-1,5
 200 629 200 629 200 650 c 256,6,7
 200 671 200 671 214.5 685.5 c 128,-1,8
 229 700 229 700 250 700 c 256,9,10
 271 700 271 700 285.5 685.5 c 128,-1,11
 300 671 300 671 300 650 c 256,0,1
500 200 m 1,12,13
 500 118 500 118 441 59 c 128,-1,14
 382 0 382 0 300 0 c 2,15,-1
 200 0 l 2,16,17
 118 0 118 0 59 58.5 c 128,-1,18
 0 117 0 117 0 200 c 0,19,20
 0 250 0 250 22 292 c 1,21,-1
 231 500 l 1,22,-1
 300 500 l 1,23,-1
 300 431 l 1,24,-1
 107 237 l 1,25,26
 100 222 100 222 100 200 c 0,27,28
 100 159 100 159 129.5 129.5 c 128,-1,29
 159 100 159 100 200 100 c 2,30,-1
 300 100 l 2,31,32
 341 100 341 100 370.5 129.5 c 128,-1,33
 400 159 400 159 400 200 c 1,34,-1
 500 200 l 1,12,13
EndSplineSet
EndChar

StartChar: Agrave
Encoding: 192 192 130
Width: 600
Flags: W
LayerCount: 2
Fore
SplineSet
213 700 m 1,0,-1
 81 831 l 1,1,-1
 150 900 l 1,2,-1
 312 738 l 1,3,-1
 275 700 l 1,4,-1
 213 700 l 1,0,-1
500 0 m 1,5,-1
 400 0 l 1,6,-1
 400 200 l 1,7,-1
 100 200 l 1,8,-1
 100 0 l 1,9,-1
 0 0 l 1,10,-1
 0 500 l 2,11,12
 0 582 0 582 59 641 c 128,-1,13
 118 700 118 700 200 700 c 2,14,-1
 300 700 l 2,15,16
 382 700 382 700 441 641 c 128,-1,17
 500 582 500 582 500 500 c 2,18,-1
 500 0 l 1,5,-1
400 300 m 1,19,-1
 400 500 l 2,20,21
 400 541 400 541 370.5 570.5 c 128,-1,22
 341 600 341 600 300 600 c 2,23,-1
 200 600 l 2,24,25
 159 600 159 600 129.5 570.5 c 128,-1,26
 100 541 100 541 100 500 c 2,27,-1
 100 300 l 1,28,-1
 400 300 l 1,19,-1
EndSplineSet
EndChar

StartChar: Aacute
Encoding: 193 193 131
Width: 600
Flags: W
LayerCount: 2
Fore
SplineSet
288 700 m 1,0,-1
 225 700 l 1,1,-1
 188 738 l 1,2,-1
 350 900 l 1,3,-1
 419 831 l 1,4,-1
 288 700 l 1,0,-1
500 0 m 1,5,-1
 400 0 l 1,6,-1
 400 200 l 1,7,-1
 100 200 l 1,8,-1
 100 0 l 1,9,-1
 0 0 l 1,10,-1
 0 500 l 2,11,12
 0 582 0 582 59 641 c 128,-1,13
 118 700 118 700 200 700 c 2,14,-1
 300 700 l 2,15,16
 382 700 382 700 441 641 c 128,-1,17
 500 582 500 582 500 500 c 2,18,-1
 500 0 l 1,5,-1
400 300 m 1,19,-1
 400 500 l 2,20,21
 400 541 400 541 370.5 570.5 c 128,-1,22
 341 600 341 600 300 600 c 2,23,-1
 200 600 l 2,24,25
 159 600 159 600 129.5 570.5 c 128,-1,26
 100 541 100 541 100 500 c 2,27,-1
 100 300 l 1,28,-1
 400 300 l 1,19,-1
EndSplineSet
EndChar

StartChar: Acircumflex
Encoding: 194 194 132
Width: 600
Flags: W
LayerCount: 2
Fore
SplineSet
250 800 m 1,0,-1
 95 721 l 1,1,-1
 50 800 l 1,2,-1
 250 900 l 1,3,-1
 450 800 l 1,4,-1
 407 721 l 1,5,-1
 250 800 l 1,0,-1
500 0 m 1,6,-1
 400 0 l 1,7,-1
 400 200 l 1,8,-1
 100 200 l 1,9,-1
 100 0 l 1,10,-1
 0 0 l 1,11,-1
 0 500 l 2,12,13
 0 582 0 582 59 641 c 128,-1,14
 118 700 118 700 200 700 c 2,15,-1
 300 700 l 2,16,17
 382 700 382 700 441 641 c 128,-1,18
 500 582 500 582 500 500 c 2,19,-1
 500 0 l 1,6,-1
400 300 m 1,20,-1
 400 500 l 2,21,22
 400 541 400 541 370.5 570.5 c 128,-1,23
 341 600 341 600 300 600 c 2,24,-1
 200 600 l 2,25,26
 159 600 159 600 129.5 570.5 c 128,-1,27
 100 541 100 541 100 500 c 2,28,-1
 100 300 l 1,29,-1
 400 300 l 1,20,-1
EndSplineSet
EndChar

StartChar: Atilde
Encoding: 195 195 133
Width: 600
Flags: W
LayerCount: 2
Fore
SplineSet
500 850 m 2,0,1
 500 788 500 788 456 744 c 128,-1,2
 412 700 412 700 350 700 c 256,3,4
 288 700 288 700 250 738 c 0,5,6
 188 800 188 800 150 800 c 0,7,8
 129 800 129 800 114.5 785.5 c 128,-1,9
 100 771 100 771 100 750 c 2,10,-1
 100 700 l 1,11,-1
 0 700 l 1,12,-1
 0 750 l 2,13,14
 0 812 0 812 44 856 c 128,-1,15
 88 900 88 900 150 900 c 0,16,17
 213 900 213 900 250 863 c 0,18,19
 313 800 313 800 350 800 c 0,20,21
 371 800 371 800 385.5 814.5 c 128,-1,22
 400 829 400 829 400 850 c 2,23,-1
 400 900 l 1,24,-1
 500 900 l 1,25,-1
 500 850 l 2,0,1
500 0 m 1,26,-1
 400 0 l 1,27,-1
 400 200 l 1,28,-1
 100 200 l 1,29,-1
 100 0 l 1,30,-1
 0 0 l 1,31,-1
 0 500 l 2,32,33
 0 582 0 582 59 641 c 128,-1,34
 118 700 118 700 200 700 c 2,35,-1
 300 700 l 2,36,37
 382 700 382 700 441 641 c 128,-1,38
 500 582 500 582 500 500 c 2,39,-1
 500 0 l 1,26,-1
400 300 m 1,40,-1
 400 500 l 2,41,42
 400 541 400 541 370.5 570.5 c 128,-1,43
 341 600 341 600 300 600 c 2,44,-1
 200 600 l 2,45,46
 159 600 159 600 129.5 570.5 c 128,-1,47
 100 541 100 541 100 500 c 2,48,-1
 100 300 l 1,49,-1
 400 300 l 1,40,-1
EndSplineSet
EndChar

StartChar: Adieresis
Encoding: 196 196 134
Width: 600
Flags: W
LayerCount: 2
Fore
SplineSet
400 850 m 256,0,1
 400 829 400 829 385.5 814.5 c 128,-1,2
 371 800 371 800 350 800 c 256,3,4
 329 800 329 800 314.5 814.5 c 128,-1,5
 300 829 300 829 300 850 c 256,6,7
 300 871 300 871 314.5 885.5 c 128,-1,8
 329 900 329 900 350 900 c 256,9,10
 371 900 371 900 385.5 885.5 c 128,-1,11
 400 871 400 871 400 850 c 256,0,1
200 850 m 256,12,13
 200 829 200 829 185.5 814.5 c 128,-1,14
 171 800 171 800 150 800 c 256,15,16
 129 800 129 800 114.5 814.5 c 128,-1,17
 100 829 100 829 100 850 c 256,18,19
 100 871 100 871 114.5 885.5 c 128,-1,20
 129 900 129 900 150 900 c 256,21,22
 171 900 171 900 185.5 885.5 c 128,-1,23
 200 871 200 871 200 850 c 256,12,13
500 0 m 1,24,-1
 400 0 l 1,25,-1
 400 200 l 1,26,-1
 100 200 l 1,27,-1
 100 0 l 1,28,-1
 0 0 l 1,29,-1
 0 500 l 2,30,31
 0 582 0 582 59 641 c 128,-1,32
 118 700 118 700 200 700 c 2,33,-1
 300 700 l 2,34,35
 382 700 382 700 441 641 c 128,-1,36
 500 582 500 582 500 500 c 2,37,-1
 500 0 l 1,24,-1
400 300 m 1,38,-1
 400 500 l 2,39,40
 400 541 400 541 370.5 570.5 c 128,-1,41
 341 600 341 600 300 600 c 2,42,-1
 200 600 l 2,43,44
 159 600 159 600 129.5 570.5 c 128,-1,45
 100 541 100 541 100 500 c 2,46,-1
 100 300 l 1,47,-1
 400 300 l 1,38,-1
EndSplineSet
EndChar

StartChar: Aring
Encoding: 197 197 135
Width: 600
Flags: W
LayerCount: 2
Fore
SplineSet
116 681 m 1,0,1
 101 696 101 696 100 750 c 0,2,3
 100 812 100 812 144 856 c 128,-1,4
 188 900 188 900 250 900 c 256,5,6
 312 900 312 900 356 856 c 128,-1,7
 400 812 400 812 400 750 c 1,8,9
 394 687 394 687 385 681 c 1,10,11
 349 704 349 704 250 700 c 1,12,13
 145 704 145 704 116 681 c 1,0,1
200 750 m 256,14,15
 200 729 200 729 214.5 714.5 c 128,-1,16
 229 700 229 700 250 700 c 256,17,18
 271 700 271 700 285.5 714.5 c 128,-1,19
 300 729 300 729 300 750 c 256,20,21
 300 771 300 771 285.5 785.5 c 128,-1,22
 271 800 271 800 250 800 c 256,23,24
 229 800 229 800 214.5 785.5 c 128,-1,25
 200 771 200 771 200 750 c 256,14,15
500 0 m 1,26,-1
 400 0 l 1,27,-1
 400 200 l 1,28,-1
 100 200 l 1,29,-1
 100 0 l 1,30,-1
 0 0 l 1,31,-1
 0 500 l 2,32,33
 0 582 0 582 59 641 c 128,-1,34
 118 700 118 700 200 700 c 2,35,-1
 300 700 l 2,36,37
 382 700 382 700 441 641 c 128,-1,38
 500 582 500 582 500 500 c 2,39,-1
 500 0 l 1,26,-1
400 300 m 1,40,-1
 400 500 l 2,41,42
 400 541 400 541 370.5 570.5 c 128,-1,43
 341 600 341 600 300 600 c 2,44,-1
 200 600 l 2,45,46
 159 600 159 600 129.5 570.5 c 128,-1,47
 100 541 100 541 100 500 c 2,48,-1
 100 300 l 1,49,-1
 400 300 l 1,40,-1
EndSplineSet
EndChar

StartChar: AE
Encoding: 198 198 136
Width: 600
Flags: W
LayerCount: 2
Fore
SplineSet
500 0 m 1,0,-1
 200 0 l 1,1,-1
 200 300 l 1,2,-1
 100 300 l 1,3,-1
 100 0 l 1,4,-1
 0 0 l 1,5,-1
 0 500 l 2,6,7
 0 583 0 583 59 641.5 c 128,-1,8
 118 700 118 700 200 700 c 2,9,-1
 500 700 l 1,10,-1
 500 600 l 1,11,-1
 300 600 l 1,12,-1
 300 400 l 1,13,-1
 400 400 l 1,14,-1
 400 300 l 1,15,-1
 300 300 l 1,16,-1
 300 100 l 1,17,-1
 500 100 l 1,18,-1
 500 0 l 1,0,-1
200 400 m 1,19,-1
 200 600 l 1,20,21
 159 600 159 600 129.5 570.5 c 128,-1,22
 100 541 100 541 100 500 c 2,23,-1
 100 400 l 1,24,-1
 200 400 l 1,19,-1
EndSplineSet
EndChar

StartChar: Ccedilla
Encoding: 199 199 137
Width: 600
Flags: W
LayerCount: 2
Fore
SplineSet
500 200 m 1,0,1
 500 117 500 117 441.5 58.5 c 128,-1,2
 383 0 383 0 300 0 c 2,3,-1
 281 0 l 1,4,-1
 319 -36 l 1,5,-1
 156 -199 l 1,6,-1
 87 -130 l 1,7,-1
 219 0 l 1,8,-1
 200 0 l 2,9,10
 117 0 117 0 58.5 59 c 128,-1,11
 0 118 0 118 0 200 c 2,12,-1
 0 500 l 2,13,14
 0 582 0 582 59 641 c 128,-1,15
 118 700 118 700 200 700 c 2,16,-1
 300 700 l 2,17,18
 382 700 382 700 441 641 c 128,-1,19
 500 582 500 582 500 500 c 1,20,-1
 400 500 l 1,21,22
 400 541 400 541 370.5 570.5 c 128,-1,23
 341 600 341 600 300 600 c 2,24,-1
 200 600 l 2,25,26
 159 600 159 600 129.5 570.5 c 128,-1,27
 100 541 100 541 100 500 c 2,28,-1
 100 200 l 2,29,30
 100 159 100 159 129.5 129.5 c 128,-1,31
 159 100 159 100 200 100 c 2,32,-1
 300 100 l 2,33,34
 341 100 341 100 370.5 129.5 c 128,-1,35
 400 159 400 159 400 200 c 1,36,-1
 500 200 l 1,0,1
281 0 m 1,37,-1
 219 0 l 1,38,-1
 281 0 l 1,37,-1
EndSplineSet
EndChar

StartChar: Egrave
Encoding: 200 200 138
Width: 600
Flags: W
LayerCount: 2
Fore
SplineSet
275 700 m 1,0,-1
 500 700 l 1,1,-1
 500 600 l 1,2,-1
 100 600 l 1,3,-1
 100 400 l 1,4,-1
 400 400 l 1,5,-1
 400 300 l 1,6,-1
 100 300 l 1,7,-1
 100 100 l 1,8,-1
 500 100 l 1,9,-1
 500 0 l 1,10,-1
 0 0 l 1,11,-1
 0 700 l 1,12,-1
 213 700 l 1,13,-1
 81 831 l 1,14,-1
 150 900 l 1,15,-1
 313 738 l 1,16,-1
 275 700 l 1,0,-1
EndSplineSet
EndChar

StartChar: Eacute
Encoding: 201 201 139
Width: 600
Flags: W
LayerCount: 2
Fore
SplineSet
294 700 m 1,0,-1
 500 700 l 1,1,-1
 500 600 l 1,2,-1
 100 600 l 1,3,-1
 100 400 l 1,4,-1
 400 400 l 1,5,-1
 400 300 l 1,6,-1
 100 300 l 1,7,-1
 100 100 l 1,8,-1
 500 100 l 1,9,-1
 500 0 l 1,10,-1
 0 0 l 1,11,-1
 0 700 l 1,12,-1
 219 700 l 1,13,-1
 188 731 l 1,14,-1
 350 894 l 1,15,-1
 419 825 l 1,16,-1
 294 700 l 1,0,-1
EndSplineSet
EndChar

StartChar: Ecircumflex
Encoding: 202 202 140
Width: 600
Flags: W
LayerCount: 2
Fore
SplineSet
500 0 m 1,0,-1
 0 0 l 1,1,-1
 0 700 l 1,2,-1
 125 700 l 1,3,-1
 87 737 l 1,4,-1
 250 900 l 1,5,-1
 412 737 l 1,6,-1
 375 700 l 1,7,-1
 500 700 l 1,8,-1
 500 600 l 1,9,-1
 100 600 l 1,10,-1
 100 400 l 1,11,-1
 400 400 l 1,12,-1
 400 300 l 1,13,-1
 100 300 l 1,14,-1
 100 100 l 1,15,-1
 500 100 l 1,16,-1
 500 0 l 1,0,-1
313 700 m 1,17,-1
 250 762 l 1,18,-1
 187 700 l 1,19,-1
 313 700 l 1,17,-1
EndSplineSet
EndChar

StartChar: Edieresis
Encoding: 203 203 141
Width: 600
Flags: W
LayerCount: 2
Fore
SplineSet
400 850 m 256,0,1
 400 829 400 829 385.5 814.5 c 128,-1,2
 371 800 371 800 350 800 c 256,3,4
 329 800 329 800 314.5 814.5 c 128,-1,5
 300 829 300 829 300 850 c 256,6,7
 300 871 300 871 314.5 885.5 c 128,-1,8
 329 900 329 900 350 900 c 256,9,10
 371 900 371 900 385.5 885.5 c 128,-1,11
 400 871 400 871 400 850 c 256,0,1
200 850 m 256,12,13
 200 829 200 829 185.5 814.5 c 128,-1,14
 171 800 171 800 150 800 c 256,15,16
 129 800 129 800 114.5 814.5 c 128,-1,17
 100 829 100 829 100 850 c 256,18,19
 100 871 100 871 114.5 885.5 c 128,-1,20
 129 900 129 900 150 900 c 256,21,22
 171 900 171 900 185.5 885.5 c 128,-1,23
 200 871 200 871 200 850 c 256,12,13
500 0 m 1,24,-1
 0 0 l 1,25,-1
 0 700 l 1,26,-1
 500 700 l 1,27,-1
 500 600 l 1,28,-1
 100 600 l 1,29,-1
 100 400 l 1,30,-1
 400 400 l 1,31,-1
 400 300 l 1,32,-1
 100 300 l 1,33,-1
 100 100 l 1,34,-1
 500 100 l 1,35,-1
 500 0 l 1,24,-1
EndSplineSet
EndChar

StartChar: Igrave
Encoding: 204 204 142
Width: 600
Flags: W
LayerCount: 2
Fore
SplineSet
213 700 m 1,0,-1
 81 831 l 1,1,-1
 150 900 l 1,2,-1
 313 738 l 1,3,-1
 275 700 l 1,4,-1
 500 700 l 1,5,-1
 500 600 l 1,6,-1
 300 600 l 1,7,-1
 300 100 l 1,8,-1
 500 100 l 1,9,-1
 500 0 l 1,10,-1
 0 0 l 1,11,-1
 0 100 l 1,12,-1
 200 100 l 1,13,-1
 200 600 l 1,14,-1
 0 600 l 1,15,-1
 0 700 l 1,16,-1
 213 700 l 1,0,-1
EndSplineSet
EndChar

StartChar: Iacute
Encoding: 205 205 143
Width: 600
Flags: W
LayerCount: 2
Fore
SplineSet
288 700 m 1,0,-1
 500 700 l 1,1,-1
 500 600 l 1,2,-1
 300 600 l 1,3,-1
 300 100 l 1,4,-1
 500 100 l 1,5,-1
 500 0 l 1,6,-1
 0 0 l 1,7,-1
 0 100 l 1,8,-1
 200 100 l 1,9,-1
 200 600 l 1,10,-1
 0 600 l 1,11,-1
 0 700 l 1,12,-1
 225 700 l 1,13,-1
 188 738 l 1,14,-1
 350 900 l 1,15,-1
 419 831 l 1,16,-1
 288 700 l 1,0,-1
EndSplineSet
EndChar

StartChar: Icircumflex
Encoding: 206 206 144
Width: 600
Flags: W
LayerCount: 2
Fore
SplineSet
500 0 m 1,0,-1
 0 0 l 1,1,-1
 0 100 l 1,2,-1
 200 100 l 1,3,-1
 200 600 l 1,4,-1
 0 600 l 1,5,-1
 0 700 l 1,6,-1
 124 700 l 1,7,8
 115 710 115 710 87 737 c 1,9,-1
 250 900 l 1,10,-1
 412 737 l 1,11,-1
 375 700 l 1,12,-1
 500 700 l 1,13,-1
 500 600 l 1,14,-1
 300 600 l 1,15,-1
 300 100 l 1,16,-1
 500 100 l 1,17,-1
 500 0 l 1,0,-1
312 700 m 1,18,19
 296 717 296 717 250 762 c 1,20,-1
 187 700 l 1,21,-1
 312 700 l 1,18,19
EndSplineSet
EndChar

StartChar: Idieresis
Encoding: 207 207 145
Width: 600
Flags: W
LayerCount: 2
Fore
SplineSet
400 850 m 256,0,1
 400 829 400 829 385.5 814.5 c 128,-1,2
 371 800 371 800 350 800 c 256,3,4
 329 800 329 800 314.5 814.5 c 128,-1,5
 300 829 300 829 300 850 c 256,6,7
 300 871 300 871 314.5 885.5 c 128,-1,8
 329 900 329 900 350 900 c 256,9,10
 371 900 371 900 385.5 885.5 c 128,-1,11
 400 871 400 871 400 850 c 256,0,1
200 850 m 256,12,13
 200 829 200 829 185.5 814.5 c 128,-1,14
 171 800 171 800 150 800 c 256,15,16
 129 800 129 800 114.5 814.5 c 128,-1,17
 100 829 100 829 100 850 c 256,18,19
 100 871 100 871 114.5 885.5 c 128,-1,20
 129 900 129 900 150 900 c 256,21,22
 171 900 171 900 185.5 885.5 c 128,-1,23
 200 871 200 871 200 850 c 256,12,13
500 0 m 1,24,-1
 0 0 l 1,25,-1
 0 100 l 1,26,-1
 200 100 l 1,27,-1
 200 600 l 1,28,-1
 0 600 l 1,29,-1
 0 700 l 1,30,-1
 500 700 l 1,31,-1
 500 600 l 1,32,-1
 300 600 l 1,33,-1
 300 100 l 1,34,-1
 500 100 l 1,35,-1
 500 0 l 1,24,-1
EndSplineSet
EndChar

StartChar: Eth
Encoding: 208 208 146
Width: 600
Flags: W
LayerCount: 2
Fore
SplineSet
500 200 m 2,0,1
 500 118 500 118 441 59 c 128,-1,2
 382 0 382 0 300 0 c 2,3,-1
 100 0 l 1,4,-1
 100 300 l 1,5,-1
 0 300 l 1,6,-1
 0 400 l 1,7,-1
 100 400 l 1,8,-1
 100 700 l 1,9,-1
 300 700 l 2,10,11
 382 700 382 700 441 641 c 128,-1,12
 500 582 500 582 500 500 c 2,13,-1
 500 200 l 2,0,1
400 200 m 2,14,-1
 400 500 l 2,15,16
 400 541 400 541 370.5 570.5 c 128,-1,17
 341 600 341 600 300 600 c 2,18,-1
 200 600 l 1,19,-1
 200 400 l 1,20,-1
 300 400 l 1,21,-1
 300 300 l 1,22,-1
 200 300 l 1,23,-1
 200 100 l 1,24,-1
 300 100 l 2,25,26
 341 100 341 100 370.5 129.5 c 128,-1,27
 400 159 400 159 400 200 c 2,14,-1
EndSplineSet
EndChar

StartChar: Ntilde
Encoding: 209 209 147
Width: 600
Flags: W
LayerCount: 2
Fore
SplineSet
500 860 m 2,0,1
 500 798 500 798 456 754 c 128,-1,2
 412 710 412 710 350 710 c 256,3,4
 288 710 288 710 250 748 c 0,5,6
 188 810 188 810 150 810 c 0,7,8
 129 810 129 810 114.5 795.5 c 128,-1,9
 100 781 100 781 100 760 c 2,10,-1
 100 710 l 1,11,-1
 0 710 l 1,12,-1
 0 760 l 2,13,14
 0 822 0 822 44 866 c 128,-1,15
 88 910 88 910 150 910 c 0,16,17
 213 910 213 910 250 873 c 0,18,19
 313 810 313 810 350 810 c 0,20,21
 371 810 371 810 385.5 824.5 c 128,-1,22
 400 839 400 839 400 860 c 2,23,-1
 400 910 l 1,24,-1
 500 910 l 1,25,-1
 500 860 l 2,0,1
500 10 m 1,26,-1
 400 10 l 1,27,-1
 400 241 l 1,28,-1
 100 541 l 1,29,-1
 100 10 l 1,30,-1
 0 10 l 1,31,-1
 0 705 l 1,32,-1
 69 705 l 1,33,-1
 400 379 l 1,34,-1
 400 705 l 1,35,-1
 500 705 l 1,36,-1
 500 10 l 1,26,-1
EndSplineSet
EndChar

StartChar: Ograve
Encoding: 210 210 148
Width: 600
Flags: W
LayerCount: 2
Fore
SplineSet
275 700 m 1,0,-1
 300 700 l 2,1,2
 383 700 383 700 441.5 641.5 c 128,-1,3
 500 583 500 583 500 500 c 2,4,-1
 500 200 l 2,5,6
 500 117 500 117 441.5 58.5 c 128,-1,7
 383 0 383 0 300 0 c 2,8,-1
 200 0 l 2,9,10
 117 0 117 0 58.5 58.5 c 128,-1,11
 0 117 0 117 0 200 c 2,12,-1
 0 500 l 2,13,14
 0 583 0 583 58.5 641.5 c 128,-1,15
 117 700 117 700 200 700 c 2,16,-1
 213 700 l 1,17,-1
 81 831 l 1,18,-1
 150 900 l 1,19,-1
 313 738 l 1,20,-1
 275 700 l 1,0,-1
300 600 m 2,21,-1
 200 600 l 2,22,23
 159 600 159 600 129.5 570.5 c 128,-1,24
 100 541 100 541 100 500 c 2,25,-1
 100 200 l 2,26,27
 100 159 100 159 129.5 129.5 c 128,-1,28
 159 100 159 100 200 100 c 2,29,-1
 300 100 l 2,30,31
 341 100 341 100 370.5 129.5 c 128,-1,32
 400 159 400 159 400 200 c 2,33,-1
 400 500 l 2,34,35
 400 541 400 541 370.5 570.5 c 128,-1,36
 341 600 341 600 300 600 c 2,21,-1
EndSplineSet
EndChar

StartChar: Oacute
Encoding: 211 211 149
Width: 600
Flags: W
LayerCount: 2
Fore
SplineSet
188 738 m 1,0,-1
 350 900 l 1,1,-1
 419 831 l 1,2,-1
 288 700 l 1,3,-1
 300 700 l 2,4,5
 383 700 383 700 441.5 641.5 c 128,-1,6
 500 583 500 583 500 500 c 2,7,-1
 500 200 l 2,8,9
 500 117 500 117 441.5 58.5 c 128,-1,10
 383 0 383 0 300 0 c 2,11,-1
 200 0 l 2,12,13
 117 0 117 0 58.5 58.5 c 128,-1,14
 0 117 0 117 0 200 c 2,15,-1
 0 500 l 2,16,17
 0 583 0 583 58.5 641.5 c 128,-1,18
 117 700 117 700 200 700 c 2,19,-1
 225 700 l 1,20,-1
 188 738 l 1,0,-1
300 600 m 2,21,-1
 200 600 l 2,22,23
 159 600 159 600 129.5 570.5 c 128,-1,24
 100 541 100 541 100 500 c 2,25,-1
 100 200 l 2,26,27
 100 159 100 159 129.5 129.5 c 128,-1,28
 159 100 159 100 200 100 c 2,29,-1
 300 100 l 2,30,31
 341 100 341 100 370.5 129.5 c 128,-1,32
 400 159 400 159 400 200 c 2,33,-1
 400 500 l 2,34,35
 400 541 400 541 370.5 570.5 c 128,-1,36
 341 600 341 600 300 600 c 2,21,-1
EndSplineSet
EndChar

StartChar: Ocircumflex
Encoding: 212 212 150
Width: 600
Flags: W
LayerCount: 2
Fore
SplineSet
500 200 m 2,0,1
 500 118 500 118 441 59 c 128,-1,2
 382 0 382 0 300 0 c 2,3,-1
 200 0 l 2,4,5
 118 0 118 0 59 59 c 128,-1,6
 0 118 0 118 0 200 c 2,7,-1
 0 500 l 2,8,9
 0 564 0 564 38 616 c 128,-1,10
 76 668 76 668 135 689 c 1,11,-1
 87 737 l 1,12,-1
 250 900 l 1,13,-1
 412 737 l 1,14,-1
 364 689 l 1,15,16
 424 669 424 669 462 617 c 128,-1,17
 500 565 500 565 500 500 c 2,18,-1
 500 200 l 2,0,1
313 700 m 1,19,-1
 250 762 l 1,20,-1
 187 700 l 1,21,-1
 313 700 l 1,19,-1
400 200 m 2,22,-1
 400 500 l 2,23,24
 400 541 400 541 370.5 570.5 c 128,-1,25
 341 600 341 600 300 600 c 2,26,-1
 200 600 l 2,27,28
 159 600 159 600 129.5 570.5 c 128,-1,29
 100 541 100 541 100 500 c 2,30,-1
 100 200 l 2,31,32
 100 159 100 159 129.5 129.5 c 128,-1,33
 159 100 159 100 200 100 c 2,34,-1
 300 100 l 2,35,36
 341 100 341 100 370.5 129.5 c 128,-1,37
 400 159 400 159 400 200 c 2,22,-1
EndSplineSet
EndChar

StartChar: Otilde
Encoding: 213 213 151
Width: 600
Flags: W
LayerCount: 2
Fore
SplineSet
500 850 m 2,0,1
 500 788 500 788 456 744 c 128,-1,2
 412 700 412 700 350 700 c 256,3,4
 288 700 288 700 250 738 c 0,5,6
 188 800 188 800 150 800 c 0,7,8
 129 800 129 800 114.5 785.5 c 128,-1,9
 100 771 100 771 100 750 c 2,10,-1
 100 700 l 1,11,-1
 0 700 l 1,12,-1
 0 750 l 2,13,14
 0 812 0 812 44 856 c 128,-1,15
 88 900 88 900 150 900 c 0,16,17
 213 900 213 900 250 863 c 0,18,19
 313 800 313 800 350 800 c 0,20,21
 371 800 371 800 385.5 814.5 c 128,-1,22
 400 829 400 829 400 850 c 2,23,-1
 400 900 l 1,24,-1
 500 900 l 1,25,-1
 500 850 l 2,0,1
500 200 m 2,26,27
 500 118 500 118 441 59 c 128,-1,28
 382 0 382 0 300 0 c 2,29,-1
 200 0 l 2,30,31
 118 0 118 0 59 59 c 128,-1,32
 0 118 0 118 0 200 c 2,33,-1
 0 500 l 2,34,35
 0 582 0 582 59 641 c 128,-1,36
 118 700 118 700 200 700 c 2,37,-1
 300 700 l 2,38,39
 382 700 382 700 441 641 c 128,-1,40
 500 582 500 582 500 500 c 2,41,-1
 500 200 l 2,26,27
400 200 m 2,42,-1
 400 500 l 2,43,44
 400 541 400 541 370.5 570.5 c 128,-1,45
 341 600 341 600 300 600 c 2,46,-1
 200 600 l 2,47,48
 159 600 159 600 129.5 570.5 c 128,-1,49
 100 541 100 541 100 500 c 2,50,-1
 100 200 l 2,51,52
 100 159 100 159 129.5 129.5 c 128,-1,53
 159 100 159 100 200 100 c 2,54,-1
 300 100 l 2,55,56
 341 100 341 100 370.5 129.5 c 128,-1,57
 400 159 400 159 400 200 c 2,42,-1
EndSplineSet
EndChar

StartChar: Odieresis
Encoding: 214 214 152
Width: 600
Flags: W
LayerCount: 2
Fore
SplineSet
400 850 m 256,0,1
 400 829 400 829 385.5 814.5 c 128,-1,2
 371 800 371 800 350 800 c 256,3,4
 329 800 329 800 314.5 814.5 c 128,-1,5
 300 829 300 829 300 850 c 256,6,7
 300 871 300 871 314.5 885.5 c 128,-1,8
 329 900 329 900 350 900 c 256,9,10
 371 900 371 900 385.5 885.5 c 128,-1,11
 400 871 400 871 400 850 c 256,0,1
200 850 m 256,12,13
 200 829 200 829 185.5 814.5 c 128,-1,14
 171 800 171 800 150 800 c 256,15,16
 129 800 129 800 114.5 814.5 c 128,-1,17
 100 829 100 829 100 850 c 256,18,19
 100 871 100 871 114.5 885.5 c 128,-1,20
 129 900 129 900 150 900 c 256,21,22
 171 900 171 900 185.5 885.5 c 128,-1,23
 200 871 200 871 200 850 c 256,12,13
500 200 m 2,24,25
 500 118 500 118 441 59 c 128,-1,26
 382 0 382 0 300 0 c 2,27,-1
 200 0 l 2,28,29
 118 0 118 0 59 59 c 128,-1,30
 0 118 0 118 0 200 c 2,31,-1
 0 500 l 2,32,33
 0 582 0 582 59 641 c 128,-1,34
 118 700 118 700 200 700 c 2,35,-1
 300 700 l 2,36,37
 382 700 382 700 441 641 c 128,-1,38
 500 582 500 582 500 500 c 2,39,-1
 500 200 l 2,24,25
400 200 m 2,40,-1
 400 500 l 2,41,42
 400 541 400 541 370.5 570.5 c 128,-1,43
 341 600 341 600 300 600 c 2,44,-1
 200 600 l 2,45,46
 159 600 159 600 129.5 570.5 c 128,-1,47
 100 541 100 541 100 500 c 2,48,-1
 100 200 l 2,49,50
 100 159 100 159 129.5 129.5 c 128,-1,51
 159 100 159 100 200 100 c 2,52,-1
 300 100 l 2,53,54
 341 100 341 100 370.5 129.5 c 128,-1,55
 400 159 400 159 400 200 c 2,40,-1
EndSplineSet
EndChar

StartChar: multiply
Encoding: 215 215 153
Width: 600
Flags: W
LayerCount: 2
Fore
SplineSet
497 173 m 1,0,-1
 427 103 l 1,1,-1
 250 280 l 1,2,-1
 73 103 l 1,3,-1
 3 173 l 1,4,-1
 180 350 l 1,5,-1
 3 527 l 1,6,-1
 73 597 l 1,7,-1
 250 420 l 1,8,-1
 427 597 l 1,9,-1
 497 527 l 1,10,-1
 320 350 l 1,11,-1
 497 173 l 1,0,-1
EndSplineSet
EndChar

StartChar: Oslash
Encoding: 216 216 154
Width: 600
Flags: W
LayerCount: 2
Fore
SplineSet
500 200 m 2,0,1
 500 118 500 118 441 59 c 128,-1,2
 382 0 382 0 300 0 c 2,3,-1
 200 0 l 2,4,5
 118 0 118 0 59 59 c 128,-1,6
 0 118 0 118 0 200 c 2,7,-1
 0 500 l 2,8,9
 0 582 0 582 59 641 c 128,-1,10
 118 700 118 700 200 700 c 2,11,-1
 300 700 l 2,12,13
 382 700 382 700 441 641 c 128,-1,14
 500 582 500 582 500 500 c 2,15,-1
 500 200 l 2,0,1
385 554 m 1,16,17
 355 600 355 600 300 600 c 2,18,-1
 200 600 l 2,19,20
 159 600 159 600 129.5 570.5 c 128,-1,21
 100 541 100 541 100 500 c 2,22,-1
 100 269 l 1,23,-1
 385 554 l 1,16,17
400 200 m 2,24,-1
 400 429 l 1,25,-1
 117 146 l 1,26,27
 147 100 147 100 200 100 c 2,28,-1
 300 100 l 2,29,30
 341 100 341 100 370.5 129.5 c 128,-1,31
 400 159 400 159 400 200 c 2,24,-1
EndSplineSet
EndChar

StartChar: Ugrave
Encoding: 217 217 155
Width: 600
Flags: W
LayerCount: 2
Fore
SplineSet
312 737 m 1,0,-1
 244 669 l 1,1,-1
 81 831 l 1,2,-1
 150 900 l 1,3,-1
 312 737 l 1,0,-1
500 200 m 2,4,5
 500 117 500 117 441 58.5 c 128,-1,6
 382 0 382 0 300 0 c 2,7,-1
 200 0 l 2,8,9
 118 0 118 0 59 58.5 c 128,-1,10
 0 117 0 117 0 200 c 2,11,-1
 0 700 l 1,12,-1
 100 700 l 1,13,-1
 100 200 l 2,14,15
 100 159 100 159 129.5 129.5 c 128,-1,16
 159 100 159 100 200 100 c 2,17,-1
 300 100 l 2,18,19
 341 100 341 100 370.5 129.5 c 128,-1,20
 400 159 400 159 400 200 c 2,21,-1
 400 700 l 1,22,-1
 500 700 l 1,23,-1
 500 200 l 2,4,5
EndSplineSet
EndChar

StartChar: Uacute
Encoding: 218 218 156
Width: 600
Flags: W
LayerCount: 2
Fore
SplineSet
419 831 m 1,0,-1
 256 669 l 1,1,-1
 187 737 l 1,2,-1
 350 900 l 1,3,-1
 419 831 l 1,0,-1
500 200 m 2,4,5
 500 117 500 117 441 58.5 c 128,-1,6
 382 0 382 0 300 0 c 2,7,-1
 200 0 l 2,8,9
 118 0 118 0 59 58.5 c 128,-1,10
 0 117 0 117 0 200 c 2,11,-1
 0 700 l 1,12,-1
 100 700 l 1,13,-1
 100 200 l 2,14,15
 100 159 100 159 129.5 129.5 c 128,-1,16
 159 100 159 100 200 100 c 2,17,-1
 300 100 l 2,18,19
 341 100 341 100 370.5 129.5 c 128,-1,20
 400 159 400 159 400 200 c 2,21,-1
 400 700 l 1,22,-1
 500 700 l 1,23,-1
 500 200 l 2,4,5
EndSplineSet
EndChar

StartChar: Ucircumflex
Encoding: 219 219 157
Width: 600
Flags: W
LayerCount: 2
Fore
SplineSet
412 737 m 1,0,-1
 344 669 l 1,1,-1
 250 762 l 1,2,-1
 156 669 l 1,3,-1
 87 737 l 1,4,-1
 250 900 l 1,5,-1
 412 737 l 1,0,-1
500 200 m 2,6,7
 500 117 500 117 441 58.5 c 128,-1,8
 382 0 382 0 300 0 c 2,9,-1
 200 0 l 2,10,11
 118 0 118 0 59 58.5 c 128,-1,12
 0 117 0 117 0 200 c 2,13,-1
 0 700 l 1,14,-1
 100 700 l 1,15,-1
 100 200 l 2,16,17
 100 159 100 159 129.5 129.5 c 128,-1,18
 159 100 159 100 200 100 c 2,19,-1
 300 100 l 2,20,21
 341 100 341 100 370.5 129.5 c 128,-1,22
 400 159 400 159 400 200 c 2,23,-1
 400 700 l 1,24,-1
 500 700 l 1,25,-1
 500 200 l 2,6,7
EndSplineSet
EndChar

StartChar: Udieresis
Encoding: 220 220 158
Width: 600
Flags: W
LayerCount: 2
Fore
SplineSet
400 850 m 256,0,1
 400 829 400 829 385.5 814.5 c 128,-1,2
 371 800 371 800 350 800 c 256,3,4
 329 800 329 800 314.5 814.5 c 128,-1,5
 300 829 300 829 300 850 c 256,6,7
 300 871 300 871 314.5 885.5 c 128,-1,8
 329 900 329 900 350 900 c 256,9,10
 371 900 371 900 385.5 885.5 c 128,-1,11
 400 871 400 871 400 850 c 256,0,1
200 850 m 256,12,13
 200 829 200 829 185.5 814.5 c 128,-1,14
 171 800 171 800 150 800 c 256,15,16
 129 800 129 800 114.5 814.5 c 128,-1,17
 100 829 100 829 100 850 c 256,18,19
 100 871 100 871 114.5 885.5 c 128,-1,20
 129 900 129 900 150 900 c 256,21,22
 171 900 171 900 185.5 885.5 c 128,-1,23
 200 871 200 871 200 850 c 256,12,13
500 200 m 2,24,25
 500 117 500 117 441 58.5 c 128,-1,26
 382 0 382 0 300 0 c 2,27,-1
 200 0 l 2,28,29
 118 0 118 0 59 58.5 c 128,-1,30
 0 117 0 117 0 200 c 2,31,-1
 0 700 l 1,32,-1
 100 700 l 1,33,-1
 100 200 l 2,34,35
 100 159 100 159 129.5 129.5 c 128,-1,36
 159 100 159 100 200 100 c 2,37,-1
 300 100 l 2,38,39
 341 100 341 100 370.5 129.5 c 128,-1,40
 400 159 400 159 400 200 c 2,41,-1
 400 700 l 1,42,-1
 500 700 l 1,43,-1
 500 200 l 2,24,25
EndSplineSet
EndChar

StartChar: Yacute
Encoding: 221 221 159
Width: 600
Flags: W
LayerCount: 2
Fore
SplineSet
419 831 m 1,0,-1
 256 669 l 1,1,-1
 187 737 l 1,2,-1
 350 900 l 1,3,-1
 419 831 l 1,0,-1
500 431 m 1,4,-1
 300 231 l 1,5,-1
 300 0 l 1,6,-1
 200 0 l 1,7,-1
 200 231 l 1,8,-1
 0 431 l 1,9,-1
 0 700 l 1,10,-1
 100 700 l 1,11,-1
 100 469 l 1,12,-1
 250 319 l 1,13,-1
 400 469 l 1,14,-1
 400 700 l 1,15,-1
 500 700 l 1,16,-1
 500 431 l 1,4,-1
EndSplineSet
EndChar

StartChar: Thorn
Encoding: 222 222 160
Width: 600
Flags: W
LayerCount: 2
Fore
SplineSet
500 400 m 0,0,1
 500 318 500 318 441 259 c 128,-1,2
 382 200 382 200 300 200 c 2,3,-1
 100 200 l 1,4,-1
 100 0 l 1,5,-1
 0 0 l 1,6,-1
 0 700 l 1,7,-1
 100 700 l 1,8,-1
 100 600 l 1,9,-1
 300 600 l 2,10,11
 383 600 383 600 441.5 541.5 c 128,-1,12
 500 483 500 483 500 400 c 0,0,1
400 400 m 256,13,14
 400 441 400 441 370.5 470.5 c 128,-1,15
 341 500 341 500 300 500 c 2,16,-1
 100 500 l 1,17,-1
 100 300 l 1,18,-1
 300 300 l 2,19,20
 341 300 341 300 370.5 329.5 c 128,-1,21
 400 359 400 359 400 400 c 256,13,14
EndSplineSet
EndChar

StartChar: germandbls
Encoding: 223 223 161
Width: 600
Flags: W
LayerCount: 2
Fore
SplineSet
500 200 m 0,0,1
 500 117 500 117 441 58.5 c 128,-1,2
 382 0 382 0 300 0 c 2,3,-1
 200 0 l 1,4,-1
 200 100 l 1,5,-1
 300 100 l 2,6,7
 341 100 341 100 370.5 129.5 c 128,-1,8
 400 159 400 159 400 200 c 0,9,10
 400 259 400 259 350 288.5 c 128,-1,11
 300 318 300 318 300 375 c 2,12,-1
 300 425 l 2,13,14
 300 466 300 466 326 492 c 0,15,16
 350 513 350 513 374 534 c 0,17,18
 400 560 400 560 400 600 c 0,19,20
 400 641 400 641 370.5 670.5 c 128,-1,21
 341 700 341 700 300 700 c 0,22,23
 277 700 277 700 261 692 c 1,24,-1
 128 560 l 2,25,26
 100 532 100 532 100 491 c 2,27,-1
 100 -99 l 1,28,-1
 0 -99 l 1,29,-1
 0 506 l 2,30,31
 0 569 0 569 41 610 c 2,32,-1
 231 800 l 1,33,-1
 300 800 l 2,34,35
 383 800 383 800 441.5 741.5 c 128,-1,36
 500 683 500 683 500 600 c 0,37,38
 500 500 500 500 420 440 c 0,39,40
 400 425 400 425 400 400 c 0,41,42
 400 376 400 376 418 362 c 0,43,44
 500 298 500 298 500 200 c 0,0,1
EndSplineSet
EndChar

StartChar: agrave
Encoding: 224 224 162
Width: 600
Flags: W
LayerCount: 2
Fore
SplineSet
412 656 m 1,0,-1
 344 588 l 1,1,-1
 181 750 l 1,2,-1
 250 819 l 1,3,-1
 412 656 l 1,0,-1
500 0 m 1,4,-1
 150 0 l 2,5,6
 0 0 0 0 0 150 c 256,7,8
 0 300 0 300 150 300 c 2,9,-1
 400 300 l 1,10,11
 400 340 400 340 370 370 c 256,12,13
 340 400 340 400 300 400 c 2,14,-1
 50 400 l 1,15,-1
 50 500 l 1,16,-1
 300 500 l 2,17,18
 383 499 383 499 441 441 c 256,19,20
 499 383 499 383 500 300 c 2,21,-1
 500 0 l 1,4,-1
400 200 m 1,22,-1
 100 200 l 1,23,-1
 100 100 l 1,24,-1
 400 100 l 1,25,-1
 400 200 l 1,22,-1
EndSplineSet
EndChar

StartChar: aacute
Encoding: 225 225 163
Width: 600
Flags: W
LayerCount: 2
Fore
SplineSet
419 750 m 1,0,-1
 256 588 l 1,1,-1
 187 656 l 1,2,-1
 350 819 l 1,3,-1
 419 750 l 1,0,-1
500 0 m 1,4,-1
 150 0 l 2,5,6
 0 0 0 0 0 150 c 256,7,8
 0 300 0 300 150 300 c 2,9,-1
 400 300 l 1,10,11
 400 340 400 340 370 370 c 256,12,13
 340 400 340 400 300 400 c 2,14,-1
 50 400 l 1,15,-1
 50 500 l 1,16,-1
 300 500 l 2,17,18
 383 499 383 499 441 441 c 256,19,20
 499 383 499 383 500 300 c 2,21,-1
 500 0 l 1,4,-1
400 200 m 1,22,-1
 100 200 l 1,23,-1
 100 100 l 1,24,-1
 400 100 l 1,25,-1
 400 200 l 1,22,-1
EndSplineSet
EndChar

StartChar: acircumflex
Encoding: 226 226 164
Width: 600
Flags: W
LayerCount: 2
Fore
SplineSet
412 656 m 1,0,-1
 344 588 l 1,1,-1
 250 681 l 1,2,-1
 156 588 l 1,3,-1
 87 656 l 1,4,-1
 250 819 l 1,5,-1
 412 656 l 1,0,-1
500 0 m 1,6,-1
 150 0 l 2,7,8
 0 0 0 0 0 150 c 256,9,10
 0 300 0 300 150 300 c 2,11,-1
 400 300 l 1,12,13
 400 340 400 340 370 370 c 256,14,15
 340 400 340 400 300 400 c 2,16,-1
 50 400 l 1,17,-1
 50 500 l 1,18,-1
 300 500 l 2,19,20
 383 499 383 499 441 441 c 256,21,22
 499 383 499 383 500 300 c 2,23,-1
 500 0 l 1,6,-1
400 200 m 1,24,-1
 100 200 l 1,25,-1
 100 100 l 1,26,-1
 400 100 l 1,27,-1
 400 200 l 1,24,-1
EndSplineSet
EndChar

StartChar: atilde
Encoding: 227 227 165
Width: 600
Flags: W
LayerCount: 2
Fore
SplineSet
500 750 m 2,0,1
 500 688 500 688 456 644 c 128,-1,2
 412 600 412 600 350 600 c 256,3,4
 288 600 288 600 250 638 c 0,5,6
 188 700 188 700 150 700 c 0,7,8
 129 700 129 700 114.5 685.5 c 128,-1,9
 100 671 100 671 100 650 c 2,10,-1
 100 600 l 1,11,-1
 0 600 l 1,12,-1
 0 650 l 2,13,14
 0 712 0 712 44 756 c 128,-1,15
 88 800 88 800 150 800 c 0,16,17
 213 800 213 800 250 763 c 0,18,19
 313 700 313 700 350 700 c 0,20,21
 371 700 371 700 385.5 714.5 c 128,-1,22
 400 729 400 729 400 750 c 2,23,-1
 400 800 l 1,24,-1
 500 800 l 1,25,-1
 500 750 l 2,0,1
500 0 m 1,26,-1
 150 0 l 2,27,28
 0 0 0 0 0 150 c 256,29,30
 0 300 0 300 150 300 c 2,31,-1
 400 300 l 1,32,33
 400 340 400 340 370 370 c 256,34,35
 340 400 340 400 300 400 c 2,36,-1
 50 400 l 1,37,-1
 50 500 l 1,38,-1
 300 500 l 2,39,40
 383 499 383 499 441 441 c 256,41,42
 499 383 499 383 500 300 c 2,43,-1
 500 0 l 1,26,-1
400 200 m 1,44,-1
 100 200 l 1,45,-1
 100 100 l 1,46,-1
 400 100 l 1,47,-1
 400 200 l 1,44,-1
EndSplineSet
EndChar

StartChar: adieresis
Encoding: 228 228 166
Width: 600
Flags: W
LayerCount: 2
Fore
SplineSet
400 650 m 256,0,1
 400 629 400 629 385.5 614.5 c 128,-1,2
 371 600 371 600 350 600 c 256,3,4
 329 600 329 600 314.5 614.5 c 128,-1,5
 300 629 300 629 300 650 c 256,6,7
 300 671 300 671 314.5 685.5 c 128,-1,8
 329 700 329 700 350 700 c 256,9,10
 371 700 371 700 385.5 685.5 c 128,-1,11
 400 671 400 671 400 650 c 256,0,1
200 650 m 256,12,13
 200 629 200 629 185.5 614.5 c 128,-1,14
 171 600 171 600 150 600 c 256,15,16
 129 600 129 600 114.5 614.5 c 128,-1,17
 100 629 100 629 100 650 c 256,18,19
 100 671 100 671 114.5 685.5 c 128,-1,20
 129 700 129 700 150 700 c 256,21,22
 171 700 171 700 185.5 685.5 c 128,-1,23
 200 671 200 671 200 650 c 256,12,13
500 0 m 1,24,-1
 150 0 l 2,25,26
 0 0 0 0 0 150 c 256,27,28
 0 300 0 300 150 300 c 2,29,-1
 400 300 l 1,30,31
 400 340 400 340 370 370 c 256,32,33
 340 400 340 400 300 400 c 2,34,-1
 50 400 l 1,35,-1
 50 500 l 1,36,-1
 300 500 l 2,37,38
 383 499 383 499 441 441 c 256,39,40
 499 383 499 383 500 300 c 2,41,-1
 500 0 l 1,24,-1
400 200 m 1,42,-1
 100 200 l 1,43,-1
 100 100 l 1,44,-1
 400 100 l 1,45,-1
 400 200 l 1,42,-1
EndSplineSet
EndChar

StartChar: aring
Encoding: 229 229 167
Width: 600
Flags: W
LayerCount: 2
Fore
SplineSet
250 500 m 256,0,1
 188 500 188 500 144 544 c 128,-1,2
 100 588 100 588 100 650 c 256,3,4
 100 712 100 712 144 756 c 128,-1,5
 188 800 188 800 250 800 c 256,6,7
 312 800 312 800 356 756 c 128,-1,8
 400 712 400 712 400 650 c 256,9,10
 400 588 400 588 356 544 c 128,-1,11
 312 500 312 500 250 500 c 256,0,1
200 650 m 256,12,13
 200 629 200 629 214.5 614.5 c 128,-1,14
 229 600 229 600 250 600 c 256,15,16
 271 600 271 600 285.5 614.5 c 128,-1,17
 300 629 300 629 300 650 c 256,18,19
 300 671 300 671 285.5 685.5 c 128,-1,20
 271 700 271 700 250 700 c 256,21,22
 229 700 229 700 214.5 685.5 c 128,-1,23
 200 671 200 671 200 650 c 256,12,13
500 0 m 1,24,-1
 150 0 l 2,25,26
 0 0 0 0 0 150 c 256,27,28
 0 300 0 300 150 300 c 2,29,-1
 400 300 l 1,30,31
 400 340 400 340 370 370 c 256,32,33
 340 400 340 400 300 400 c 2,34,-1
 50 400 l 1,35,-1
 50 500 l 1,36,-1
 300 500 l 2,37,38
 383 499 383 499 441 441 c 256,39,40
 499 383 499 383 500 300 c 2,41,-1
 500 0 l 1,24,-1
400 200 m 1,42,-1
 100 200 l 1,43,-1
 100 100 l 1,44,-1
 400 100 l 1,45,-1
 400 200 l 1,42,-1
EndSplineSet
EndChar

StartChar: ae
Encoding: 230 230 168
Width: 600
Flags: W
LayerCount: 2
Fore
SplineSet
500 0 m 1,0,-1
 200 0 l 2,1,2
 118 0 118 0 59 59 c 128,-1,3
 0 118 0 118 0 200 c 2,4,-1
 0 300 l 2,5,6
 0 382 0 382 59 441 c 128,-1,7
 118 500 118 500 200 500 c 2,8,-1
 300 500 l 2,9,10
 382 500 382 500 441 441 c 128,-1,11
 500 382 500 382 500 300 c 2,12,-1
 500 200 l 1,13,-1
 300 200 l 1,14,-1
 300 100 l 1,15,-1
 500 100 l 1,16,-1
 500 0 l 1,0,-1
400 300 m 1,17,18
 400 341 400 341 370.5 370.5 c 128,-1,19
 341 400 341 400 300 400 c 1,20,-1
 300 300 l 1,21,-1
 400 300 l 1,17,18
200 100 m 1,22,-1
 200 400 l 1,23,24
 159 400 159 400 129.5 370.5 c 128,-1,25
 100 341 100 341 100 300 c 2,26,-1
 100 200 l 2,27,28
 100 159 100 159 129.5 129.5 c 128,-1,29
 159 100 159 100 200 100 c 1,22,-1
EndSplineSet
EndChar

StartChar: ccedilla
Encoding: 231 231 169
Width: 600
Flags: W
LayerCount: 2
Fore
SplineSet
500 0 m 1,0,-1
 281 0 l 1,1,-1
 319 -36 l 1,2,-1
 156 -199 l 1,3,-1
 87 -130 l 1,4,-1
 219 0 l 1,5,-1
 200 0 l 2,6,7
 117 0 117 0 58.5 59 c 128,-1,8
 0 118 0 118 0 200 c 2,9,-1
 0 300 l 2,10,11
 0 382 0 382 59 441 c 128,-1,12
 118 500 118 500 200 500 c 2,13,-1
 300 500 l 2,14,15
 382 500 382 500 441 441 c 128,-1,16
 500 382 500 382 500 300 c 1,17,-1
 400 300 l 1,18,19
 400 341 400 341 370.5 370.5 c 128,-1,20
 341 400 341 400 300 400 c 2,21,-1
 200 400 l 2,22,23
 159 400 159 400 129.5 370.5 c 128,-1,24
 100 341 100 341 100 300 c 2,25,-1
 100 200 l 2,26,27
 100 159 100 159 129.5 129.5 c 128,-1,28
 159 100 159 100 200 100 c 2,29,-1
 500 100 l 1,30,-1
 500 0 l 1,0,-1
281 0 m 1,31,-1
 219 0 l 1,32,-1
 281 0 l 1,31,-1
EndSplineSet
EndChar

StartChar: egrave
Encoding: 232 232 170
Width: 600
Flags: W
LayerCount: 2
Fore
SplineSet
312 656 m 1,0,-1
 244 588 l 1,1,-1
 81 750 l 1,2,-1
 150 819 l 1,3,-1
 312 656 l 1,0,-1
450 0 m 1,4,-1
 200 0 l 2,5,6
 118 0 118 0 59 59 c 128,-1,7
 0 118 0 118 0 200 c 2,8,-1
 0 300 l 2,9,10
 0 382 0 382 59 441 c 128,-1,11
 118 500 118 500 200 500 c 2,12,-1
 300 500 l 2,13,14
 382 500 382 500 441 441 c 128,-1,15
 500 382 500 382 500 300 c 2,16,-1
 500 200 l 1,17,-1
 100 200 l 1,18,19
 100 159 100 159 129.5 129.5 c 128,-1,20
 159 100 159 100 200 100 c 2,21,-1
 450 100 l 1,22,-1
 450 0 l 1,4,-1
400 300 m 1,23,24
 400 341 400 341 370.5 370.5 c 128,-1,25
 341 400 341 400 300 400 c 2,26,-1
 200 400 l 2,27,28
 159 400 159 400 129.5 370.5 c 128,-1,29
 100 341 100 341 100 300 c 1,30,-1
 400 300 l 1,23,24
EndSplineSet
EndChar

StartChar: eacute
Encoding: 233 233 171
Width: 600
Flags: W
LayerCount: 2
Fore
SplineSet
419 750 m 1,0,-1
 256 588 l 1,1,-1
 187 656 l 1,2,-1
 350 819 l 1,3,-1
 419 750 l 1,0,-1
450 0 m 1,4,-1
 200 0 l 2,5,6
 118 0 118 0 59 59 c 128,-1,7
 0 118 0 118 0 200 c 2,8,-1
 0 300 l 2,9,10
 0 382 0 382 59 441 c 128,-1,11
 118 500 118 500 200 500 c 2,12,-1
 300 500 l 2,13,14
 382 500 382 500 441 441 c 128,-1,15
 500 382 500 382 500 300 c 2,16,-1
 500 200 l 1,17,-1
 100 200 l 1,18,19
 100 159 100 159 129.5 129.5 c 128,-1,20
 159 100 159 100 200 100 c 2,21,-1
 450 100 l 1,22,-1
 450 0 l 1,4,-1
400 300 m 1,23,24
 400 341 400 341 370.5 370.5 c 128,-1,25
 341 400 341 400 300 400 c 2,26,-1
 200 400 l 2,27,28
 159 400 159 400 129.5 370.5 c 128,-1,29
 100 341 100 341 100 300 c 1,30,-1
 400 300 l 1,23,24
EndSplineSet
EndChar

StartChar: ecircumflex
Encoding: 234 234 172
Width: 600
Flags: W
LayerCount: 2
Fore
SplineSet
412 656 m 1,0,-1
 344 588 l 1,1,-1
 250 681 l 1,2,-1
 156 588 l 1,3,-1
 87 656 l 1,4,-1
 250 819 l 1,5,-1
 412 656 l 1,0,-1
450 0 m 1,6,-1
 200 0 l 2,7,8
 118 0 118 0 59 59 c 128,-1,9
 0 118 0 118 0 200 c 2,10,-1
 0 300 l 2,11,12
 0 382 0 382 59 441 c 128,-1,13
 118 500 118 500 200 500 c 2,14,-1
 300 500 l 2,15,16
 382 500 382 500 441 441 c 128,-1,17
 500 382 500 382 500 300 c 2,18,-1
 500 200 l 1,19,-1
 100 200 l 1,20,21
 100 159 100 159 129.5 129.5 c 128,-1,22
 159 100 159 100 200 100 c 2,23,-1
 450 100 l 1,24,-1
 450 0 l 1,6,-1
400 300 m 1,25,26
 400 341 400 341 370.5 370.5 c 128,-1,27
 341 400 341 400 300 400 c 2,28,-1
 200 400 l 2,29,30
 159 400 159 400 129.5 370.5 c 128,-1,31
 100 341 100 341 100 300 c 1,32,-1
 400 300 l 1,25,26
EndSplineSet
EndChar

StartChar: edieresis
Encoding: 235 235 173
Width: 600
Flags: W
LayerCount: 2
Fore
SplineSet
400 650 m 256,0,1
 400 629 400 629 385.5 614.5 c 128,-1,2
 371 600 371 600 350 600 c 256,3,4
 329 600 329 600 314.5 614.5 c 128,-1,5
 300 629 300 629 300 650 c 256,6,7
 300 671 300 671 314.5 685.5 c 128,-1,8
 329 700 329 700 350 700 c 256,9,10
 371 700 371 700 385.5 685.5 c 128,-1,11
 400 671 400 671 400 650 c 256,0,1
200 650 m 256,12,13
 200 629 200 629 185.5 614.5 c 128,-1,14
 171 600 171 600 150 600 c 256,15,16
 129 600 129 600 114.5 614.5 c 128,-1,17
 100 629 100 629 100 650 c 256,18,19
 100 671 100 671 114.5 685.5 c 128,-1,20
 129 700 129 700 150 700 c 256,21,22
 171 700 171 700 185.5 685.5 c 128,-1,23
 200 671 200 671 200 650 c 256,12,13
450 0 m 1,24,-1
 200 0 l 2,25,26
 118 0 118 0 59 59 c 128,-1,27
 0 118 0 118 0 200 c 2,28,-1
 0 300 l 2,29,30
 0 382 0 382 59 441 c 128,-1,31
 118 500 118 500 200 500 c 2,32,-1
 300 500 l 2,33,34
 382 500 382 500 441 441 c 128,-1,35
 500 382 500 382 500 300 c 2,36,-1
 500 200 l 1,37,-1
 100 200 l 1,38,39
 100 159 100 159 129.5 129.5 c 128,-1,40
 159 100 159 100 200 100 c 2,41,-1
 450 100 l 1,42,-1
 450 0 l 1,24,-1
400 300 m 1,43,44
 400 341 400 341 370.5 370.5 c 128,-1,45
 341 400 341 400 300 400 c 2,46,-1
 200 400 l 2,47,48
 159 400 159 400 129.5 370.5 c 128,-1,49
 100 341 100 341 100 300 c 1,50,-1
 400 300 l 1,43,44
EndSplineSet
EndChar

StartChar: igrave
Encoding: 236 236 174
Width: 600
Flags: W
LayerCount: 2
Fore
SplineSet
312 656 m 1,0,-1
 244 588 l 1,1,-1
 81 750 l 1,2,-1
 150 819 l 1,3,-1
 312 656 l 1,0,-1
400 0 m 1,4,-1
 100 0 l 1,5,-1
 100 100 l 1,6,-1
 200 100 l 1,7,-1
 200 400 l 1,8,-1
 100 400 l 1,9,-1
 100 500 l 1,10,-1
 300 500 l 1,11,-1
 300 100 l 1,12,-1
 400 100 l 1,13,-1
 400 0 l 1,4,-1
EndSplineSet
EndChar

StartChar: iacute
Encoding: 237 237 175
Width: 600
Flags: W
LayerCount: 2
Fore
SplineSet
419 750 m 1,0,-1
 256 588 l 1,1,-1
 187 656 l 1,2,-1
 350 819 l 1,3,-1
 419 750 l 1,0,-1
400 0 m 1,4,-1
 100 0 l 1,5,-1
 100 100 l 1,6,-1
 200 100 l 1,7,-1
 200 400 l 1,8,-1
 100 400 l 1,9,-1
 100 500 l 1,10,-1
 300 500 l 1,11,-1
 300 100 l 1,12,-1
 400 100 l 1,13,-1
 400 0 l 1,4,-1
EndSplineSet
EndChar

StartChar: icircumflex
Encoding: 238 238 176
Width: 600
Flags: W
LayerCount: 2
Fore
SplineSet
412 656 m 1,0,-1
 344 588 l 1,1,-1
 250 681 l 1,2,-1
 156 588 l 1,3,-1
 87 656 l 1,4,-1
 250 819 l 1,5,-1
 412 656 l 1,0,-1
400 0 m 1,6,-1
 100 0 l 1,7,-1
 100 100 l 1,8,-1
 200 100 l 1,9,-1
 200 400 l 1,10,-1
 100 400 l 1,11,-1
 100 500 l 1,12,-1
 300 500 l 1,13,-1
 300 100 l 1,14,-1
 400 100 l 1,15,-1
 400 0 l 1,6,-1
EndSplineSet
EndChar

StartChar: idieresis
Encoding: 239 239 177
Width: 600
Flags: W
LayerCount: 2
Fore
SplineSet
400 650 m 256,0,1
 400 629 400 629 385.5 614.5 c 128,-1,2
 371 600 371 600 350 600 c 256,3,4
 329 600 329 600 314.5 614.5 c 128,-1,5
 300 629 300 629 300 650 c 256,6,7
 300 671 300 671 314.5 685.5 c 128,-1,8
 329 700 329 700 350 700 c 256,9,10
 371 700 371 700 385.5 685.5 c 128,-1,11
 400 671 400 671 400 650 c 256,0,1
200 650 m 256,12,13
 200 629 200 629 185.5 614.5 c 128,-1,14
 171 600 171 600 150 600 c 256,15,16
 129 600 129 600 114.5 614.5 c 128,-1,17
 100 629 100 629 100 650 c 256,18,19
 100 671 100 671 114.5 685.5 c 128,-1,20
 129 700 129 700 150 700 c 256,21,22
 171 700 171 700 185.5 685.5 c 128,-1,23
 200 671 200 671 200 650 c 256,12,13
400 0 m 1,24,-1
 100 0 l 1,25,-1
 100 100 l 1,26,-1
 200 100 l 1,27,-1
 200 400 l 1,28,-1
 100 400 l 1,29,-1
 100 500 l 1,30,-1
 300 500 l 1,31,-1
 300 100 l 1,32,-1
 400 100 l 1,33,-1
 400 0 l 1,24,-1
EndSplineSet
EndChar

StartChar: eth
Encoding: 240 240 178
Width: 600
Flags: W
LayerCount: 2
Fore
SplineSet
500 200 m 2,0,1
 500 117 500 117 441.5 58.5 c 128,-1,2
 383 0 383 0 300 0 c 2,3,-1
 200 0 l 2,4,5
 118 0 118 0 59 59 c 128,-1,6
 0 118 0 118 0 200 c 2,7,-1
 0 300 l 2,8,9
 0 382 0 382 59 441 c 128,-1,10
 118 500 118 500 200 500 c 2,11,-1
 300 500 l 2,12,13
 315 500 315 500 332 497 c 1,14,-1
 200 629 l 1,15,-1
 138 567 l 1,16,-1
 67 638 l 1,17,-1
 129 700 l 1,18,-1
 67 762 l 1,19,-1
 138 833 l 1,20,-1
 200 771 l 1,21,-1
 262 833 l 1,22,-1
 333 762 l 1,23,-1
 271 700 l 1,24,-1
 443 527 l 2,25,26
 500 470 500 470 500 388 c 2,27,-1
 500 200 l 2,0,1
400 200 m 2,28,-1
 400 300 l 2,29,30
 400 341 400 341 370.5 370.5 c 128,-1,31
 341 400 341 400 300 400 c 2,32,-1
 200 400 l 2,33,34
 159 400 159 400 129.5 370.5 c 128,-1,35
 100 341 100 341 100 300 c 2,36,-1
 100 200 l 2,37,38
 100 159 100 159 129.5 129.5 c 128,-1,39
 159 100 159 100 200 100 c 2,40,-1
 300 100 l 2,41,42
 341 100 341 100 370.5 129.5 c 128,-1,43
 400 159 400 159 400 200 c 2,28,-1
EndSplineSet
EndChar

StartChar: ntilde
Encoding: 241 241 179
Width: 600
Flags: W
LayerCount: 2
Fore
SplineSet
500 750 m 2,0,1
 500 688 500 688 456 644 c 128,-1,2
 412 600 412 600 350 600 c 256,3,4
 288 600 288 600 250 638 c 0,5,6
 188 700 188 700 150 700 c 0,7,8
 129 700 129 700 114.5 685.5 c 128,-1,9
 100 671 100 671 100 650 c 2,10,-1
 100 600 l 1,11,-1
 0 600 l 1,12,-1
 0 650 l 2,13,14
 0 712 0 712 44 756 c 128,-1,15
 88 800 88 800 150 800 c 0,16,17
 213 800 213 800 250 763 c 0,18,19
 313 700 313 700 350 700 c 0,20,21
 371 700 371 700 385.5 714.5 c 128,-1,22
 400 729 400 729 400 750 c 2,23,-1
 400 800 l 1,24,-1
 500 800 l 1,25,-1
 500 750 l 2,0,1
100 500 m 1,26,-1
 100 363 l 1,27,-1
 163 425 l 2,28,29
 238 500 238 500 300 500 c 0,30,31
 383 500 383 500 441.5 441.5 c 128,-1,32
 500 383 500 383 500 300 c 2,33,-1
 500 0 l 1,34,-1
 400 0 l 1,35,-1
 400 300 l 2,36,37
 400 341 400 341 370.5 370.5 c 128,-1,38
 341 400 341 400 300 400 c 0,39,40
 250 400 250 400 200 350 c 2,41,-1
 100 250 l 1,42,-1
 100 0 l 1,43,-1
 0 0 l 1,44,-1
 0 500 l 1,45,-1
 100 500 l 1,26,-1
EndSplineSet
EndChar

StartChar: ograve
Encoding: 242 242 180
Width: 600
Flags: W
LayerCount: 2
Fore
SplineSet
312 656 m 1,0,-1
 244 588 l 1,1,-1
 81 750 l 1,2,-1
 150 819 l 1,3,-1
 312 656 l 1,0,-1
500 200 m 2,4,5
 500 118 500 118 441 59 c 128,-1,6
 382 0 382 0 300 0 c 2,7,-1
 200 0 l 2,8,9
 118 0 118 0 59 59 c 128,-1,10
 0 118 0 118 0 200 c 2,11,-1
 0 300 l 2,12,13
 0 382 0 382 59 441 c 128,-1,14
 118 500 118 500 200 500 c 2,15,-1
 300 500 l 2,16,17
 382 500 382 500 441 441 c 128,-1,18
 500 382 500 382 500 300 c 2,19,-1
 500 200 l 2,4,5
400 200 m 2,20,-1
 400 300 l 2,21,22
 400 341 400 341 370.5 370.5 c 128,-1,23
 341 400 341 400 300 400 c 2,24,-1
 200 400 l 2,25,26
 159 400 159 400 129.5 370.5 c 128,-1,27
 100 341 100 341 100 300 c 2,28,-1
 100 200 l 2,29,30
 100 159 100 159 129.5 129.5 c 128,-1,31
 159 100 159 100 200 100 c 2,32,-1
 300 100 l 2,33,34
 341 100 341 100 370.5 129.5 c 128,-1,35
 400 159 400 159 400 200 c 2,20,-1
EndSplineSet
EndChar

StartChar: oacute
Encoding: 243 243 181
Width: 600
Flags: W
LayerCount: 2
Fore
SplineSet
419 750 m 1,0,-1
 256 588 l 1,1,-1
 187 656 l 1,2,-1
 350 819 l 1,3,-1
 419 750 l 1,0,-1
500 200 m 2,4,5
 500 118 500 118 441 59 c 128,-1,6
 382 0 382 0 300 0 c 2,7,-1
 200 0 l 2,8,9
 118 0 118 0 59 59 c 128,-1,10
 0 118 0 118 0 200 c 2,11,-1
 0 300 l 2,12,13
 0 382 0 382 59 441 c 128,-1,14
 118 500 118 500 200 500 c 2,15,-1
 300 500 l 2,16,17
 382 500 382 500 441 441 c 128,-1,18
 500 382 500 382 500 300 c 2,19,-1
 500 200 l 2,4,5
400 200 m 2,20,-1
 400 300 l 2,21,22
 400 341 400 341 370.5 370.5 c 128,-1,23
 341 400 341 400 300 400 c 2,24,-1
 200 400 l 2,25,26
 159 400 159 400 129.5 370.5 c 128,-1,27
 100 341 100 341 100 300 c 2,28,-1
 100 200 l 2,29,30
 100 159 100 159 129.5 129.5 c 128,-1,31
 159 100 159 100 200 100 c 2,32,-1
 300 100 l 2,33,34
 341 100 341 100 370.5 129.5 c 128,-1,35
 400 159 400 159 400 200 c 2,20,-1
EndSplineSet
EndChar

StartChar: ocircumflex
Encoding: 244 244 182
Width: 600
Flags: W
LayerCount: 2
Fore
SplineSet
412 656 m 1,0,-1
 344 588 l 1,1,-1
 250 681 l 1,2,-1
 156 588 l 1,3,-1
 87 656 l 1,4,-1
 250 819 l 1,5,-1
 412 656 l 1,0,-1
500 200 m 2,6,7
 500 118 500 118 441 59 c 128,-1,8
 382 0 382 0 300 0 c 2,9,-1
 200 0 l 2,10,11
 118 0 118 0 59 59 c 128,-1,12
 0 118 0 118 0 200 c 2,13,-1
 0 300 l 2,14,15
 0 382 0 382 59 441 c 128,-1,16
 118 500 118 500 200 500 c 2,17,-1
 300 500 l 2,18,19
 382 500 382 500 441 441 c 128,-1,20
 500 382 500 382 500 300 c 2,21,-1
 500 200 l 2,6,7
400 200 m 2,22,-1
 400 300 l 2,23,24
 400 341 400 341 370.5 370.5 c 128,-1,25
 341 400 341 400 300 400 c 2,26,-1
 200 400 l 2,27,28
 159 400 159 400 129.5 370.5 c 128,-1,29
 100 341 100 341 100 300 c 2,30,-1
 100 200 l 2,31,32
 100 159 100 159 129.5 129.5 c 128,-1,33
 159 100 159 100 200 100 c 2,34,-1
 300 100 l 2,35,36
 341 100 341 100 370.5 129.5 c 128,-1,37
 400 159 400 159 400 200 c 2,22,-1
EndSplineSet
EndChar

StartChar: otilde
Encoding: 245 245 183
Width: 600
Flags: W
LayerCount: 2
Fore
SplineSet
500 750 m 2,0,1
 500 688 500 688 456 644 c 128,-1,2
 412 600 412 600 350 600 c 256,3,4
 288 600 288 600 250 638 c 0,5,6
 188 700 188 700 150 700 c 0,7,8
 129 700 129 700 114.5 685.5 c 128,-1,9
 100 671 100 671 100 650 c 2,10,-1
 100 600 l 1,11,-1
 0 600 l 1,12,-1
 0 650 l 2,13,14
 0 712 0 712 44 756 c 128,-1,15
 88 800 88 800 150 800 c 0,16,17
 213 800 213 800 250 763 c 0,18,19
 313 700 313 700 350 700 c 0,20,21
 371 700 371 700 385.5 714.5 c 128,-1,22
 400 729 400 729 400 750 c 2,23,-1
 400 800 l 1,24,-1
 500 800 l 1,25,-1
 500 750 l 2,0,1
500 200 m 2,26,27
 500 118 500 118 441 59 c 128,-1,28
 382 0 382 0 300 0 c 2,29,-1
 200 0 l 2,30,31
 118 0 118 0 59 59 c 128,-1,32
 0 118 0 118 0 200 c 2,33,-1
 0 300 l 2,34,35
 0 382 0 382 59 441 c 128,-1,36
 118 500 118 500 200 500 c 2,37,-1
 300 500 l 2,38,39
 382 500 382 500 441 441 c 128,-1,40
 500 382 500 382 500 300 c 2,41,-1
 500 200 l 2,26,27
400 200 m 2,42,-1
 400 300 l 2,43,44
 400 341 400 341 370.5 370.5 c 128,-1,45
 341 400 341 400 300 400 c 2,46,-1
 200 400 l 2,47,48
 159 400 159 400 129.5 370.5 c 128,-1,49
 100 341 100 341 100 300 c 2,50,-1
 100 200 l 2,51,52
 100 159 100 159 129.5 129.5 c 128,-1,53
 159 100 159 100 200 100 c 2,54,-1
 300 100 l 2,55,56
 341 100 341 100 370.5 129.5 c 128,-1,57
 400 159 400 159 400 200 c 2,42,-1
EndSplineSet
EndChar

StartChar: odieresis
Encoding: 246 246 184
Width: 600
Flags: W
LayerCount: 2
Fore
SplineSet
400 650 m 256,0,1
 400 629 400 629 385.5 614.5 c 128,-1,2
 371 600 371 600 350 600 c 256,3,4
 329 600 329 600 314.5 614.5 c 128,-1,5
 300 629 300 629 300 650 c 256,6,7
 300 671 300 671 314.5 685.5 c 128,-1,8
 329 700 329 700 350 700 c 256,9,10
 371 700 371 700 385.5 685.5 c 128,-1,11
 400 671 400 671 400 650 c 256,0,1
200 650 m 256,12,13
 200 629 200 629 185.5 614.5 c 128,-1,14
 171 600 171 600 150 600 c 256,15,16
 129 600 129 600 114.5 614.5 c 128,-1,17
 100 629 100 629 100 650 c 256,18,19
 100 671 100 671 114.5 685.5 c 128,-1,20
 129 700 129 700 150 700 c 256,21,22
 171 700 171 700 185.5 685.5 c 128,-1,23
 200 671 200 671 200 650 c 256,12,13
500 200 m 2,24,25
 500 118 500 118 441 59 c 128,-1,26
 382 0 382 0 300 0 c 2,27,-1
 200 0 l 2,28,29
 118 0 118 0 59 59 c 128,-1,30
 0 118 0 118 0 200 c 2,31,-1
 0 300 l 2,32,33
 0 382 0 382 59 441 c 128,-1,34
 118 500 118 500 200 500 c 2,35,-1
 300 500 l 2,36,37
 382 500 382 500 441 441 c 128,-1,38
 500 382 500 382 500 300 c 2,39,-1
 500 200 l 2,24,25
400 200 m 2,40,-1
 400 300 l 2,41,42
 400 341 400 341 370.5 370.5 c 128,-1,43
 341 400 341 400 300 400 c 2,44,-1
 200 400 l 2,45,46
 159 400 159 400 129.5 370.5 c 128,-1,47
 100 341 100 341 100 300 c 2,48,-1
 100 200 l 2,49,50
 100 159 100 159 129.5 129.5 c 128,-1,51
 159 100 159 100 200 100 c 2,52,-1
 300 100 l 2,53,54
 341 100 341 100 370.5 129.5 c 128,-1,55
 400 159 400 159 400 200 c 2,40,-1
EndSplineSet
EndChar

StartChar: divide
Encoding: 247 247 185
Width: 600
Flags: W
LayerCount: 2
Fore
SplineSet
300 550 m 256,0,1
 300 529 300 529 285.5 514.5 c 128,-1,2
 271 500 271 500 250 500 c 256,3,4
 229 500 229 500 214.5 514.5 c 128,-1,5
 200 529 200 529 200 550 c 256,6,7
 200 571 200 571 214.5 585.5 c 128,-1,8
 229 600 229 600 250 600 c 256,9,10
 271 600 271 600 285.5 585.5 c 128,-1,11
 300 571 300 571 300 550 c 256,0,1
500 300 m 1,12,-1
 0 300 l 1,13,-1
 0 400 l 1,14,-1
 500 400 l 1,15,-1
 500 300 l 1,12,-1
300 150 m 256,16,17
 300 129 300 129 285.5 114.5 c 128,-1,18
 271 100 271 100 250 100 c 256,19,20
 229 100 229 100 214.5 114.5 c 128,-1,21
 200 129 200 129 200 150 c 256,22,23
 200 171 200 171 214.5 185.5 c 128,-1,24
 229 200 229 200 250 200 c 256,25,26
 271 200 271 200 285.5 185.5 c 128,-1,27
 300 171 300 171 300 150 c 256,16,17
EndSplineSet
EndChar

StartChar: oslash
Encoding: 248 248 186
Width: 600
Flags: W
LayerCount: 2
Fore
SplineSet
500 200 m 2,0,1
 500 118 500 118 441 59 c 128,-1,2
 382 0 382 0 300 0 c 2,3,-1
 200 0 l 2,4,5
 118 0 118 0 59 59 c 128,-1,6
 0 118 0 118 0 200 c 2,7,-1
 0 300 l 2,8,9
 0 382 0 382 59 441 c 128,-1,10
 118 500 118 500 200 500 c 2,11,-1
 300 500 l 2,12,13
 382 500 382 500 441 441 c 128,-1,14
 500 382 500 382 500 300 c 2,15,-1
 500 200 l 2,0,1
326 396 m 1,16,17
 310 400 310 400 300 400 c 2,18,-1
 200 400 l 2,19,20
 159 400 159 400 129.5 370.5 c 128,-1,21
 100 341 100 341 100 300 c 2,22,-1
 100 200 l 2,23,24
 100 196 100 196 105 176 c 1,25,-1
 326 396 l 1,16,17
400 200 m 2,26,-1
 400 300 l 2,27,28
 400 313 400 313 397 326 c 1,29,-1
 175 104 l 1,30,31
 191 100 191 100 200 100 c 2,32,-1
 300 100 l 2,33,34
 341 100 341 100 370.5 129.5 c 128,-1,35
 400 159 400 159 400 200 c 2,26,-1
EndSplineSet
EndChar

StartChar: ugrave
Encoding: 249 249 187
Width: 600
Flags: W
LayerCount: 2
Fore
SplineSet
312 656 m 1,0,-1
 244 588 l 1,1,-1
 81 750 l 1,2,-1
 150 819 l 1,3,-1
 312 656 l 1,0,-1
400 0 m 1,4,-1
 400 50 l 2,5,6
 400 0 400 0 300 0 c 0,7,8
 262 0 262 0 200 0 c 0,9,10
 117 0 117 0 58.5 58.5 c 128,-1,11
 0 117 0 117 0 200 c 2,12,-1
 0 500 l 1,13,-1
 100 500 l 1,14,-1
 100 200 l 2,15,16
 100 159 100 159 129.5 129.5 c 128,-1,17
 159 100 159 100 200 100 c 0,18,19
 250 100 250 100 300 100 c 0,20,21
 400 100 400 100 400 200 c 2,22,-1
 400 500 l 1,23,-1
 500 500 l 1,24,-1
 500 0 l 1,25,-1
 400 0 l 1,4,-1
EndSplineSet
EndChar

StartChar: uacute
Encoding: 250 250 188
Width: 600
Flags: W
LayerCount: 2
Fore
SplineSet
419 750 m 1,0,-1
 256 588 l 1,1,-1
 187 656 l 1,2,-1
 350 819 l 1,3,-1
 419 750 l 1,0,-1
400 0 m 1,4,-1
 400 50 l 2,5,6
 400 0 400 0 300 0 c 0,7,8
 262 0 262 0 200 0 c 0,9,10
 117 0 117 0 58.5 58.5 c 128,-1,11
 0 117 0 117 0 200 c 2,12,-1
 0 500 l 1,13,-1
 100 500 l 1,14,-1
 100 200 l 2,15,16
 100 159 100 159 129.5 129.5 c 128,-1,17
 159 100 159 100 200 100 c 0,18,19
 250 100 250 100 300 100 c 0,20,21
 400 100 400 100 400 200 c 2,22,-1
 400 500 l 1,23,-1
 500 500 l 1,24,-1
 500 0 l 1,25,-1
 400 0 l 1,4,-1
EndSplineSet
EndChar

StartChar: ucircumflex
Encoding: 251 251 189
Width: 600
Flags: W
LayerCount: 2
Fore
SplineSet
412 650 m 1,0,-1
 344 581 l 1,1,-1
 250 675 l 1,2,-1
 156 581 l 1,3,-1
 87 650 l 1,4,-1
 250 813 l 1,5,-1
 412 650 l 1,0,-1
400 0 m 1,6,-1
 400 50 l 2,7,8
 400 0 400 0 300 0 c 0,9,10
 262 0 262 0 200 0 c 0,11,12
 117 0 117 0 58.5 58.5 c 128,-1,13
 0 117 0 117 0 200 c 2,14,-1
 0 500 l 1,15,-1
 100 500 l 1,16,-1
 100 200 l 2,17,18
 100 159 100 159 129.5 129.5 c 128,-1,19
 159 100 159 100 200 100 c 0,20,21
 250 100 250 100 300 100 c 0,22,23
 400 100 400 100 400 200 c 2,24,-1
 400 500 l 1,25,-1
 500 500 l 1,26,-1
 500 0 l 1,27,-1
 400 0 l 1,6,-1
EndSplineSet
EndChar

StartChar: udieresis
Encoding: 252 252 190
Width: 600
Flags: W
LayerCount: 2
Fore
SplineSet
400 650 m 256,0,1
 400 629 400 629 385.5 614.5 c 128,-1,2
 371 600 371 600 350 600 c 256,3,4
 329 600 329 600 314.5 614.5 c 128,-1,5
 300 629 300 629 300 650 c 256,6,7
 300 671 300 671 314.5 685.5 c 128,-1,8
 329 700 329 700 350 700 c 256,9,10
 371 700 371 700 385.5 685.5 c 128,-1,11
 400 671 400 671 400 650 c 256,0,1
200 650 m 256,12,13
 200 629 200 629 185.5 614.5 c 128,-1,14
 171 600 171 600 150 600 c 256,15,16
 129 600 129 600 114.5 614.5 c 128,-1,17
 100 629 100 629 100 650 c 256,18,19
 100 671 100 671 114.5 685.5 c 128,-1,20
 129 700 129 700 150 700 c 256,21,22
 171 700 171 700 185.5 685.5 c 128,-1,23
 200 671 200 671 200 650 c 256,12,13
400 0 m 1,24,-1
 400 50 l 2,25,26
 400 0 400 0 300 0 c 0,27,28
 262 0 262 0 200 0 c 0,29,30
 117 0 117 0 58.5 58.5 c 128,-1,31
 0 117 0 117 0 200 c 2,32,-1
 0 500 l 1,33,-1
 100 500 l 1,34,-1
 100 200 l 2,35,36
 100 159 100 159 129.5 129.5 c 128,-1,37
 159 100 159 100 200 100 c 0,38,39
 250 100 250 100 300 100 c 0,40,41
 400 100 400 100 400 200 c 2,42,-1
 400 500 l 1,43,-1
 500 500 l 1,44,-1
 500 0 l 1,45,-1
 400 0 l 1,24,-1
EndSplineSet
EndChar

StartChar: yacute
Encoding: 253 253 191
Width: 600
Flags: W
LayerCount: 2
Fore
SplineSet
419 750 m 1,0,-1
 256 588 l 1,1,-1
 187 656 l 1,2,-1
 350 819 l 1,3,-1
 419 750 l 1,0,-1
500 0 m 2,4,5
 500 -82 500 -82 441 -140.5 c 128,-1,6
 382 -199 382 -199 300 -199 c 2,7,-1
 100 -199 l 1,8,-1
 100 -99 l 1,9,-1
 300 -99 l 2,10,11
 341 -99 341 -99 370.5 -69.5 c 128,-1,12
 400 -40 400 -40 400 0 c 1,13,-1
 200 0 l 2,14,15
 118 0 118 0 59 59 c 128,-1,16
 0 118 0 118 0 200 c 2,17,-1
 0 500 l 1,18,-1
 100 500 l 1,19,-1
 100 200 l 2,20,21
 100 159 100 159 129.5 129.5 c 128,-1,22
 159 100 159 100 200 100 c 2,23,-1
 400 100 l 1,24,-1
 400 500 l 1,25,-1
 500 500 l 1,26,-1
 500 0 l 2,4,5
EndSplineSet
EndChar

StartChar: thorn
Encoding: 254 254 192
Width: 600
Flags: W
LayerCount: 2
Fore
SplineSet
500 200 m 2,0,1
 500 118 500 118 441 59 c 128,-1,2
 382 0 382 0 300 0 c 2,3,-1
 100 0 l 1,4,-1
 100 -199 l 1,5,-1
 0 -199 l 1,6,-1
 0 700 l 1,7,-1
 100 700 l 1,8,-1
 100 500 l 1,9,-1
 300 500 l 2,10,11
 382 500 382 500 441 441 c 128,-1,12
 500 382 500 382 500 300 c 2,13,-1
 500 200 l 2,0,1
400 200 m 2,14,-1
 400 300 l 2,15,16
 400 341 400 341 370.5 370.5 c 128,-1,17
 341 400 341 400 300 400 c 2,18,-1
 100 400 l 1,19,-1
 100 100 l 1,20,-1
 300 100 l 2,21,22
 341 100 341 100 370.5 129.5 c 128,-1,23
 400 159 400 159 400 200 c 2,14,-1
EndSplineSet
EndChar

StartChar: ydieresis
Encoding: 255 255 193
Width: 600
Flags: W
LayerCount: 2
Fore
SplineSet
400 650 m 256,0,1
 400 629 400 629 385.5 614.5 c 128,-1,2
 371 600 371 600 350 600 c 256,3,4
 329 600 329 600 314.5 614.5 c 128,-1,5
 300 629 300 629 300 650 c 256,6,7
 300 671 300 671 314.5 685.5 c 128,-1,8
 329 700 329 700 350 700 c 256,9,10
 371 700 371 700 385.5 685.5 c 128,-1,11
 400 671 400 671 400 650 c 256,0,1
200 650 m 256,12,13
 200 629 200 629 185.5 614.5 c 128,-1,14
 171 600 171 600 150 600 c 256,15,16
 129 600 129 600 114.5 614.5 c 128,-1,17
 100 629 100 629 100 650 c 256,18,19
 100 671 100 671 114.5 685.5 c 128,-1,20
 129 700 129 700 150 700 c 256,21,22
 171 700 171 700 185.5 685.5 c 128,-1,23
 200 671 200 671 200 650 c 256,12,13
500 0 m 2,24,25
 500 -82 500 -82 441 -140.5 c 128,-1,26
 382 -199 382 -199 300 -199 c 2,27,-1
 100 -199 l 1,28,-1
 100 -99 l 1,29,-1
 300 -99 l 2,30,31
 341 -99 341 -99 370.5 -69.5 c 128,-1,32
 400 -40 400 -40 400 0 c 1,33,-1
 200 0 l 2,34,35
 118 0 118 0 59 59 c 128,-1,36
 0 118 0 118 0 200 c 2,37,-1
 0 500 l 1,38,-1
 100 500 l 1,39,-1
 100 200 l 2,40,41
 100 159 100 159 129.5 129.5 c 128,-1,42
 159 100 159 100 200 100 c 2,43,-1
 400 100 l 1,44,-1
 400 500 l 1,45,-1
 500 500 l 1,46,-1
 500 0 l 2,24,25
EndSplineSet
EndChar

StartChar: dotlessi
Encoding: 305 305 194
Width: 600
Flags: W
LayerCount: 2
Fore
SplineSet
400 0 m 1,0,-1
 100 0 l 1,1,-1
 100 100 l 1,2,-1
 200 100 l 1,3,-1
 200 400 l 1,4,-1
 100 400 l 1,5,-1
 100 500 l 1,6,-1
 300 500 l 1,7,-1
 300 100 l 1,8,-1
 400 100 l 1,9,-1
 400 0 l 1,0,-1
EndSplineSet
EndChar

StartChar: OE
Encoding: 338 338 195
Width: 600
Flags: W
LayerCount: 2
Fore
SplineSet
500 0 m 1,0,-1
 200 0 l 2,1,2
 118 0 118 0 59 59 c 128,-1,3
 0 118 0 118 0 200 c 2,4,-1
 0 500 l 2,5,6
 0 582 0 582 59 641 c 128,-1,7
 118 700 118 700 200 700 c 2,8,-1
 500 700 l 1,9,-1
 500 600 l 1,10,-1
 300 600 l 1,11,-1
 300 400 l 1,12,-1
 400 400 l 1,13,-1
 400 300 l 1,14,-1
 300 300 l 1,15,-1
 300 100 l 1,16,-1
 500 100 l 1,17,-1
 500 0 l 1,0,-1
200 100 m 1,18,-1
 200 600 l 1,19,20
 159 600 159 600 129.5 570.5 c 128,-1,21
 100 541 100 541 100 500 c 2,22,-1
 100 200 l 2,23,24
 100 159 100 159 129.5 129.5 c 128,-1,25
 159 100 159 100 200 100 c 1,18,-1
EndSplineSet
EndChar

StartChar: oe
Encoding: 339 339 196
Width: 600
Flags: W
LayerCount: 2
Fore
SplineSet
500 0 m 1,0,-1
 350 0 l 2,1,2
 295 0 295 0 252 40 c 1,3,4
 210 0 210 0 150 0 c 0,5,6
 88 0 88 0 44 44 c 128,-1,7
 0 88 0 88 0 150 c 2,8,-1
 0 350 l 2,9,10
 0 412 0 412 44 456 c 128,-1,11
 88 500 88 500 150 500 c 0,12,13
 209 500 209 500 253 459 c 1,14,15
 296 500 296 500 350 500 c 0,16,17
 412 500 412 500 456 456 c 128,-1,18
 500 412 500 412 500 350 c 2,19,-1
 500 200 l 1,20,-1
 350 200 l 2,21,22
 329 200 329 200 314.5 185.5 c 128,-1,23
 300 171 300 171 300 150 c 256,24,25
 300 129 300 129 314.5 114.5 c 128,-1,26
 329 100 329 100 350 100 c 2,27,-1
 500 100 l 1,28,-1
 500 0 l 1,0,-1
400 350 m 256,29,30
 400 371 400 371 385.5 385.5 c 128,-1,31
 371 400 371 400 350 400 c 256,32,33
 329 400 329 400 314.5 385.5 c 128,-1,34
 300 371 300 371 300 350 c 256,35,36
 300 329 300 329 314.5 314.5 c 128,-1,37
 329 300 329 300 350 300 c 256,38,39
 371 300 371 300 385.5 314.5 c 128,-1,40
 400 329 400 329 400 350 c 256,29,30
200 150 m 2,41,-1
 200 350 l 2,42,43
 200 371 200 371 185.5 385.5 c 128,-1,44
 171 400 171 400 150 400 c 256,45,46
 129 400 129 400 114.5 385.5 c 128,-1,47
 100 371 100 371 100 350 c 2,48,-1
 100 150 l 2,49,50
 100 129 100 129 114.5 114.5 c 128,-1,51
 129 100 129 100 150 100 c 256,52,53
 171 100 171 100 185.5 114.5 c 128,-1,54
 200 129 200 129 200 150 c 2,41,-1
EndSplineSet
EndChar

StartChar: Scaron
Encoding: 352 352 197
Width: 600
Flags: W
LayerCount: 2
Fore
SplineSet
200 700 m 2,0,-1
 219 700 l 1,1,2
 183 736 183 736 88 831 c 1,3,-1
 156 900 l 1,4,-1
 250 806 l 1,5,-1
 344 900 l 1,6,-1
 413 831 l 1,7,-1
 281 700 l 1,8,-1
 300 700 l 2,9,10
 383 700 383 700 441.5 641.5 c 128,-1,11
 500 583 500 583 500 500 c 1,12,-1
 400 500 l 1,13,14
 400 541 400 541 370.5 570.5 c 128,-1,15
 341 600 341 600 300 600 c 2,16,-1
 200 600 l 2,17,18
 159 600 159 600 129.5 570.5 c 128,-1,19
 100 541 100 541 100 500 c 256,20,21
 100 459 100 459 129.5 429.5 c 128,-1,22
 159 400 159 400 200 400 c 2,23,-1
 300 400 l 2,24,25
 383 400 383 400 441.5 341.5 c 128,-1,26
 500 283 500 283 500 200 c 256,27,28
 500 117 500 117 441.5 58.5 c 128,-1,29
 383 0 383 0 300 0 c 2,30,-1
 200 0 l 2,31,32
 117 0 117 0 58.5 58.5 c 128,-1,33
 0 117 0 117 0 200 c 1,34,-1
 100 200 l 1,35,36
 100 159 100 159 129.5 129.5 c 128,-1,37
 159 100 159 100 200 100 c 2,38,-1
 300 100 l 2,39,40
 341 100 341 100 370.5 129.5 c 128,-1,41
 400 159 400 159 400 200 c 256,42,43
 400 241 400 241 370.5 270.5 c 128,-1,44
 341 300 341 300 300 300 c 2,45,-1
 200 300 l 2,46,47
 117 300 117 300 58.5 358.5 c 128,-1,48
 0 417 0 417 0 500 c 256,49,50
 0 583 0 583 58.5 641.5 c 128,-1,51
 117 700 117 700 200 700 c 2,0,-1
EndSplineSet
EndChar

StartChar: scaron
Encoding: 353 353 198
Width: 600
Flags: W
LayerCount: 2
Fore
SplineSet
410 751 m 1,0,-1
 248 588 l 1,1,-1
 85 751 l 1,2,-1
 154 819 l 1,3,-1
 248 726 l 1,4,-1
 342 819 l 1,5,-1
 410 751 l 1,0,-1
500 500 m 1,6,-1
 500 400 l 1,7,-1
 238 400 l 2,8,9
 186 400 186 400 149.5 385.5 c 128,-1,10
 113 371 113 371 113 350 c 256,11,12
 113 329 113 329 149.5 314.5 c 128,-1,13
 186 300 186 300 238 300 c 2,14,-1
 263 300 l 2,15,16
 356 300 356 300 422 256 c 128,-1,17
 488 212 488 212 488 150 c 256,18,19
 488 88 488 88 422 44 c 128,-1,20
 356 0 356 0 263 0 c 2,21,-1
 0 0 l 1,22,-1
 0 100 l 1,23,-1
 263 100 l 2,24,25
 314 100 314 100 351 114.5 c 128,-1,26
 388 129 388 129 388 150 c 256,27,28
 388 171 388 171 351 185.5 c 128,-1,29
 314 200 314 200 263 200 c 2,30,-1
 238 200 l 2,31,32
 144 200 144 200 78.5 244 c 128,-1,33
 13 288 13 288 13 350 c 256,34,35
 13 412 13 412 78.5 456 c 128,-1,36
 144 500 144 500 238 500 c 2,37,-1
 500 500 l 1,6,-1
EndSplineSet
EndChar

StartChar: Ydieresis
Encoding: 376 376 199
Width: 600
Flags: W
LayerCount: 2
Fore
SplineSet
400 850 m 256,0,1
 400 829 400 829 385.5 814.5 c 128,-1,2
 371 800 371 800 350 800 c 256,3,4
 329 800 329 800 314.5 814.5 c 128,-1,5
 300 829 300 829 300 850 c 256,6,7
 300 871 300 871 314.5 885.5 c 128,-1,8
 329 900 329 900 350 900 c 256,9,10
 371 900 371 900 385.5 885.5 c 128,-1,11
 400 871 400 871 400 850 c 256,0,1
200 850 m 256,12,13
 200 829 200 829 185.5 814.5 c 128,-1,14
 171 800 171 800 150 800 c 256,15,16
 129 800 129 800 114.5 814.5 c 128,-1,17
 100 829 100 829 100 850 c 256,18,19
 100 871 100 871 114.5 885.5 c 128,-1,20
 129 900 129 900 150 900 c 256,21,22
 171 900 171 900 185.5 885.5 c 128,-1,23
 200 871 200 871 200 850 c 256,12,13
500 431 m 1,24,-1
 300 231 l 1,25,-1
 300 0 l 1,26,-1
 200 0 l 1,27,-1
 200 231 l 1,28,-1
 0 431 l 1,29,-1
 0 700 l 1,30,-1
 100 700 l 1,31,-1
 100 469 l 1,32,-1
 250 319 l 1,33,-1
 400 469 l 1,34,-1
 400 700 l 1,35,-1
 500 700 l 1,36,-1
 500 431 l 1,24,-1
EndSplineSet
EndChar

StartChar: florin
Encoding: 402 402 200
Width: 600
Flags: W
LayerCount: 2
Fore
SplineSet
500 800 m 1,0,-1
 400 800 l 2,1,2
 359 800 359 800 329.5 770.5 c 128,-1,3
 300 741 300 741 300 700 c 2,4,-1
 300 500 l 1,5,-1
 400 500 l 1,6,-1
 400 400 l 1,7,-1
 300 400 l 1,8,-1
 300 0 l 2,9,10
 300 -81 300 -81 241 -140 c 128,-1,11
 182 -199 182 -199 100 -199 c 2,12,-1
 0 -199 l 1,13,-1
 0 -99 l 1,14,-1
 100 -99 l 2,15,16
 141 -99 141 -99 170.5 -69.5 c 128,-1,17
 200 -40 200 -40 200 0 c 2,18,-1
 200 400 l 1,19,-1
 100 400 l 1,20,-1
 100 500 l 1,21,-1
 200 500 l 1,22,-1
 200 700 l 2,23,24
 200 782 200 782 259 841 c 128,-1,25
 318 900 318 900 400 900 c 2,26,-1
 500 900 l 1,27,-1
 500 800 l 1,0,-1
EndSplineSet
EndChar

StartChar: circumflex
Encoding: 710 710 201
Width: 600
Flags: W
LayerCount: 2
Fore
SplineSet
412 656 m 1,0,-1
 344 588 l 1,1,-1
 250 681 l 1,2,-1
 156 588 l 1,3,-1
 87 656 l 1,4,-1
 250 819 l 1,5,-1
 412 656 l 1,0,-1
EndSplineSet
EndChar

StartChar: caron
Encoding: 711 711 202
Width: 600
Flags: W
LayerCount: 2
Fore
SplineSet
410 751 m 1,0,-1
 248 588 l 1,1,-1
 85 751 l 1,2,-1
 154 819 l 1,3,-1
 248 726 l 1,4,-1
 342 819 l 1,5,-1
 410 751 l 1,0,-1
EndSplineSet
EndChar

StartChar: tilde
Encoding: 726 726 203
AltUni2: 0002dc.ffffffff.0
Width: 600
Flags: W
LayerCount: 2
Fore
SplineSet
500 750 m 2,0,1
 500 688 500 688 456 644 c 128,-1,2
 412 600 412 600 350 600 c 256,3,4
 288 600 288 600 250 638 c 0,5,6
 188 700 188 700 150 700 c 0,7,8
 129 700 129 700 114.5 685.5 c 128,-1,9
 100 671 100 671 100 650 c 2,10,-1
 100 600 l 1,11,-1
 0 600 l 1,12,-1
 0 650 l 2,13,14
 0 712 0 712 44 756 c 128,-1,15
 88 800 88 800 150 800 c 0,16,17
 213 800 213 800 250 763 c 0,18,19
 313 700 313 700 350 700 c 0,20,21
 371 700 371 700 385.5 714.5 c 128,-1,22
 400 729 400 729 400 750 c 2,23,-1
 400 800 l 1,24,-1
 500 800 l 1,25,-1
 500 750 l 2,0,1
EndSplineSet
EndChar

StartChar: breve
Encoding: 728 728 204
Width: 600
Flags: W
LayerCount: 2
Fore
SplineSet
505 800 m 1,0,-1
 405 800 l 1,1,2
 405 759 405 759 375.5 729.5 c 128,-1,3
 346 700 346 700 305 700 c 256,4,5
 264 700 264 700 234.5 729.5 c 128,-1,6
 205 759 205 759 205 800 c 1,7,-1
 105 800 l 1,8,9
 105 717 105 717 163.5 658.5 c 128,-1,10
 222 600 222 600 305 600 c 0,11,12
 387 600 387 600 446 659 c 128,-1,13
 505 718 505 718 505 800 c 1,0,-1
EndSplineSet
EndChar

StartChar: dotaccent
Encoding: 729 729 205
Width: 600
Flags: W
LayerCount: 2
Fore
SplineSet
405 600 m 256,0,1
 405 641 405 641 375.5 670.5 c 128,-1,2
 346 700 346 700 305 700 c 256,3,4
 264 700 264 700 234.5 670.5 c 128,-1,5
 205 641 205 641 205 600 c 256,6,7
 205 559 205 559 234.5 529.5 c 128,-1,8
 264 500 264 500 305 500 c 256,9,10
 346 500 346 500 375.5 529.5 c 128,-1,11
 405 559 405 559 405 600 c 256,0,1
EndSplineSet
EndChar

StartChar: ring
Encoding: 730 730 206
Width: 600
Flags: W
LayerCount: 2
Fore
SplineSet
405 650 m 256,0,1
 405 712 405 712 361 756 c 128,-1,2
 317 800 317 800 255 800 c 256,3,4
 193 800 193 800 149 756 c 128,-1,5
 105 712 105 712 105 650 c 256,6,7
 105 588 105 588 149 544 c 128,-1,8
 193 500 193 500 255 500 c 256,9,10
 317 500 317 500 361 544 c 128,-1,11
 405 588 405 588 405 650 c 256,0,1
305 650 m 256,12,13
 305 629 305 629 290.5 614.5 c 128,-1,14
 276 600 276 600 255 600 c 256,15,16
 234 600 234 600 219.5 614.5 c 128,-1,17
 205 629 205 629 205 650 c 256,18,19
 205 671 205 671 219.5 685.5 c 128,-1,20
 234 700 234 700 255 700 c 256,21,22
 276 700 276 700 290.5 685.5 c 128,-1,23
 305 671 305 671 305 650 c 256,12,13
EndSplineSet
EndChar

StartChar: ogonek
Encoding: 731 731 207
Width: 600
Flags: W
LayerCount: 2
Fore
SplineSet
312 -130 m 1,0,-1
 244 -199 l 1,1,-1
 100 -55 l 1,2,-1
 100 100 l 1,3,-1
 300 100 l 1,4,-1
 300 0 l 1,5,-1
 200 0 l 1,6,-1
 200 -18 l 1,7,-1
 312 -130 l 1,0,-1
EndSplineSet
EndChar

StartChar: hungarumlaut
Encoding: 733 733 208
Width: 600
Flags: W
LayerCount: 2
Fore
SplineSet
524 750 m 1,0,-1
 455 819 l 1,1,-1
 292 656 l 1,2,-1
 361 588 l 1,3,-1
 524 750 l 1,0,-1
236 750 m 1,4,-1
 167 819 l 1,5,-1
 5 656 l 1,6,-1
 74 588 l 1,7,-1
 236 750 l 1,4,-1
EndSplineSet
EndChar

StartChar: endash
Encoding: 8211 8211 209
Width: 600
Flags: W
LayerCount: 2
Fore
SplineSet
400 300 m 1,0,-1
 100 300 l 1,1,-1
 100 400 l 1,2,-1
 400 400 l 1,3,-1
 400 300 l 1,0,-1
EndSplineSet
EndChar

StartChar: emdash
Encoding: 8212 8212 210
Width: 600
Flags: W
LayerCount: 2
Fore
SplineSet
600 300 m 1,0,-1
 0 300 l 1,1,-1
 0 400 l 1,2,-1
 600 400 l 1,3,-1
 600 300 l 1,0,-1
EndSplineSet
EndChar

StartChar: quoteleft
Encoding: 8216 8216 211
Width: 600
Flags: W
LayerCount: 2
Fore
SplineSet
391 662 m 1,0,-1
 330 600 l 2,1,2
 300 570 300 570 300 532 c 2,3,-1
 300 400 l 1,4,-1
 200 400 l 1,5,-1
 200 533 l 2,6,7
 200 612 200 612 259 671 c 2,8,-1
 321 733 l 1,9,-1
 391 662 l 1,0,-1
EndSplineSet
EndChar

StartChar: quoteright
Encoding: 8217 8217 212
Width: 600
Flags: W
LayerCount: 2
Fore
SplineSet
400 567 m 2,0,1
 400 488 400 488 341 429 c 2,2,-1
 279 367 l 1,3,-1
 209 438 l 1,4,-1
 270 500 l 2,5,6
 300 530 300 530 300 568 c 2,7,-1
 300 700 l 1,8,-1
 400 700 l 1,9,-1
 400 567 l 2,0,1
EndSplineSet
EndChar

StartChar: quotesinglbase
Encoding: 8218 8218 213
Width: 600
Flags: W
LayerCount: 2
Fore
SplineSet
200 67 m 2,0,1
 200 -11 200 -11 141 -70 c 2,2,-1
 79 -132 l 1,3,-1
 9 -61 l 1,4,-1
 70 0 l 2,5,6
 100 30 100 30 100 68 c 2,7,-1
 100 200 l 1,8,-1
 200 200 l 1,9,-1
 200 67 l 2,0,1
EndSplineSet
EndChar

StartChar: quotedblleft
Encoding: 8220 8220 214
Width: 600
Flags: W
LayerCount: 2
Fore
SplineSet
491 662 m 1,0,-1
 430 600 l 2,1,2
 400 570 400 570 400 532 c 2,3,-1
 400 400 l 1,4,-1
 300 400 l 1,5,-1
 300 533 l 2,6,7
 300 612 300 612 359 671 c 2,8,-1
 421 733 l 1,9,-1
 491 662 l 1,0,-1
291 662 m 1,10,-1
 230 600 l 2,11,12
 200 570 200 570 200 532 c 2,13,-1
 200 400 l 1,14,-1
 100 400 l 1,15,-1
 100 533 l 2,16,17
 100 612 100 612 159 671 c 2,18,-1
 221 733 l 1,19,-1
 291 662 l 1,10,-1
EndSplineSet
EndChar

StartChar: quotedblright
Encoding: 8221 8221 215
Width: 600
Flags: W
LayerCount: 2
Fore
SplineSet
500 567 m 2,0,1
 500 488 500 488 441 429 c 2,2,-1
 379 367 l 1,3,-1
 309 438 l 1,4,-1
 370 500 l 2,5,6
 400 530 400 530 400 568 c 2,7,-1
 400 700 l 1,8,-1
 500 700 l 1,9,-1
 500 567 l 2,0,1
300 567 m 2,10,11
 300 488 300 488 241 429 c 2,12,-1
 179 367 l 1,13,-1
 109 438 l 1,14,-1
 170 500 l 2,15,16
 200 530 200 530 200 568 c 2,17,-1
 200 700 l 1,18,-1
 300 700 l 1,19,-1
 300 567 l 2,10,11
EndSplineSet
EndChar

StartChar: quotedblbase
Encoding: 8222 8222 216
Width: 600
Flags: W
LayerCount: 2
Fore
SplineSet
400 67 m 2,0,1
 400 -11 400 -11 341 -70 c 2,2,-1
 279 -132 l 1,3,-1
 209 -61 l 1,4,-1
 270 0 l 2,5,6
 300 30 300 30 300 68 c 2,7,-1
 300 200 l 1,8,-1
 400 200 l 1,9,-1
 400 67 l 2,0,1
200 67 m 2,10,11
 200 -11 200 -11 141 -70 c 2,12,-1
 79 -132 l 1,13,-1
 9 -61 l 1,14,-1
 70 0 l 2,15,16
 100 30 100 30 100 68 c 2,17,-1
 100 200 l 1,18,-1
 200 200 l 1,19,-1
 200 67 l 2,10,11
EndSplineSet
EndChar

StartChar: dagger
Encoding: 8224 8224 217
Width: 600
Flags: W
LayerCount: 2
Fore
SplineSet
400 500 m 1,0,-1
 300 500 l 1,1,-1
 300 200 l 1,2,-1
 200 200 l 1,3,-1
 200 500 l 1,4,-1
 100 500 l 1,5,-1
 100 600 l 1,6,-1
 200 600 l 1,7,-1
 200 700 l 1,8,-1
 300 700 l 1,9,-1
 300 600 l 1,10,-1
 400 600 l 1,11,-1
 400 500 l 1,0,-1
EndSplineSet
EndChar

StartChar: daggerdbl
Encoding: 8225 8225 218
Width: 600
Flags: W
LayerCount: 2
Fore
SplineSet
400 300 m 1,0,-1
 300 300 l 1,1,-1
 300 200 l 1,2,-1
 200 200 l 1,3,-1
 200 300 l 1,4,-1
 100 300 l 1,5,-1
 100 400 l 1,6,-1
 200 400 l 1,7,-1
 200 500 l 1,8,-1
 100 500 l 1,9,-1
 100 600 l 1,10,-1
 200 600 l 1,11,-1
 200 700 l 1,12,-1
 300 700 l 1,13,-1
 300 600 l 1,14,-1
 400 600 l 1,15,-1
 400 500 l 1,16,-1
 300 500 l 1,17,-1
 300 400 l 1,18,-1
 400 400 l 1,19,-1
 400 300 l 1,0,-1
EndSplineSet
EndChar

StartChar: bullet
Encoding: 8226 8226 219
Width: 600
Flags: W
LayerCount: 2
Fore
SplineSet
500 350 m 256,0,1
 500 246 500 246 427 173 c 128,-1,2
 354 100 354 100 250 100 c 256,3,4
 146 100 146 100 73 173 c 128,-1,5
 0 246 0 246 0 350 c 256,6,7
 0 454 0 454 73.5 527 c 128,-1,8
 147 600 147 600 250 600 c 0,9,10
 354 600 354 600 427 527 c 128,-1,11
 500 454 500 454 500 350 c 256,0,1
EndSplineSet
EndChar

StartChar: ellipsis
Encoding: 8230 8230 220
Width: 600
Flags: W
LayerCount: 2
Fore
SplineSet
500 50 m 256,0,1
 500 29 500 29 485.5 14.5 c 128,-1,2
 471 0 471 0 450 0 c 256,3,4
 429 0 429 0 414.5 14.5 c 128,-1,5
 400 29 400 29 400 50 c 256,6,7
 400 71 400 71 414.5 85.5 c 128,-1,8
 429 100 429 100 450 100 c 256,9,10
 471 100 471 100 485.5 85.5 c 128,-1,11
 500 71 500 71 500 50 c 256,0,1
300 50 m 256,12,13
 300 29 300 29 285.5 14.5 c 128,-1,14
 271 0 271 0 250 0 c 256,15,16
 229 0 229 0 214.5 14.5 c 128,-1,17
 200 29 200 29 200 50 c 256,18,19
 200 71 200 71 214.5 85.5 c 128,-1,20
 229 100 229 100 250 100 c 256,21,22
 271 100 271 100 285.5 85.5 c 128,-1,23
 300 71 300 71 300 50 c 256,12,13
100 50 m 256,24,25
 100 29 100 29 85.5 14.5 c 128,-1,26
 71 0 71 0 50 0 c 256,27,28
 29 0 29 0 14.5 14.5 c 128,-1,29
 0 29 0 29 0 50 c 256,30,31
 0 71 0 71 14.5 85.5 c 128,-1,32
 29 100 29 100 50 100 c 256,33,34
 71 100 71 100 85.5 85.5 c 128,-1,35
 100 71 100 71 100 50 c 256,24,25
EndSplineSet
EndChar

StartChar: perthousand
Encoding: 8240 8240 221
Width: 600
Flags: W
LayerCount: 2
Fore
SplineSet
605 200 m 256,0,1
 605 117 605 117 561 58.5 c 128,-1,2
 517 0 517 0 455 0 c 0,3,4
 399 0 399 0 355 51 c 1,5,6
 312 0 312 0 255 0 c 0,7,8
 193 0 193 0 149 58.5 c 128,-1,9
 105 117 105 117 105 200 c 0,10,11
 105 221 105 221 107 231 c 1,12,-1
 5 129 l 1,13,-1
 5 271 l 1,14,-1
 136 402 l 1,15,16
 81 412 81 412 43 468 c 128,-1,17
 5 524 5 524 5 600 c 0,18,19
 5 683 5 683 49 741.5 c 128,-1,20
 93 800 93 800 155 800 c 2,21,-1
 605 800 l 1,22,-1
 605 729 l 1,23,-1
 274 398 l 1,24,25
 320 391 320 391 355 349 c 1,26,27
 398 400 398 400 455 400 c 0,28,29
 517 400 517 400 561 341.5 c 128,-1,30
 605 283 605 283 605 200 c 256,0,1
434 700 m 1,31,-1
 285 700 l 1,32,33
 305 655 305 655 305 600 c 0,34,35
 305 589 305 589 303 569 c 1,36,-1
 434 700 l 1,31,-1
205 600 m 256,37,38
 205 641 205 641 190.5 670.5 c 128,-1,39
 176 700 176 700 155 700 c 256,40,41
 134 700 134 700 119.5 670.5 c 128,-1,42
 105 641 105 641 105 600 c 256,43,44
 105 559 105 559 119.5 529.5 c 128,-1,45
 134 500 134 500 155 500 c 256,46,47
 176 500 176 500 190.5 529.5 c 128,-1,48
 205 559 205 559 205 600 c 256,37,38
505 200 m 256,49,50
 505 241 505 241 490.5 270.5 c 128,-1,51
 476 300 476 300 455 300 c 256,52,53
 434 300 434 300 419.5 270.5 c 128,-1,54
 405 241 405 241 405 200 c 256,55,56
 405 159 405 159 419.5 129.5 c 128,-1,57
 434 100 434 100 455 100 c 256,58,59
 476 100 476 100 490.5 129.5 c 128,-1,60
 505 159 505 159 505 200 c 256,49,50
305 200 m 256,61,62
 305 241 305 241 290.5 270.5 c 128,-1,63
 276 300 276 300 255 300 c 256,64,65
 234 300 234 300 219.5 270.5 c 128,-1,66
 205 241 205 241 205 200 c 256,67,68
 205 159 205 159 219.5 129.5 c 128,-1,69
 234 100 234 100 255 100 c 256,70,71
 276 100 276 100 290.5 129.5 c 128,-1,72
 305 159 305 159 305 200 c 256,61,62
EndSplineSet
EndChar

StartChar: guilsinglleft
Encoding: 8249 8249 222
Width: 600
Flags: W
LayerCount: 2
Fore
SplineSet
190 9 m 1,0,-1
 98 -29 l 1,1,-1
 0 200 l 1,2,-1
 98 430 l 1,3,-1
 190 391 l 1,4,-1
 106 200 l 1,5,-1
 190 9 l 1,0,-1
EndSplineSet
EndChar

StartChar: guilsinglright
Encoding: 8250 8250 223
Width: 600
Flags: W
LayerCount: 2
Fore
SplineSet
200 200 m 1,0,-1
 102 -29 l 1,1,-1
 10 9 l 1,2,-1
 94 200 l 1,3,-1
 10 391 l 1,4,-1
 102 430 l 1,5,-1
 200 200 l 1,0,-1
EndSplineSet
EndChar

StartChar: trademark
Encoding: 8482 8482 224
Width: 600
Flags: W
LayerCount: 2
Fore
SplineSet
600 400 m 1,0,-1
 500 400 l 1,1,-1
 500 550 l 1,2,-1
 450 450 l 1,3,-1
 400 550 l 1,4,-1
 400 400 l 1,5,-1
 300 400 l 1,6,-1
 300 600 l 1,7,-1
 200 600 l 1,8,-1
 200 400 l 1,9,-1
 100 400 l 1,10,-1
 100 600 l 1,11,-1
 0 600 l 1,12,-1
 0 700 l 1,13,-1
 400 700 l 1,14,-1
 450 600 l 1,15,-1
 500 700 l 1,16,-1
 600 700 l 1,17,-1
 600 400 l 1,0,-1
EndSplineSet
EndChar

StartChar: verticallinemod
Encoding: 65539 -1 255
Width: 600
Flags: W
LayerCount: 2
Fore
SplineSet
56 0 m 1,0,-1
 56 700 l 1,1,-1
 394 700 l 1,2,-1
 394 0 l 1,3,-1
 56 0 l 1,0,-1
113 56 m 1,4,-1
 338 56 l 1,5,-1
 338 644 l 1,6,-1
 113 644 l 1,7,-1
 113 56 l 1,4,-1
EndSplineSet
EndChar

StartChar: glyph58
Encoding: 65542 -1 258
Width: 600
Flags: W
LayerCount: 2
Fore
SplineSet
244 70 m 1,0,1
 212 0 212 0 150 0 c 256,2,3
 88 0 88 0 44 66 c 128,-1,4
 0 132 0 132 0 225 c 2,5,-1
 0 700 l 1,6,-1
 100 700 l 1,7,-1
 100 225 l 2,8,9
 100 173 100 173 114.5 136 c 128,-1,10
 129 99 129 99 150 99 c 256,11,12
 171 99 171 99 185.5 136 c 128,-1,13
 200 173 200 173 200 225 c 2,14,-1
 200 400 l 1,15,-1
 300 400 l 1,16,-1
 300 225 l 2,17,18
 300 173 300 173 314.5 136.5 c 128,-1,19
 329 100 329 100 350 100 c 256,20,21
 371 100 371 100 385.5 136.5 c 128,-1,22
 400 173 400 173 400 225 c 2,23,-1
 400 700 l 1,24,-1
 500 700 l 1,25,-1
 500 225 l 2,26,27
 500 132 500 132 456 66 c 256,28,29
 412 0 412 0 350 0 c 256,30,31
 288 0 288 0 256 70 c 1,32,-1
 244 70 l 1,0,1
EndSplineSet
EndChar

StartChar: glyph81
Encoding: 65543 -1 259
Width: 600
Flags: W
LayerCount: 2
Fore
SplineSet
100 500 m 1,0,-1
 100 475 l 1,1,2
 140 500 140 500 200 500 c 2,3,-1
 300 500 l 2,4,5
 383 500 383 500 441.5 441.5 c 128,-1,6
 500 383 500 383 500 300 c 2,7,-1
 500 0 l 1,8,-1
 400 0 l 1,9,-1
 400 300 l 2,10,11
 400 340 400 340 370 370 c 256,12,13
 340 400 340 400 300 400 c 0,14,15
 286 400 286 400 200 400 c 0,16,17
 160 400 160 400 130 370 c 256,18,19
 100 340 100 340 100 300 c 2,20,-1
 100 0 l 1,21,-1
 0 0 l 1,22,-1
 0 500 l 1,23,-1
 100 500 l 1,0,-1
EndSplineSet
EndChar

StartChar: glyph257
Encoding: 65544 -1 260
Width: 600
Flags: W
LayerCount: 2
Fore
SplineSet
100 500 m 1,0,-1
 100 475 l 1,1,2
 140 500 140 500 200 500 c 2,3,-1
 300 500 l 2,4,5
 383 500 383 500 441.5 441.5 c 128,-1,6
 500 383 500 383 500 300 c 2,7,-1
 500 0 l 1,8,-1
 400 0 l 1,9,-1
 400 300 l 2,10,11
 400 340 400 340 370 370 c 256,12,13
 340 400 340 400 300 400 c 0,14,15
 286 400 286 400 200 400 c 0,16,17
 160 400 160 400 130 370 c 256,18,19
 100 340 100 340 100 300 c 2,20,-1
 100 0 l 1,21,-1
 0 0 l 1,22,-1
 0 500 l 1,23,-1
 100 500 l 1,0,-1
EndSplineSet
EndChar

StartChar: glyph260
Encoding: 65547 -1 263
Width: 600
Flags: W
LayerCount: 2
Fore
SplineSet
500 500 m 0,0,1
 500 450 500 450 478 408 c 1,2,-1
 300 225 l 1,3,-1
 300 150 l 1,4,-1
 200 150 l 1,5,-1
 200 269 l 1,6,-1
 393 463 l 1,7,8
 400 478 400 478 400 500 c 0,9,10
 400 541 400 541 370.5 570.5 c 128,-1,11
 341 600 341 600 300 600 c 2,12,-1
 200 600 l 2,13,14
 159 600 159 600 129.5 570.5 c 128,-1,15
 100 541 100 541 100 500 c 1,16,-1
 0 500 l 1,17,18
 0 582 0 582 59 641 c 128,-1,19
 118 700 118 700 200 700 c 2,20,-1
 300 700 l 2,21,22
 382 700 382 700 441 641.5 c 128,-1,23
 500 583 500 583 500 500 c 0,0,1
300 50 m 256,24,25
 300 29 300 29 285.5 14.5 c 128,-1,26
 271 0 271 0 250 0 c 256,27,28
 229 0 229 0 214.5 14.5 c 128,-1,29
 200 29 200 29 200 50 c 256,30,31
 200 71 200 71 214.5 85.5 c 128,-1,32
 229 100 229 100 250 100 c 256,33,34
 271 100 271 100 285.5 85.5 c 128,-1,35
 300 71 300 71 300 50 c 256,24,25
EndSplineSet
EndChar
